%
M48
M72
T01C0.04000
%
T01
X31041Y108207
X41041Y108207
X51041Y108207
X61041Y108207
X62341Y84939
X72341Y84939
X52341Y84939
X42341Y84939
X32341Y84939
X22341Y84939
X127892Y77892
X127892Y87892
X127892Y97892
X127892Y107892
X127892Y67892
X127892Y57892
X127892Y47892
X127892Y37892
X127892Y27892
X127892Y17892
X187774Y17734
X187774Y27734
X187774Y37734
X187774Y47734
X187774Y57734
X187774Y67734
X187774Y77734
X187774Y87734
X187774Y97734
X187774Y107734
M30
