G75*
%MOIN*%
%OFA0B0*%
%FSLAX25Y25*%
%IPPOS*%
%LPD*%
%AMOC8*
5,1,8,0,0,1.08239X$1,22.5*
%
%ADD10C,0.00004*%
%ADD11R,0.00300X0.00300*%
%ADD12R,0.03900X0.00300*%
%ADD13R,0.05700X0.00300*%
%ADD14R,0.06600X0.00300*%
%ADD15R,0.07500X0.00300*%
%ADD16R,0.08100X0.00300*%
%ADD17R,0.08700X0.00300*%
%ADD18R,0.09300X0.00300*%
%ADD19R,0.09900X0.00300*%
%ADD20R,0.10200X0.00300*%
%ADD21R,0.10500X0.00300*%
%ADD22R,0.11100X0.00300*%
%ADD23R,0.00600X0.00300*%
%ADD24R,0.02100X0.00300*%
%ADD25R,0.02700X0.00300*%
%ADD26R,0.03300X0.00300*%
%ADD27R,0.03000X0.00300*%
%ADD28R,0.01500X0.00300*%
%ADD29R,0.11400X0.00300*%
%ADD30R,0.01200X0.00300*%
%ADD31R,0.03600X0.00300*%
%ADD32R,0.00900X0.00300*%
%ADD33R,0.48300X0.00300*%
%ADD34R,0.11700X0.00300*%
%ADD35R,0.48000X0.00300*%
%ADD36R,0.12300X0.00300*%
%ADD37R,0.08400X0.00300*%
%ADD38R,0.47700X0.00300*%
%ADD39R,0.12900X0.00300*%
%ADD40R,0.13500X0.00300*%
%ADD41R,0.47100X0.00300*%
%ADD42R,0.46800X0.00300*%
%ADD43R,0.07800X0.00300*%
%ADD44R,0.46200X0.00300*%
%ADD45R,0.45900X0.00300*%
%ADD46R,0.12000X0.00300*%
%ADD47R,0.45300X0.00300*%
%ADD48R,0.45000X0.00300*%
%ADD49R,0.52800X0.00300*%
%ADD50R,0.52200X0.00300*%
%ADD51R,0.43800X0.00300*%
%ADD52R,0.43500X0.00300*%
%ADD53R,0.10800X0.00300*%
%ADD54R,0.43200X0.00300*%
%ADD55R,0.42900X0.00300*%
%ADD56R,0.09600X0.00300*%
%ADD57R,0.42300X0.00300*%
%ADD58R,0.09000X0.00300*%
%ADD59R,0.42000X0.00300*%
%ADD60R,0.41700X0.00300*%
%ADD61R,0.41400X0.00300*%
%ADD62R,0.06900X0.00300*%
%ADD63R,0.41100X0.00300*%
%ADD64R,0.06300X0.00300*%
%ADD65R,0.40800X0.00300*%
%ADD66R,0.04800X0.00300*%
%ADD67R,0.01800X0.00300*%
%ADD68R,0.02400X0.00300*%
%ADD69R,0.40500X0.00300*%
%ADD70R,0.04200X0.00300*%
%ADD71R,0.28800X0.00300*%
%ADD72R,0.25500X0.00300*%
%ADD73R,0.29100X0.00300*%
%ADD74R,0.24000X0.00300*%
%ADD75R,0.29400X0.00300*%
%ADD76R,0.07200X0.00300*%
%ADD77R,0.24300X0.00300*%
%ADD78R,0.29700X0.00300*%
%ADD79R,0.24600X0.00300*%
%ADD80R,0.30000X0.00300*%
%ADD81R,0.30300X0.00300*%
%ADD82R,0.30600X0.00300*%
%ADD83R,0.06000X0.00300*%
%ADD84R,0.30900X0.00300*%
%ADD85R,0.31200X0.00300*%
%ADD86R,0.05400X0.00300*%
%ADD87R,0.31500X0.00300*%
%ADD88R,0.05100X0.00300*%
%ADD89R,0.31800X0.00300*%
%ADD90R,0.32100X0.00300*%
%ADD91R,0.04500X0.00300*%
%ADD92R,0.32400X0.00300*%
%ADD93R,0.32700X0.00300*%
%ADD94R,0.28500X0.00300*%
%ADD95R,0.33000X0.00300*%
%ADD96R,0.26400X0.00300*%
%ADD97R,0.33300X0.00300*%
%ADD98R,0.16200X0.00300*%
%ADD99R,0.20400X0.00300*%
%ADD100R,0.35100X0.00300*%
%ADD101R,0.28200X0.00300*%
%ADD102R,0.17100X0.00300*%
%ADD103R,0.27900X0.00300*%
%ADD104R,0.27600X0.00300*%
%ADD105R,0.26100X0.00300*%
%ADD106R,0.16500X0.00300*%
%ADD107R,0.26700X0.00300*%
%ADD108R,0.48600X0.00300*%
%ADD109R,0.47400X0.00300*%
%ADD110R,0.46500X0.00300*%
%ADD111R,0.44700X0.00300*%
%ADD112R,0.44100X0.00300*%
%ADD113R,0.51300X0.00300*%
%ADD114R,0.50700X0.00300*%
%ADD115R,0.39900X0.00300*%
%ADD116R,0.39300X0.00300*%
%ADD117R,0.38400X0.00300*%
%ADD118R,0.37500X0.00300*%
%ADD119R,0.36900X0.00300*%
%ADD120R,0.36300X0.00300*%
%ADD121R,0.34500X0.00300*%
%ADD122R,0.35400X0.00300*%
D10*
X0001002Y0008876D02*
X0001002Y0205726D01*
X0004033Y0205726D01*
X0004033Y0239506D01*
X0003955Y0239585D02*
X0198837Y0239585D01*
X0198837Y0205726D01*
X0201789Y0205726D01*
X0201789Y0001002D01*
X0016750Y0001002D01*
X0016750Y0008876D01*
X0001002Y0008876D01*
X0096967Y0080726D02*
X0096969Y0080858D01*
X0096975Y0080991D01*
X0096985Y0081123D01*
X0096999Y0081255D01*
X0097016Y0081386D01*
X0097038Y0081517D01*
X0097064Y0081647D01*
X0097093Y0081776D01*
X0097127Y0081904D01*
X0097164Y0082031D01*
X0097205Y0082157D01*
X0097249Y0082282D01*
X0097298Y0082406D01*
X0097350Y0082527D01*
X0097406Y0082648D01*
X0097465Y0082766D01*
X0097528Y0082883D01*
X0097594Y0082998D01*
X0097664Y0083110D01*
X0097737Y0083221D01*
X0097813Y0083329D01*
X0097892Y0083435D01*
X0097975Y0083539D01*
X0098061Y0083640D01*
X0098149Y0083738D01*
X0098241Y0083834D01*
X0098335Y0083927D01*
X0098432Y0084017D01*
X0098532Y0084105D01*
X0098635Y0084189D01*
X0098739Y0084270D01*
X0098847Y0084348D01*
X0098956Y0084422D01*
X0099068Y0084494D01*
X0099182Y0084562D01*
X0099297Y0084626D01*
X0099415Y0084687D01*
X0099534Y0084745D01*
X0099655Y0084799D01*
X0099778Y0084849D01*
X0099902Y0084895D01*
X0100027Y0084938D01*
X0100154Y0084977D01*
X0100282Y0085013D01*
X0100410Y0085044D01*
X0100540Y0085072D01*
X0100670Y0085095D01*
X0100801Y0085115D01*
X0100933Y0085131D01*
X0101065Y0085143D01*
X0101197Y0085151D01*
X0101330Y0085155D01*
X0101462Y0085155D01*
X0101595Y0085151D01*
X0101727Y0085143D01*
X0101859Y0085131D01*
X0101991Y0085115D01*
X0102122Y0085095D01*
X0102252Y0085072D01*
X0102382Y0085044D01*
X0102510Y0085013D01*
X0102638Y0084977D01*
X0102765Y0084938D01*
X0102890Y0084895D01*
X0103014Y0084849D01*
X0103137Y0084799D01*
X0103258Y0084745D01*
X0103377Y0084687D01*
X0103495Y0084626D01*
X0103611Y0084562D01*
X0103724Y0084494D01*
X0103836Y0084422D01*
X0103945Y0084348D01*
X0104053Y0084270D01*
X0104157Y0084189D01*
X0104260Y0084105D01*
X0104360Y0084017D01*
X0104457Y0083927D01*
X0104551Y0083834D01*
X0104643Y0083738D01*
X0104731Y0083640D01*
X0104817Y0083539D01*
X0104900Y0083435D01*
X0104979Y0083329D01*
X0105055Y0083221D01*
X0105128Y0083110D01*
X0105198Y0082998D01*
X0105264Y0082883D01*
X0105327Y0082766D01*
X0105386Y0082648D01*
X0105442Y0082527D01*
X0105494Y0082406D01*
X0105543Y0082282D01*
X0105587Y0082157D01*
X0105628Y0082031D01*
X0105665Y0081904D01*
X0105699Y0081776D01*
X0105728Y0081647D01*
X0105754Y0081517D01*
X0105776Y0081386D01*
X0105793Y0081255D01*
X0105807Y0081123D01*
X0105817Y0080991D01*
X0105823Y0080858D01*
X0105825Y0080726D01*
X0105823Y0080594D01*
X0105817Y0080461D01*
X0105807Y0080329D01*
X0105793Y0080197D01*
X0105776Y0080066D01*
X0105754Y0079935D01*
X0105728Y0079805D01*
X0105699Y0079676D01*
X0105665Y0079548D01*
X0105628Y0079421D01*
X0105587Y0079295D01*
X0105543Y0079170D01*
X0105494Y0079046D01*
X0105442Y0078925D01*
X0105386Y0078804D01*
X0105327Y0078686D01*
X0105264Y0078569D01*
X0105198Y0078454D01*
X0105128Y0078342D01*
X0105055Y0078231D01*
X0104979Y0078123D01*
X0104900Y0078017D01*
X0104817Y0077913D01*
X0104731Y0077812D01*
X0104643Y0077714D01*
X0104551Y0077618D01*
X0104457Y0077525D01*
X0104360Y0077435D01*
X0104260Y0077347D01*
X0104157Y0077263D01*
X0104053Y0077182D01*
X0103945Y0077104D01*
X0103836Y0077030D01*
X0103724Y0076958D01*
X0103610Y0076890D01*
X0103495Y0076826D01*
X0103377Y0076765D01*
X0103258Y0076707D01*
X0103137Y0076653D01*
X0103014Y0076603D01*
X0102890Y0076557D01*
X0102765Y0076514D01*
X0102638Y0076475D01*
X0102510Y0076439D01*
X0102382Y0076408D01*
X0102252Y0076380D01*
X0102122Y0076357D01*
X0101991Y0076337D01*
X0101859Y0076321D01*
X0101727Y0076309D01*
X0101595Y0076301D01*
X0101462Y0076297D01*
X0101330Y0076297D01*
X0101197Y0076301D01*
X0101065Y0076309D01*
X0100933Y0076321D01*
X0100801Y0076337D01*
X0100670Y0076357D01*
X0100540Y0076380D01*
X0100410Y0076408D01*
X0100282Y0076439D01*
X0100154Y0076475D01*
X0100027Y0076514D01*
X0099902Y0076557D01*
X0099778Y0076603D01*
X0099655Y0076653D01*
X0099534Y0076707D01*
X0099415Y0076765D01*
X0099297Y0076826D01*
X0099181Y0076890D01*
X0099068Y0076958D01*
X0098956Y0077030D01*
X0098847Y0077104D01*
X0098739Y0077182D01*
X0098635Y0077263D01*
X0098532Y0077347D01*
X0098432Y0077435D01*
X0098335Y0077525D01*
X0098241Y0077618D01*
X0098149Y0077714D01*
X0098061Y0077812D01*
X0097975Y0077913D01*
X0097892Y0078017D01*
X0097813Y0078123D01*
X0097737Y0078231D01*
X0097664Y0078342D01*
X0097594Y0078454D01*
X0097528Y0078569D01*
X0097465Y0078686D01*
X0097406Y0078804D01*
X0097350Y0078925D01*
X0097298Y0079046D01*
X0097249Y0079170D01*
X0097205Y0079295D01*
X0097164Y0079421D01*
X0097127Y0079548D01*
X0097093Y0079676D01*
X0097064Y0079805D01*
X0097038Y0079935D01*
X0097016Y0080066D01*
X0096999Y0080197D01*
X0096985Y0080329D01*
X0096975Y0080461D01*
X0096969Y0080594D01*
X0096967Y0080726D01*
X0087223Y0179152D02*
X0087227Y0179500D01*
X0087240Y0179847D01*
X0087261Y0180195D01*
X0087291Y0180541D01*
X0087330Y0180887D01*
X0087376Y0181232D01*
X0087432Y0181575D01*
X0087495Y0181917D01*
X0087567Y0182257D01*
X0087648Y0182596D01*
X0087736Y0182932D01*
X0087833Y0183266D01*
X0087938Y0183598D01*
X0088051Y0183927D01*
X0088173Y0184253D01*
X0088302Y0184576D01*
X0088439Y0184895D01*
X0088584Y0185212D01*
X0088736Y0185524D01*
X0088897Y0185833D01*
X0089064Y0186138D01*
X0089239Y0186438D01*
X0089422Y0186735D01*
X0089612Y0187026D01*
X0089808Y0187313D01*
X0090012Y0187595D01*
X0090223Y0187872D01*
X0090440Y0188143D01*
X0090664Y0188409D01*
X0090894Y0188670D01*
X0091131Y0188925D01*
X0091374Y0189174D01*
X0091623Y0189417D01*
X0091878Y0189654D01*
X0092139Y0189884D01*
X0092405Y0190108D01*
X0092676Y0190325D01*
X0092953Y0190536D01*
X0093235Y0190740D01*
X0093522Y0190936D01*
X0093813Y0191126D01*
X0094110Y0191309D01*
X0094410Y0191484D01*
X0094715Y0191651D01*
X0095024Y0191812D01*
X0095336Y0191964D01*
X0095653Y0192109D01*
X0095972Y0192246D01*
X0096295Y0192375D01*
X0096621Y0192497D01*
X0096950Y0192610D01*
X0097282Y0192715D01*
X0097616Y0192812D01*
X0097952Y0192900D01*
X0098291Y0192981D01*
X0098631Y0193053D01*
X0098973Y0193116D01*
X0099316Y0193172D01*
X0099661Y0193218D01*
X0100007Y0193257D01*
X0100353Y0193287D01*
X0100701Y0193308D01*
X0101048Y0193321D01*
X0101396Y0193325D01*
X0101744Y0193321D01*
X0102091Y0193308D01*
X0102439Y0193287D01*
X0102785Y0193257D01*
X0103131Y0193218D01*
X0103476Y0193172D01*
X0103819Y0193116D01*
X0104161Y0193053D01*
X0104501Y0192981D01*
X0104840Y0192900D01*
X0105176Y0192812D01*
X0105510Y0192715D01*
X0105842Y0192610D01*
X0106171Y0192497D01*
X0106497Y0192375D01*
X0106820Y0192246D01*
X0107139Y0192109D01*
X0107456Y0191964D01*
X0107768Y0191812D01*
X0108077Y0191651D01*
X0108382Y0191484D01*
X0108682Y0191309D01*
X0108979Y0191126D01*
X0109270Y0190936D01*
X0109557Y0190740D01*
X0109839Y0190536D01*
X0110116Y0190325D01*
X0110387Y0190108D01*
X0110653Y0189884D01*
X0110914Y0189654D01*
X0111169Y0189417D01*
X0111418Y0189174D01*
X0111661Y0188925D01*
X0111898Y0188670D01*
X0112128Y0188409D01*
X0112352Y0188143D01*
X0112569Y0187872D01*
X0112780Y0187595D01*
X0112984Y0187313D01*
X0113180Y0187026D01*
X0113370Y0186735D01*
X0113553Y0186438D01*
X0113728Y0186138D01*
X0113895Y0185833D01*
X0114056Y0185524D01*
X0114208Y0185212D01*
X0114353Y0184895D01*
X0114490Y0184576D01*
X0114619Y0184253D01*
X0114741Y0183927D01*
X0114854Y0183598D01*
X0114959Y0183266D01*
X0115056Y0182932D01*
X0115144Y0182596D01*
X0115225Y0182257D01*
X0115297Y0181917D01*
X0115360Y0181575D01*
X0115416Y0181232D01*
X0115462Y0180887D01*
X0115501Y0180541D01*
X0115531Y0180195D01*
X0115552Y0179847D01*
X0115565Y0179500D01*
X0115569Y0179152D01*
X0115565Y0178804D01*
X0115552Y0178457D01*
X0115531Y0178109D01*
X0115501Y0177763D01*
X0115462Y0177417D01*
X0115416Y0177072D01*
X0115360Y0176729D01*
X0115297Y0176387D01*
X0115225Y0176047D01*
X0115144Y0175708D01*
X0115056Y0175372D01*
X0114959Y0175038D01*
X0114854Y0174706D01*
X0114741Y0174377D01*
X0114619Y0174051D01*
X0114490Y0173728D01*
X0114353Y0173409D01*
X0114208Y0173092D01*
X0114056Y0172780D01*
X0113895Y0172471D01*
X0113728Y0172166D01*
X0113553Y0171866D01*
X0113370Y0171569D01*
X0113180Y0171278D01*
X0112984Y0170991D01*
X0112780Y0170709D01*
X0112569Y0170432D01*
X0112352Y0170161D01*
X0112128Y0169895D01*
X0111898Y0169634D01*
X0111661Y0169379D01*
X0111418Y0169130D01*
X0111169Y0168887D01*
X0110914Y0168650D01*
X0110653Y0168420D01*
X0110387Y0168196D01*
X0110116Y0167979D01*
X0109839Y0167768D01*
X0109557Y0167564D01*
X0109270Y0167368D01*
X0108979Y0167178D01*
X0108682Y0166995D01*
X0108382Y0166820D01*
X0108077Y0166653D01*
X0107768Y0166492D01*
X0107456Y0166340D01*
X0107139Y0166195D01*
X0106820Y0166058D01*
X0106497Y0165929D01*
X0106171Y0165807D01*
X0105842Y0165694D01*
X0105510Y0165589D01*
X0105176Y0165492D01*
X0104840Y0165404D01*
X0104501Y0165323D01*
X0104161Y0165251D01*
X0103819Y0165188D01*
X0103476Y0165132D01*
X0103131Y0165086D01*
X0102785Y0165047D01*
X0102439Y0165017D01*
X0102091Y0164996D01*
X0101744Y0164983D01*
X0101396Y0164979D01*
X0101048Y0164983D01*
X0100701Y0164996D01*
X0100353Y0165017D01*
X0100007Y0165047D01*
X0099661Y0165086D01*
X0099316Y0165132D01*
X0098973Y0165188D01*
X0098631Y0165251D01*
X0098291Y0165323D01*
X0097952Y0165404D01*
X0097616Y0165492D01*
X0097282Y0165589D01*
X0096950Y0165694D01*
X0096621Y0165807D01*
X0096295Y0165929D01*
X0095972Y0166058D01*
X0095653Y0166195D01*
X0095336Y0166340D01*
X0095024Y0166492D01*
X0094715Y0166653D01*
X0094410Y0166820D01*
X0094110Y0166995D01*
X0093813Y0167178D01*
X0093522Y0167368D01*
X0093235Y0167564D01*
X0092953Y0167768D01*
X0092676Y0167979D01*
X0092405Y0168196D01*
X0092139Y0168420D01*
X0091878Y0168650D01*
X0091623Y0168887D01*
X0091374Y0169130D01*
X0091131Y0169379D01*
X0090894Y0169634D01*
X0090664Y0169895D01*
X0090440Y0170161D01*
X0090223Y0170432D01*
X0090012Y0170709D01*
X0089808Y0170991D01*
X0089612Y0171278D01*
X0089422Y0171569D01*
X0089239Y0171866D01*
X0089064Y0172166D01*
X0088897Y0172471D01*
X0088736Y0172780D01*
X0088584Y0173092D01*
X0088439Y0173409D01*
X0088302Y0173728D01*
X0088173Y0174051D01*
X0088051Y0174377D01*
X0087938Y0174706D01*
X0087833Y0175038D01*
X0087736Y0175372D01*
X0087648Y0175708D01*
X0087567Y0176047D01*
X0087495Y0176387D01*
X0087432Y0176729D01*
X0087376Y0177072D01*
X0087330Y0177417D01*
X0087291Y0177763D01*
X0087261Y0178109D01*
X0087240Y0178457D01*
X0087227Y0178804D01*
X0087223Y0179152D01*
D11*
X0096193Y0196793D03*
X0150493Y0086993D03*
X0151093Y0086993D03*
X0151693Y0086993D03*
X0153193Y0086993D03*
X0154393Y0086993D03*
X0154993Y0086993D03*
X0155893Y0086993D03*
X0156793Y0086993D03*
X0157693Y0086993D03*
X0158293Y0086993D03*
X0159193Y0086993D03*
X0159793Y0086993D03*
X0160693Y0086993D03*
X0161593Y0086993D03*
X0162493Y0086993D03*
X0163993Y0086993D03*
X0164893Y0086993D03*
X0165493Y0086993D03*
X0166093Y0086993D03*
X0167593Y0086993D03*
X0168493Y0086993D03*
X0169093Y0086993D03*
X0169693Y0086993D03*
X0171193Y0086993D03*
X0172093Y0086993D03*
X0173593Y0086993D03*
X0178693Y0082193D03*
X0182593Y0086093D03*
X0172693Y0079493D03*
X0170893Y0079493D03*
X0168793Y0074693D03*
X0166693Y0074693D03*
X0166093Y0069893D03*
X0165193Y0069893D03*
X0164593Y0069893D03*
X0163993Y0069893D03*
X0162493Y0069893D03*
X0161893Y0070493D03*
X0161593Y0069893D03*
X0160993Y0069893D03*
X0160393Y0069893D03*
X0158893Y0069893D03*
X0158293Y0069893D03*
X0157693Y0069893D03*
X0156793Y0069893D03*
X0156193Y0069893D03*
X0155593Y0069893D03*
X0154093Y0069893D03*
X0152893Y0069893D03*
X0152293Y0069893D03*
X0151393Y0069893D03*
X0152293Y0066593D03*
X0153793Y0066593D03*
X0155293Y0066593D03*
X0157093Y0066593D03*
X0158593Y0066593D03*
X0160093Y0066593D03*
X0161893Y0066593D03*
X0164593Y0066593D03*
X0166393Y0066593D03*
X0167893Y0066593D03*
X0169393Y0066593D03*
X0169693Y0069893D03*
X0168793Y0069893D03*
X0168193Y0069893D03*
X0167593Y0069893D03*
X0171193Y0069893D03*
X0171793Y0069893D03*
X0172393Y0069893D03*
X0172993Y0069893D03*
X0174193Y0070493D03*
X0172393Y0062393D03*
X0171793Y0062393D03*
X0171193Y0062393D03*
X0170893Y0054293D03*
X0171193Y0053693D03*
X0171793Y0053693D03*
X0172393Y0053693D03*
X0172993Y0053693D03*
X0170593Y0053693D03*
X0169393Y0053693D03*
X0167893Y0053693D03*
X0166993Y0053693D03*
X0165193Y0053693D03*
X0163993Y0053693D03*
X0163393Y0053693D03*
X0160993Y0053693D03*
X0160093Y0053693D03*
X0159493Y0053693D03*
X0158593Y0053693D03*
X0157993Y0053693D03*
X0157393Y0053693D03*
X0156793Y0053693D03*
X0156193Y0053693D03*
X0156493Y0054293D03*
X0154993Y0054293D03*
X0154993Y0053693D03*
X0153493Y0053693D03*
X0152593Y0053693D03*
X0153493Y0050393D03*
X0151093Y0050393D03*
X0157093Y0050393D03*
X0165493Y0050393D03*
X0167893Y0050393D03*
X0148993Y0066593D03*
X0147193Y0066593D03*
X0147493Y0074693D03*
X0149893Y0074693D03*
X0152593Y0074693D03*
X0154693Y0074693D03*
X0158293Y0074693D03*
X0159793Y0074693D03*
X0161893Y0074693D03*
X0134293Y0051893D03*
X0134293Y0048293D03*
X0130093Y0050093D03*
X0111793Y0053693D03*
X0110293Y0053693D03*
X0109393Y0053693D03*
X0109093Y0054293D03*
X0107593Y0053693D03*
X0106393Y0053693D03*
X0105793Y0053693D03*
X0104893Y0053693D03*
X0104293Y0053693D03*
X0103393Y0053693D03*
X0103093Y0054293D03*
X0101593Y0053693D03*
X0100993Y0053693D03*
X0101293Y0054293D03*
X0100093Y0053693D03*
X0099493Y0053693D03*
X0098593Y0053693D03*
X0097993Y0053693D03*
X0097393Y0053693D03*
X0096793Y0053693D03*
X0096193Y0053693D03*
X0096493Y0054293D03*
X0095293Y0053693D03*
X0093793Y0053093D03*
X0097993Y0050393D03*
X0100993Y0050393D03*
X0107893Y0050393D03*
X0110293Y0050393D03*
X0108493Y0062393D03*
X0107893Y0062393D03*
X0107293Y0062393D03*
X0106693Y0062393D03*
X0106093Y0062393D03*
X0109393Y0065093D03*
X0109393Y0066893D03*
X0108493Y0069893D03*
X0107593Y0069893D03*
X0106993Y0069893D03*
X0106393Y0069893D03*
X0105793Y0069893D03*
X0104893Y0069893D03*
X0104293Y0069893D03*
X0103393Y0069893D03*
X0102493Y0069893D03*
X0101893Y0069893D03*
X0100993Y0069893D03*
X0100393Y0069893D03*
X0099793Y0069893D03*
X0099193Y0069893D03*
X0097693Y0069893D03*
X0096793Y0069893D03*
X0096193Y0069893D03*
X0095593Y0069893D03*
X0094993Y0069893D03*
X0094393Y0069893D03*
X0093793Y0069893D03*
X0093193Y0069893D03*
X0092593Y0069893D03*
X0091993Y0069893D03*
X0091393Y0069893D03*
X0090493Y0069893D03*
X0089893Y0069893D03*
X0088993Y0069893D03*
X0088093Y0069893D03*
X0087493Y0069893D03*
X0086893Y0069893D03*
X0085693Y0069893D03*
X0084193Y0070493D03*
X0085093Y0066593D03*
X0082693Y0066593D03*
X0081193Y0066593D03*
X0087793Y0066593D03*
X0089893Y0066593D03*
X0091693Y0066593D03*
X0093493Y0066593D03*
X0094993Y0066593D03*
X0097393Y0066593D03*
X0098893Y0066593D03*
X0100693Y0066593D03*
X0102493Y0066593D03*
X0104293Y0066593D03*
X0113893Y0082493D03*
X0118093Y0081593D03*
X0118093Y0080393D03*
X0118093Y0086393D03*
X0085093Y0057593D03*
X0085093Y0051593D03*
X0085093Y0050393D03*
X0085093Y0044393D03*
X0085093Y0043193D03*
X0085093Y0037193D03*
X0085093Y0034793D03*
X0085093Y0032393D03*
X0091393Y0042293D03*
X0104893Y0038393D03*
X0105493Y0038393D03*
X0105193Y0037793D03*
X0102193Y0022193D03*
X0101293Y0022193D03*
X0100393Y0022193D03*
X0068893Y0051593D03*
X0068893Y0055193D03*
X0068893Y0056393D03*
X0068893Y0057593D03*
X0068893Y0058793D03*
X0068893Y0060593D03*
X0061393Y0064193D03*
X0061393Y0066893D03*
X0057193Y0066293D03*
X0052693Y0065693D03*
X0052693Y0067493D03*
X0052693Y0068693D03*
X0050893Y0069893D03*
X0049993Y0069893D03*
X0049393Y0069893D03*
X0048793Y0069893D03*
X0047293Y0069893D03*
X0046393Y0069893D03*
X0045793Y0069893D03*
X0045193Y0069893D03*
X0043693Y0069893D03*
X0043093Y0069893D03*
X0042493Y0069893D03*
X0041593Y0069893D03*
X0040993Y0069893D03*
X0040393Y0069893D03*
X0038893Y0069893D03*
X0037093Y0070493D03*
X0037093Y0068993D03*
X0038593Y0066593D03*
X0040093Y0066593D03*
X0041893Y0066593D03*
X0043393Y0066593D03*
X0044893Y0066593D03*
X0046693Y0066593D03*
X0049693Y0062393D03*
X0050293Y0062393D03*
X0050893Y0062393D03*
X0051493Y0062393D03*
X0052093Y0062393D03*
X0052693Y0062393D03*
X0052993Y0053693D03*
X0053593Y0053693D03*
X0054793Y0053693D03*
X0055393Y0053693D03*
X0056293Y0053693D03*
X0055093Y0050393D03*
X0050593Y0053693D03*
X0049693Y0053693D03*
X0049093Y0053693D03*
X0048193Y0053693D03*
X0047593Y0053693D03*
X0046993Y0053693D03*
X0046393Y0053693D03*
X0045793Y0053693D03*
X0046093Y0054293D03*
X0044593Y0053693D03*
X0043093Y0053693D03*
X0042193Y0053693D03*
X0040393Y0053693D03*
X0039193Y0053693D03*
X0038593Y0053693D03*
X0037993Y0053693D03*
X0037093Y0052193D03*
X0040693Y0050393D03*
X0043093Y0050393D03*
X0045193Y0050393D03*
X0048193Y0050393D03*
X0047593Y0037493D03*
X0049093Y0037493D03*
X0051193Y0037493D03*
X0052993Y0037493D03*
X0054793Y0037493D03*
X0056293Y0037493D03*
X0058393Y0037493D03*
X0059893Y0037493D03*
X0056893Y0034193D03*
X0055993Y0034193D03*
X0054493Y0034193D03*
X0053893Y0034193D03*
X0053293Y0034193D03*
X0052693Y0034193D03*
X0050893Y0034193D03*
X0050293Y0034193D03*
X0049693Y0034193D03*
X0049093Y0034193D03*
X0048493Y0034193D03*
X0047893Y0034193D03*
X0047293Y0034193D03*
X0046693Y0034193D03*
X0046093Y0034193D03*
X0045493Y0034193D03*
X0044893Y0034193D03*
X0044293Y0034193D03*
X0043693Y0034193D03*
X0043093Y0034193D03*
X0042493Y0034193D03*
X0041893Y0034193D03*
X0041293Y0034193D03*
X0040693Y0034193D03*
X0038893Y0034193D03*
X0038293Y0034193D03*
X0037693Y0034193D03*
X0036793Y0034193D03*
X0035293Y0034193D03*
X0034693Y0034193D03*
X0034093Y0034193D03*
X0033493Y0034193D03*
X0031693Y0034193D03*
X0031093Y0034193D03*
X0030493Y0034193D03*
X0029893Y0034193D03*
X0029293Y0034193D03*
X0028393Y0034193D03*
X0026893Y0034193D03*
X0026293Y0034193D03*
X0025693Y0034193D03*
X0025093Y0034193D03*
X0024493Y0034193D03*
X0023893Y0034193D03*
X0023293Y0034193D03*
X0022693Y0034193D03*
X0022093Y0034193D03*
X0020893Y0034493D03*
X0019693Y0034193D03*
X0019093Y0034193D03*
X0018493Y0034193D03*
X0017593Y0034193D03*
X0016993Y0034193D03*
X0021793Y0037493D03*
X0023593Y0037493D03*
X0025093Y0037493D03*
X0027493Y0037493D03*
X0029893Y0037493D03*
X0031993Y0037493D03*
X0033793Y0037493D03*
X0035593Y0037493D03*
X0037093Y0037493D03*
X0039193Y0037493D03*
X0040993Y0037493D03*
X0042793Y0037493D03*
X0044293Y0037493D03*
X0046093Y0037493D03*
X0045793Y0026093D03*
X0055393Y0026093D03*
X0062893Y0029993D03*
X0036193Y0026093D03*
X0026593Y0026093D03*
X0028393Y0053693D03*
X0028393Y0057893D03*
X0028393Y0058493D03*
X0028393Y0060893D03*
X0028393Y0062693D03*
X0028393Y0063293D03*
X0028393Y0065693D03*
X0028393Y0067493D03*
X0028393Y0068093D03*
X0028393Y0070493D03*
X0028393Y0072293D03*
X0028393Y0072893D03*
X0028393Y0074093D03*
X0034093Y0066593D03*
X0035593Y0066593D03*
X0035893Y0082793D03*
X0037693Y0082793D03*
X0039193Y0082793D03*
X0040993Y0082793D03*
X0043993Y0082793D03*
X0045793Y0082793D03*
X0045793Y0086093D03*
X0046393Y0086093D03*
X0047293Y0086093D03*
X0048193Y0086093D03*
X0048793Y0086093D03*
X0050593Y0086093D03*
X0051193Y0082793D03*
X0052993Y0082793D03*
X0052993Y0086093D03*
X0056593Y0086093D03*
X0060193Y0086093D03*
X0062893Y0078593D03*
X0063793Y0078593D03*
X0064393Y0078593D03*
X0065593Y0078593D03*
X0066493Y0078593D03*
X0067993Y0078593D03*
X0068593Y0078593D03*
X0044893Y0086093D03*
X0043993Y0086093D03*
X0043393Y0086093D03*
X0042493Y0086093D03*
X0041593Y0086093D03*
X0040993Y0086093D03*
X0040093Y0086093D03*
X0039193Y0086093D03*
X0038593Y0086093D03*
X0034993Y0086093D03*
X0031393Y0086093D03*
X0028993Y0086093D03*
X0028393Y0086093D03*
X0027493Y0086693D03*
X0027193Y0082793D03*
X0028993Y0082793D03*
X0149293Y0029993D03*
D12*
X0131893Y0046493D03*
X0115693Y0078893D03*
X0101293Y0022493D03*
X0180193Y0078593D03*
X0115393Y0151793D03*
X0115393Y0155093D03*
X0095293Y0151793D03*
X0089893Y0151793D03*
X0089893Y0152093D03*
X0085093Y0154793D03*
X0079993Y0152093D03*
X0094993Y0200993D03*
D13*
X0116593Y0077093D03*
X0132793Y0044693D03*
X0101293Y0022793D03*
X0059893Y0060893D03*
X0181093Y0076793D03*
D14*
X0133243Y0043793D03*
X0117043Y0076193D03*
X0101443Y0023093D03*
X0060343Y0059993D03*
D15*
X0060793Y0059093D03*
X0101293Y0023393D03*
X0133693Y0042893D03*
X0117493Y0074993D03*
X0117493Y0075293D03*
X0181993Y0074993D03*
X0182293Y0074693D03*
D16*
X0182293Y0074393D03*
X0182593Y0074093D03*
X0182593Y0073793D03*
X0182593Y0073493D03*
X0182593Y0071693D03*
X0182293Y0071093D03*
X0182593Y0070793D03*
X0182593Y0070193D03*
X0182593Y0069593D03*
X0182293Y0069293D03*
X0182593Y0068993D03*
X0182593Y0067793D03*
X0182293Y0067493D03*
X0182593Y0067193D03*
X0182593Y0066593D03*
X0182593Y0066293D03*
X0182293Y0065693D03*
X0182593Y0065393D03*
X0182593Y0065093D03*
X0182593Y0064493D03*
X0182593Y0063893D03*
X0182593Y0062993D03*
X0182593Y0062693D03*
X0182593Y0061793D03*
X0182593Y0061493D03*
X0182293Y0061193D03*
X0182593Y0060893D03*
X0182593Y0059693D03*
X0182593Y0059393D03*
X0182593Y0059093D03*
X0182293Y0058493D03*
X0182593Y0058193D03*
X0182593Y0057293D03*
X0182593Y0055793D03*
X0182593Y0055493D03*
X0182593Y0054293D03*
X0182293Y0053993D03*
X0182593Y0053693D03*
X0182593Y0053393D03*
X0182593Y0052193D03*
X0182593Y0051893D03*
X0182593Y0050693D03*
X0182593Y0050093D03*
X0182593Y0049793D03*
X0182593Y0049493D03*
X0182293Y0048893D03*
X0182593Y0048593D03*
X0182593Y0048293D03*
X0182593Y0047693D03*
X0182593Y0046193D03*
X0182293Y0045893D03*
X0182593Y0045593D03*
X0182593Y0044993D03*
X0182593Y0044393D03*
X0182293Y0044093D03*
X0182593Y0043793D03*
X0182593Y0042593D03*
X0182593Y0041393D03*
X0182593Y0041093D03*
X0182593Y0039893D03*
X0182293Y0039593D03*
X0182593Y0039293D03*
X0182593Y0038993D03*
X0182593Y0037793D03*
X0182593Y0037493D03*
X0182593Y0036293D03*
X0182593Y0035693D03*
X0182593Y0035393D03*
X0182593Y0035093D03*
X0182293Y0034493D03*
X0182593Y0034193D03*
X0182593Y0033593D03*
X0182593Y0033293D03*
X0182593Y0031793D03*
X0182593Y0029993D03*
X0182293Y0029093D03*
X0182593Y0028793D03*
X0182593Y0028193D03*
X0182593Y0027293D03*
X0182593Y0026993D03*
X0182593Y0026393D03*
X0142093Y0026693D03*
X0141793Y0026393D03*
X0142093Y0027293D03*
X0142093Y0027893D03*
X0142093Y0028493D03*
X0142093Y0029093D03*
X0142093Y0029693D03*
X0133993Y0042293D03*
X0117793Y0050693D03*
X0117793Y0050993D03*
X0117793Y0051293D03*
X0117793Y0051593D03*
X0117793Y0052193D03*
X0117793Y0052493D03*
X0117793Y0053093D03*
X0117793Y0053393D03*
X0117493Y0053693D03*
X0117793Y0054593D03*
X0117793Y0054893D03*
X0117793Y0055193D03*
X0117793Y0055493D03*
X0117793Y0055793D03*
X0117793Y0056393D03*
X0117793Y0056693D03*
X0117793Y0056993D03*
X0117793Y0057293D03*
X0117793Y0057593D03*
X0117793Y0057893D03*
X0117793Y0058193D03*
X0117793Y0058793D03*
X0117793Y0059093D03*
X0117793Y0059393D03*
X0117793Y0059993D03*
X0117793Y0060293D03*
X0117793Y0060593D03*
X0117793Y0060893D03*
X0117793Y0061193D03*
X0117793Y0061793D03*
X0117793Y0062093D03*
X0117793Y0062693D03*
X0117793Y0062993D03*
X0117793Y0063593D03*
X0117793Y0063893D03*
X0117793Y0064193D03*
X0117793Y0064493D03*
X0117793Y0064793D03*
X0117793Y0065093D03*
X0117793Y0065393D03*
X0117793Y0065993D03*
X0117793Y0066293D03*
X0117793Y0066593D03*
X0117793Y0066893D03*
X0117793Y0067193D03*
X0117793Y0067793D03*
X0117793Y0068093D03*
X0117793Y0068693D03*
X0117793Y0068993D03*
X0117793Y0069293D03*
X0117793Y0069593D03*
X0117793Y0070193D03*
X0117793Y0070493D03*
X0117793Y0071093D03*
X0117793Y0071393D03*
X0117793Y0071993D03*
X0117793Y0072293D03*
X0117793Y0072593D03*
X0117793Y0073193D03*
X0117793Y0073493D03*
X0117793Y0073793D03*
X0117793Y0074393D03*
X0117793Y0074693D03*
X0101293Y0032993D03*
X0101293Y0023693D03*
X0077293Y0026393D03*
X0077293Y0026693D03*
X0077293Y0026993D03*
X0077293Y0027293D03*
X0077293Y0027893D03*
X0077293Y0028193D03*
X0077293Y0028493D03*
X0077293Y0028793D03*
X0077293Y0029093D03*
X0077293Y0029693D03*
X0077293Y0029993D03*
X0077293Y0030893D03*
X0077293Y0031493D03*
X0077293Y0031793D03*
X0077293Y0032093D03*
X0077293Y0032393D03*
X0077293Y0032693D03*
X0077293Y0032993D03*
X0077293Y0033293D03*
X0077293Y0033593D03*
X0077293Y0034193D03*
X0077293Y0034493D03*
X0077293Y0034793D03*
X0077293Y0035093D03*
X0077293Y0035393D03*
X0077293Y0035693D03*
X0077293Y0035993D03*
X0077293Y0036593D03*
X0077293Y0036893D03*
X0077293Y0037193D03*
X0077293Y0037493D03*
X0077293Y0037793D03*
X0077293Y0038093D03*
X0077293Y0038393D03*
X0077293Y0038693D03*
X0077293Y0038993D03*
X0077293Y0039293D03*
X0077293Y0039593D03*
X0077293Y0040193D03*
X0077293Y0040493D03*
X0077293Y0040793D03*
X0077293Y0041093D03*
X0077293Y0041693D03*
X0077293Y0041993D03*
X0077293Y0042293D03*
X0077293Y0042593D03*
X0077293Y0043193D03*
X0077293Y0043493D03*
X0077293Y0043793D03*
X0077293Y0044393D03*
X0077293Y0044693D03*
X0077293Y0044993D03*
X0077293Y0045293D03*
X0077293Y0045593D03*
X0077293Y0045893D03*
X0077293Y0046493D03*
X0077293Y0046793D03*
X0077293Y0047093D03*
X0077293Y0047393D03*
X0077293Y0047693D03*
X0077293Y0047993D03*
X0077293Y0048593D03*
X0077293Y0048893D03*
X0077293Y0049193D03*
X0077293Y0049493D03*
X0077293Y0049793D03*
X0077293Y0050093D03*
X0077293Y0050393D03*
X0077293Y0050993D03*
X0077293Y0051293D03*
X0077293Y0051593D03*
X0077293Y0051893D03*
X0077293Y0052493D03*
X0077293Y0052793D03*
X0077293Y0053093D03*
X0077293Y0053393D03*
X0077293Y0053693D03*
X0077293Y0053993D03*
X0077293Y0054293D03*
X0077293Y0054893D03*
X0077293Y0055193D03*
X0077293Y0055493D03*
X0077293Y0055793D03*
X0077293Y0056093D03*
X0077293Y0056693D03*
X0077293Y0056993D03*
X0077293Y0057293D03*
X0077293Y0057593D03*
X0077293Y0057893D03*
X0061093Y0057893D03*
X0061093Y0057593D03*
X0061093Y0057293D03*
X0061093Y0056993D03*
X0061093Y0056693D03*
X0061093Y0056393D03*
X0061093Y0056093D03*
X0061093Y0055793D03*
X0061093Y0055493D03*
X0061093Y0055193D03*
X0061093Y0054893D03*
X0061093Y0053693D03*
X0061093Y0053393D03*
X0061093Y0053093D03*
X0061093Y0052793D03*
X0061093Y0052493D03*
X0061093Y0052193D03*
X0061093Y0051893D03*
X0061093Y0051593D03*
X0061093Y0051293D03*
X0061093Y0050693D03*
X0061093Y0058193D03*
X0061093Y0058493D03*
X0020593Y0058493D03*
X0020593Y0058193D03*
X0020593Y0057893D03*
X0020593Y0057593D03*
X0020593Y0057293D03*
X0020593Y0056993D03*
X0020593Y0056693D03*
X0020593Y0056393D03*
X0020593Y0056093D03*
X0020593Y0055793D03*
X0020593Y0055493D03*
X0020593Y0055193D03*
X0020593Y0054893D03*
X0020593Y0054593D03*
X0020593Y0054293D03*
X0020593Y0053993D03*
X0020593Y0053693D03*
X0020593Y0053393D03*
X0020593Y0053093D03*
X0020593Y0052793D03*
X0020593Y0052493D03*
X0020593Y0052193D03*
X0020593Y0051593D03*
X0020593Y0051293D03*
X0020593Y0050993D03*
X0020593Y0050693D03*
X0020593Y0050393D03*
X0020593Y0050093D03*
X0020593Y0049793D03*
X0020593Y0049493D03*
X0020593Y0049193D03*
X0020593Y0048893D03*
X0020593Y0048593D03*
X0020593Y0048293D03*
X0020593Y0047993D03*
X0020593Y0047693D03*
X0020593Y0047393D03*
X0020593Y0047093D03*
X0020593Y0046193D03*
X0020593Y0045893D03*
X0020593Y0045593D03*
X0020593Y0045293D03*
X0020593Y0044993D03*
X0020593Y0044393D03*
X0020593Y0044093D03*
X0020593Y0043793D03*
X0020593Y0043493D03*
X0020593Y0043193D03*
X0020593Y0042893D03*
X0020593Y0042593D03*
X0020593Y0058793D03*
X0020593Y0059093D03*
X0020593Y0059693D03*
X0020593Y0059993D03*
X0020593Y0060293D03*
X0020593Y0060593D03*
X0020593Y0060893D03*
X0020593Y0061193D03*
X0020593Y0061493D03*
X0020593Y0061793D03*
X0020593Y0062093D03*
X0020593Y0062393D03*
X0020593Y0062693D03*
X0020593Y0062993D03*
X0020593Y0063293D03*
X0020593Y0063593D03*
X0020593Y0063893D03*
X0020593Y0064493D03*
X0020593Y0064793D03*
X0020593Y0065093D03*
X0020593Y0065393D03*
X0020593Y0065693D03*
X0020593Y0065993D03*
X0020593Y0066293D03*
X0020593Y0066593D03*
X0020593Y0066893D03*
X0020593Y0067193D03*
X0020593Y0067493D03*
X0020593Y0067793D03*
X0020593Y0068093D03*
X0020593Y0068393D03*
X0020593Y0068693D03*
X0020593Y0069293D03*
X0020593Y0069593D03*
X0020593Y0069893D03*
X0020593Y0070193D03*
X0020593Y0070493D03*
X0020593Y0070793D03*
X0020593Y0071093D03*
X0020593Y0071393D03*
X0020593Y0071693D03*
X0020593Y0071993D03*
X0020593Y0072293D03*
X0020593Y0072593D03*
X0020593Y0072893D03*
X0020593Y0073193D03*
X0020593Y0073493D03*
X0020593Y0073793D03*
X0020593Y0074093D03*
X0020593Y0074393D03*
D17*
X0101293Y0032693D03*
X0101293Y0023993D03*
X0134293Y0041693D03*
X0141793Y0031493D03*
X0141793Y0031193D03*
D18*
X0141493Y0031793D03*
X0134593Y0041093D03*
X0101293Y0024293D03*
X0060493Y0054293D03*
D19*
X0101293Y0031793D03*
X0101293Y0024593D03*
X0134893Y0040493D03*
D20*
X0135043Y0040193D03*
X0141043Y0032693D03*
X0101443Y0024893D03*
D21*
X0101293Y0025193D03*
X0101293Y0031493D03*
X0135193Y0039893D03*
X0140893Y0032993D03*
D22*
X0135493Y0039293D03*
X0101293Y0030893D03*
X0101293Y0025793D03*
X0101293Y0025493D03*
D23*
X0099943Y0034493D03*
X0100243Y0034793D03*
X0099343Y0042293D03*
X0098443Y0042293D03*
X0094843Y0042293D03*
X0093643Y0050693D03*
X0093943Y0050993D03*
X0093643Y0051293D03*
X0093643Y0051893D03*
X0093643Y0052193D03*
X0093643Y0052793D03*
X0093643Y0053393D03*
X0094243Y0054293D03*
X0097243Y0054293D03*
X0098143Y0054293D03*
X0099043Y0054293D03*
X0102643Y0053693D03*
X0103843Y0054293D03*
X0108643Y0053693D03*
X0111043Y0053693D03*
X0111643Y0054293D03*
X0109243Y0062393D03*
X0109543Y0063293D03*
X0109243Y0063593D03*
X0109243Y0063893D03*
X0109243Y0064193D03*
X0109243Y0064493D03*
X0109243Y0065393D03*
X0109243Y0065993D03*
X0109243Y0067493D03*
X0109543Y0067793D03*
X0109243Y0068093D03*
X0109243Y0068693D03*
X0109243Y0068993D03*
X0109243Y0069293D03*
X0109243Y0069593D03*
X0107143Y0062993D03*
X0098443Y0069893D03*
X0097243Y0070493D03*
X0093643Y0070493D03*
X0084943Y0058193D03*
X0084943Y0056993D03*
X0084943Y0056393D03*
X0085243Y0056093D03*
X0084943Y0055793D03*
X0084943Y0055493D03*
X0085243Y0055193D03*
X0084943Y0054893D03*
X0085243Y0054293D03*
X0084943Y0053993D03*
X0084943Y0053393D03*
X0084943Y0053093D03*
X0085243Y0052793D03*
X0084943Y0052493D03*
X0084943Y0052193D03*
X0084943Y0051293D03*
X0084943Y0049793D03*
X0084943Y0049193D03*
X0085243Y0048893D03*
X0084943Y0048593D03*
X0084943Y0048293D03*
X0085243Y0047993D03*
X0084943Y0047693D03*
X0085243Y0047093D03*
X0084943Y0046793D03*
X0084943Y0046193D03*
X0084943Y0045893D03*
X0085243Y0045593D03*
X0084943Y0045293D03*
X0084943Y0044993D03*
X0084943Y0044093D03*
X0084943Y0042593D03*
X0084943Y0041993D03*
X0085243Y0041693D03*
X0084943Y0041393D03*
X0084943Y0041093D03*
X0085243Y0040793D03*
X0084943Y0040493D03*
X0085243Y0039893D03*
X0084943Y0039593D03*
X0084943Y0038993D03*
X0084943Y0038693D03*
X0085243Y0038393D03*
X0084943Y0038093D03*
X0084943Y0037793D03*
X0084943Y0036593D03*
X0084943Y0035993D03*
X0085243Y0035693D03*
X0084943Y0035393D03*
X0084943Y0034193D03*
X0084943Y0033593D03*
X0085243Y0033293D03*
X0084943Y0032993D03*
X0084943Y0031793D03*
X0084943Y0031193D03*
X0085243Y0030893D03*
X0068743Y0050393D03*
X0068743Y0050993D03*
X0068743Y0051293D03*
X0068743Y0052193D03*
X0068743Y0052793D03*
X0069043Y0053093D03*
X0068743Y0053393D03*
X0068743Y0053693D03*
X0068743Y0054293D03*
X0068743Y0054593D03*
X0068743Y0054893D03*
X0068743Y0056093D03*
X0068743Y0057293D03*
X0068743Y0058193D03*
X0068743Y0058493D03*
X0068743Y0059393D03*
X0068743Y0059693D03*
X0068743Y0060293D03*
X0068743Y0061193D03*
X0069043Y0061493D03*
X0068743Y0061793D03*
X0068743Y0062093D03*
X0068743Y0062393D03*
X0061543Y0063293D03*
X0061243Y0062993D03*
X0061243Y0063893D03*
X0061243Y0064793D03*
X0061243Y0065393D03*
X0061243Y0065993D03*
X0061543Y0066293D03*
X0061243Y0067493D03*
X0061543Y0067793D03*
X0061243Y0068093D03*
X0061243Y0068393D03*
X0061243Y0070193D03*
X0057343Y0065993D03*
X0052843Y0064493D03*
X0052543Y0064193D03*
X0052543Y0063893D03*
X0052543Y0063593D03*
X0052843Y0063293D03*
X0052543Y0064793D03*
X0052543Y0065393D03*
X0052543Y0066293D03*
X0052543Y0066893D03*
X0052543Y0068093D03*
X0052543Y0069293D03*
X0052843Y0069593D03*
X0052543Y0069893D03*
X0052543Y0070493D03*
X0051643Y0069893D03*
X0050443Y0070493D03*
X0048043Y0069893D03*
X0046843Y0070493D03*
X0044443Y0069893D03*
X0042043Y0070493D03*
X0039643Y0069893D03*
X0037243Y0069293D03*
X0037243Y0068693D03*
X0037243Y0068393D03*
X0037243Y0068093D03*
X0036943Y0067493D03*
X0037243Y0067193D03*
X0037243Y0066893D03*
X0028543Y0066593D03*
X0028543Y0066293D03*
X0028543Y0065993D03*
X0028543Y0065093D03*
X0028243Y0064793D03*
X0028543Y0064193D03*
X0028543Y0063893D03*
X0028543Y0063593D03*
X0028543Y0061793D03*
X0028543Y0061493D03*
X0028543Y0061193D03*
X0028543Y0060293D03*
X0028243Y0059993D03*
X0028543Y0059393D03*
X0028543Y0059093D03*
X0028543Y0058793D03*
X0028543Y0056993D03*
X0028543Y0056693D03*
X0028543Y0056393D03*
X0028543Y0055793D03*
X0028243Y0055493D03*
X0028543Y0055193D03*
X0028543Y0054893D03*
X0028243Y0054593D03*
X0028543Y0054293D03*
X0028543Y0053093D03*
X0028243Y0052793D03*
X0028543Y0052493D03*
X0028243Y0052193D03*
X0028543Y0051593D03*
X0028543Y0051293D03*
X0028243Y0050993D03*
X0028543Y0050693D03*
X0028243Y0050393D03*
X0028543Y0049793D03*
X0028543Y0049493D03*
X0028243Y0049193D03*
X0028543Y0048893D03*
X0028243Y0048593D03*
X0028543Y0047993D03*
X0028543Y0047693D03*
X0028243Y0047393D03*
X0028543Y0047093D03*
X0022843Y0042293D03*
X0021043Y0037493D03*
X0021043Y0036893D03*
X0021043Y0036593D03*
X0021043Y0036293D03*
X0021043Y0035693D03*
X0021043Y0035393D03*
X0021043Y0035093D03*
X0020743Y0034793D03*
X0027643Y0034193D03*
X0032443Y0034193D03*
X0036043Y0034193D03*
X0039643Y0034193D03*
X0036943Y0042293D03*
X0036043Y0042293D03*
X0037243Y0050693D03*
X0037243Y0051293D03*
X0037243Y0051593D03*
X0037243Y0051893D03*
X0037243Y0052493D03*
X0037243Y0053093D03*
X0037243Y0053693D03*
X0038443Y0054293D03*
X0041443Y0053693D03*
X0042043Y0054293D03*
X0043843Y0053693D03*
X0044443Y0054293D03*
X0045343Y0054293D03*
X0046843Y0054293D03*
X0047743Y0054293D03*
X0048643Y0054293D03*
X0052243Y0053693D03*
X0052843Y0054293D03*
X0055243Y0054293D03*
X0058543Y0042293D03*
X0059443Y0042293D03*
X0055243Y0034193D03*
X0051643Y0034193D03*
X0051343Y0042293D03*
X0050443Y0042293D03*
X0046843Y0042293D03*
X0064843Y0026093D03*
X0078943Y0066893D03*
X0067543Y0079793D03*
X0060643Y0086693D03*
X0059743Y0086693D03*
X0058843Y0086093D03*
X0057643Y0086093D03*
X0055243Y0086093D03*
X0054043Y0086093D03*
X0051643Y0086093D03*
X0050443Y0086693D03*
X0049843Y0086093D03*
X0046243Y0086693D03*
X0043843Y0086693D03*
X0041443Y0086693D03*
X0039043Y0086693D03*
X0038143Y0086693D03*
X0037243Y0086093D03*
X0036043Y0086093D03*
X0033643Y0086093D03*
X0032443Y0086093D03*
X0030043Y0086093D03*
X0022543Y0083393D03*
X0022243Y0082793D03*
X0028543Y0074393D03*
X0028543Y0073493D03*
X0028543Y0073193D03*
X0028543Y0071393D03*
X0028543Y0071093D03*
X0028543Y0070793D03*
X0028543Y0069893D03*
X0028243Y0069593D03*
X0028543Y0068993D03*
X0028543Y0068693D03*
X0028543Y0068393D03*
X0016843Y0026093D03*
X0108643Y0042293D03*
X0109543Y0042293D03*
X0111643Y0042293D03*
X0112543Y0042293D03*
X0113443Y0042293D03*
X0116443Y0042293D03*
X0117343Y0042293D03*
X0109543Y0036293D03*
X0110443Y0035093D03*
X0110743Y0034493D03*
X0111043Y0033593D03*
X0111043Y0033293D03*
X0111043Y0032993D03*
X0111043Y0032693D03*
X0111043Y0032093D03*
X0111043Y0031793D03*
X0111043Y0031493D03*
X0111043Y0030893D03*
X0110743Y0030293D03*
X0110443Y0029393D03*
X0110143Y0029093D03*
X0125443Y0050693D03*
X0125443Y0050993D03*
X0125443Y0051293D03*
X0125443Y0051593D03*
X0125443Y0051893D03*
X0125443Y0052193D03*
X0125443Y0052493D03*
X0125443Y0052793D03*
X0125443Y0053093D03*
X0125443Y0053393D03*
X0125443Y0053693D03*
X0125443Y0053993D03*
X0125443Y0054293D03*
X0125443Y0054593D03*
X0125443Y0054893D03*
X0125443Y0055193D03*
X0125443Y0055493D03*
X0125443Y0055793D03*
X0125443Y0056093D03*
X0125443Y0056393D03*
X0125443Y0056693D03*
X0125443Y0056993D03*
X0125443Y0057293D03*
X0125443Y0057593D03*
X0125443Y0057893D03*
X0125443Y0058193D03*
X0125443Y0058493D03*
X0125443Y0058793D03*
X0125443Y0059093D03*
X0125443Y0059393D03*
X0125443Y0059693D03*
X0125443Y0059993D03*
X0125443Y0060293D03*
X0125443Y0060593D03*
X0125443Y0060893D03*
X0125443Y0061193D03*
X0125443Y0061493D03*
X0125443Y0061793D03*
X0125443Y0062093D03*
X0125443Y0062393D03*
X0125443Y0062693D03*
X0125443Y0062993D03*
X0125443Y0063293D03*
X0125443Y0063593D03*
X0125443Y0063893D03*
X0125443Y0064193D03*
X0125443Y0064493D03*
X0125443Y0064793D03*
X0125443Y0065093D03*
X0125443Y0065393D03*
X0125443Y0065693D03*
X0125443Y0065993D03*
X0125443Y0066293D03*
X0125443Y0066593D03*
X0125443Y0066893D03*
X0125443Y0067193D03*
X0125443Y0067493D03*
X0125443Y0067793D03*
X0125443Y0068093D03*
X0125443Y0068393D03*
X0125443Y0068693D03*
X0125443Y0068993D03*
X0125443Y0069293D03*
X0125443Y0069593D03*
X0125443Y0069893D03*
X0125443Y0070193D03*
X0125443Y0070493D03*
X0125443Y0070793D03*
X0125443Y0071093D03*
X0125443Y0071393D03*
X0125443Y0071693D03*
X0125443Y0071993D03*
X0125443Y0072293D03*
X0125443Y0072593D03*
X0125443Y0072893D03*
X0125443Y0073193D03*
X0125443Y0073493D03*
X0125443Y0073793D03*
X0125443Y0074093D03*
X0125443Y0074393D03*
X0125443Y0074693D03*
X0125443Y0074993D03*
X0125443Y0075293D03*
X0125443Y0075593D03*
X0125443Y0075893D03*
X0125443Y0076193D03*
X0125443Y0076493D03*
X0125443Y0076793D03*
X0125443Y0077093D03*
X0125443Y0077393D03*
X0125443Y0077693D03*
X0125443Y0077993D03*
X0125443Y0078293D03*
X0125443Y0078593D03*
X0123643Y0080393D03*
X0121243Y0082793D03*
X0118243Y0082493D03*
X0117943Y0082193D03*
X0117943Y0081293D03*
X0117943Y0080093D03*
X0117943Y0079793D03*
X0117943Y0079493D03*
X0118243Y0078893D03*
X0117943Y0083093D03*
X0117943Y0083393D03*
X0118243Y0083693D03*
X0117943Y0083993D03*
X0117943Y0084293D03*
X0117943Y0084593D03*
X0114043Y0082193D03*
X0114043Y0081893D03*
X0134143Y0053993D03*
X0134143Y0052493D03*
X0134143Y0051593D03*
X0134143Y0050993D03*
X0134143Y0050393D03*
X0134443Y0050093D03*
X0134143Y0049793D03*
X0134143Y0049193D03*
X0134143Y0048893D03*
X0134143Y0047693D03*
X0134143Y0047393D03*
X0134143Y0046793D03*
X0134443Y0046493D03*
X0130243Y0049793D03*
X0147343Y0042293D03*
X0149743Y0038093D03*
X0149743Y0037793D03*
X0149743Y0037493D03*
X0149743Y0037193D03*
X0149743Y0036893D03*
X0149743Y0036293D03*
X0149743Y0035993D03*
X0149743Y0035693D03*
X0149743Y0035393D03*
X0149743Y0035093D03*
X0149743Y0034793D03*
X0149743Y0034493D03*
X0149743Y0034193D03*
X0149743Y0033893D03*
X0149743Y0033593D03*
X0149743Y0033293D03*
X0149743Y0032693D03*
X0149743Y0032393D03*
X0149743Y0032093D03*
X0149743Y0031793D03*
X0149743Y0031193D03*
X0149743Y0030893D03*
X0139243Y0026093D03*
X0138343Y0026093D03*
X0157243Y0042293D03*
X0160843Y0042293D03*
X0161743Y0042293D03*
X0164443Y0042293D03*
X0165343Y0042293D03*
X0166243Y0042293D03*
X0168343Y0042293D03*
X0174043Y0047093D03*
X0174043Y0047393D03*
X0174043Y0047693D03*
X0174043Y0047993D03*
X0174043Y0048293D03*
X0174043Y0048593D03*
X0174043Y0048893D03*
X0174043Y0049193D03*
X0174043Y0049493D03*
X0174043Y0049793D03*
X0174043Y0050093D03*
X0174043Y0050393D03*
X0174043Y0050693D03*
X0174043Y0050993D03*
X0174043Y0051293D03*
X0174043Y0051593D03*
X0174043Y0051893D03*
X0174043Y0052193D03*
X0174043Y0052493D03*
X0174043Y0052793D03*
X0174043Y0053093D03*
X0174043Y0053393D03*
X0174043Y0053693D03*
X0171643Y0054293D03*
X0170143Y0054293D03*
X0169243Y0054293D03*
X0168643Y0053693D03*
X0166843Y0054293D03*
X0166243Y0053693D03*
X0163243Y0054293D03*
X0162643Y0053693D03*
X0159043Y0054293D03*
X0158143Y0054293D03*
X0157243Y0054293D03*
X0155743Y0054293D03*
X0154243Y0053693D03*
X0152443Y0054293D03*
X0151843Y0053693D03*
X0150343Y0053393D03*
X0150343Y0053093D03*
X0150343Y0052793D03*
X0150343Y0052493D03*
X0150343Y0052193D03*
X0150343Y0051893D03*
X0150343Y0051593D03*
X0150343Y0051293D03*
X0150343Y0050993D03*
X0150343Y0050693D03*
X0150343Y0050393D03*
X0150343Y0054293D03*
X0150343Y0066593D03*
X0150343Y0066893D03*
X0150343Y0067493D03*
X0150343Y0067793D03*
X0150343Y0068093D03*
X0150343Y0068393D03*
X0150343Y0068693D03*
X0150343Y0068993D03*
X0150343Y0069293D03*
X0150343Y0069593D03*
X0154843Y0069893D03*
X0157243Y0070493D03*
X0159643Y0069893D03*
X0163243Y0069893D03*
X0165643Y0070493D03*
X0166843Y0069893D03*
X0169243Y0070493D03*
X0170443Y0069893D03*
X0174043Y0069893D03*
X0174043Y0069593D03*
X0174043Y0069293D03*
X0174043Y0068993D03*
X0174043Y0068693D03*
X0174043Y0068393D03*
X0174043Y0068093D03*
X0174043Y0067793D03*
X0174043Y0067493D03*
X0174043Y0067193D03*
X0174043Y0066893D03*
X0174043Y0066593D03*
X0174043Y0066293D03*
X0174043Y0065993D03*
X0174043Y0065693D03*
X0174043Y0065393D03*
X0174043Y0065093D03*
X0174043Y0064793D03*
X0174043Y0064493D03*
X0174043Y0064193D03*
X0174043Y0063893D03*
X0174043Y0063593D03*
X0174043Y0063293D03*
X0174043Y0062993D03*
X0173443Y0062393D03*
X0173143Y0062993D03*
X0182743Y0078893D03*
X0182743Y0079193D03*
X0182743Y0079493D03*
X0182743Y0079793D03*
X0182743Y0080093D03*
X0182743Y0080393D03*
X0182743Y0080693D03*
X0182743Y0080993D03*
X0182743Y0081293D03*
X0182743Y0081593D03*
X0182743Y0081893D03*
X0182743Y0082193D03*
X0182743Y0082493D03*
X0182743Y0082793D03*
X0182743Y0083393D03*
X0182743Y0083693D03*
X0182743Y0083993D03*
X0182743Y0084593D03*
X0182743Y0085793D03*
X0178843Y0081593D03*
X0178543Y0081893D03*
X0174043Y0081893D03*
X0174043Y0081593D03*
X0174043Y0081293D03*
X0174043Y0080993D03*
X0174043Y0080693D03*
X0174043Y0080393D03*
X0174043Y0080093D03*
X0174043Y0079793D03*
X0174043Y0079493D03*
X0174043Y0082193D03*
X0174043Y0082493D03*
X0174043Y0082793D03*
X0174043Y0083093D03*
X0174043Y0083393D03*
X0174043Y0083693D03*
X0174043Y0083993D03*
X0174043Y0084293D03*
X0174043Y0084593D03*
X0174043Y0084893D03*
X0174043Y0085193D03*
X0174043Y0085493D03*
X0174043Y0085793D03*
X0174043Y0086093D03*
X0172843Y0086993D03*
X0171643Y0086393D03*
X0170443Y0086993D03*
X0168043Y0086393D03*
X0166843Y0086993D03*
X0164443Y0086393D03*
X0163543Y0086393D03*
X0163243Y0086993D03*
X0158743Y0086393D03*
X0152443Y0086993D03*
X0150343Y0086093D03*
X0150343Y0085793D03*
X0150343Y0085493D03*
X0150343Y0085193D03*
X0150343Y0084893D03*
X0150343Y0084593D03*
X0150343Y0084293D03*
X0150343Y0083993D03*
X0150343Y0083693D03*
X0150343Y0083393D03*
X0150343Y0083093D03*
X0190243Y0077993D03*
X0190243Y0077693D03*
X0190243Y0077393D03*
X0190243Y0077093D03*
X0190243Y0076793D03*
X0190243Y0076493D03*
X0190243Y0076193D03*
X0190243Y0075893D03*
X0190243Y0075593D03*
X0190243Y0075293D03*
X0190243Y0074993D03*
X0190243Y0074693D03*
X0190243Y0074393D03*
X0190243Y0074093D03*
X0190243Y0073793D03*
X0190243Y0073493D03*
X0190243Y0073193D03*
X0190243Y0072893D03*
X0190243Y0072593D03*
X0190243Y0072293D03*
X0190243Y0071993D03*
X0190243Y0071693D03*
X0190243Y0071393D03*
X0190243Y0071093D03*
X0190243Y0070793D03*
X0190243Y0070493D03*
X0190243Y0070193D03*
X0190243Y0069893D03*
X0190243Y0069593D03*
X0190243Y0069293D03*
X0190243Y0068993D03*
X0190243Y0068693D03*
X0190243Y0068393D03*
X0190243Y0068093D03*
X0190243Y0067793D03*
X0190243Y0067493D03*
X0190243Y0067193D03*
X0190243Y0066893D03*
X0190243Y0066593D03*
X0190243Y0066293D03*
X0190243Y0065993D03*
X0190243Y0065693D03*
X0190243Y0065393D03*
X0190243Y0065093D03*
X0190243Y0064793D03*
X0190243Y0064493D03*
X0190243Y0064193D03*
X0190243Y0063893D03*
X0190243Y0063593D03*
X0190243Y0063293D03*
X0190243Y0062993D03*
X0190243Y0062693D03*
X0190243Y0062393D03*
X0190243Y0062093D03*
X0190243Y0061793D03*
X0190243Y0061493D03*
X0190243Y0061193D03*
X0190243Y0060893D03*
X0190243Y0060593D03*
X0190243Y0060293D03*
X0190243Y0059993D03*
X0190243Y0059693D03*
X0190243Y0059393D03*
X0190243Y0059093D03*
X0190243Y0058793D03*
X0190243Y0058493D03*
X0190243Y0058193D03*
X0190243Y0057893D03*
X0190243Y0057593D03*
X0190243Y0057293D03*
X0190243Y0056993D03*
X0190243Y0056693D03*
X0190243Y0056393D03*
X0190243Y0056093D03*
X0190243Y0055793D03*
X0190243Y0055493D03*
X0190243Y0055193D03*
X0190243Y0054893D03*
X0190243Y0054593D03*
X0190243Y0054293D03*
X0190243Y0053993D03*
X0190243Y0053693D03*
X0190243Y0053393D03*
X0190243Y0053093D03*
X0190243Y0052793D03*
X0190243Y0052493D03*
X0190243Y0052193D03*
X0190243Y0051893D03*
X0190243Y0051593D03*
X0190243Y0051293D03*
X0190243Y0050993D03*
X0190243Y0050693D03*
X0190243Y0050393D03*
X0190243Y0050093D03*
X0190243Y0049793D03*
X0190243Y0049493D03*
X0190243Y0049193D03*
X0190243Y0048893D03*
X0190243Y0048593D03*
X0190243Y0048293D03*
X0190243Y0047993D03*
X0190243Y0047693D03*
X0190243Y0047393D03*
X0190243Y0047093D03*
X0190243Y0046793D03*
X0190243Y0046493D03*
X0190243Y0046193D03*
X0190243Y0045893D03*
X0190243Y0045593D03*
X0190243Y0045293D03*
X0190243Y0044993D03*
X0190243Y0044693D03*
X0190243Y0044393D03*
X0190243Y0044093D03*
X0190243Y0043793D03*
X0190243Y0043493D03*
X0190243Y0043193D03*
X0190243Y0042893D03*
X0190243Y0042593D03*
X0190243Y0042293D03*
X0190243Y0041993D03*
X0190243Y0041693D03*
X0190243Y0041393D03*
X0190243Y0041093D03*
X0190243Y0040793D03*
X0190243Y0040493D03*
X0190243Y0040193D03*
X0190243Y0039893D03*
X0190243Y0039593D03*
X0190243Y0039293D03*
X0190243Y0038993D03*
X0190243Y0038693D03*
X0190243Y0038393D03*
X0190243Y0038093D03*
X0190243Y0037793D03*
X0190243Y0037493D03*
X0190243Y0037193D03*
X0190243Y0036893D03*
X0190243Y0036593D03*
X0190243Y0036293D03*
X0190243Y0035993D03*
X0190243Y0035693D03*
X0190243Y0035393D03*
X0190243Y0035093D03*
X0190243Y0034793D03*
X0190243Y0034493D03*
X0190243Y0034193D03*
X0190243Y0033893D03*
X0190243Y0033593D03*
X0190243Y0033293D03*
X0190243Y0032993D03*
X0190243Y0032693D03*
X0190243Y0032393D03*
X0190243Y0032093D03*
X0190243Y0031793D03*
X0190243Y0031493D03*
X0190243Y0031193D03*
X0190243Y0030893D03*
X0096043Y0197093D03*
X0112843Y0198293D03*
X0112843Y0199193D03*
X0112843Y0200093D03*
X0112843Y0200993D03*
X0112843Y0201293D03*
X0112843Y0201893D03*
D24*
X0107893Y0202493D03*
X0100693Y0200093D03*
X0100693Y0199193D03*
X0099793Y0202493D03*
X0095293Y0199493D03*
X0095293Y0199193D03*
X0089893Y0202493D03*
X0115393Y0155693D03*
X0121093Y0154493D03*
X0124993Y0154193D03*
X0103093Y0151193D03*
X0101593Y0152393D03*
X0073393Y0151193D03*
X0071893Y0152393D03*
X0086893Y0070493D03*
X0089293Y0070493D03*
X0103693Y0070493D03*
X0103093Y0042293D03*
X0105493Y0042293D03*
X0103693Y0037793D03*
X0130993Y0048293D03*
X0151093Y0042293D03*
X0179293Y0080393D03*
X0160393Y0086393D03*
X0155593Y0086393D03*
X0058093Y0064493D03*
X0055093Y0042293D03*
X0040693Y0042293D03*
X0037693Y0026093D03*
X0047293Y0026093D03*
X0056893Y0026093D03*
X0028093Y0026093D03*
X0018493Y0026093D03*
D25*
X0021193Y0026093D03*
X0030793Y0026093D03*
X0040393Y0026093D03*
X0049993Y0026093D03*
X0059593Y0026093D03*
X0076393Y0026093D03*
X0058393Y0063893D03*
X0083593Y0069893D03*
X0115093Y0079793D03*
X0115093Y0080093D03*
X0131293Y0047693D03*
X0141193Y0026093D03*
X0183793Y0026093D03*
X0179893Y0079493D03*
X0124993Y0153593D03*
X0119893Y0153593D03*
X0119893Y0152693D03*
X0111493Y0152093D03*
X0111493Y0151793D03*
X0111493Y0151493D03*
X0111493Y0151193D03*
X0111193Y0147593D03*
X0111193Y0147293D03*
X0111193Y0146993D03*
X0111193Y0146693D03*
X0111193Y0146393D03*
X0111193Y0146093D03*
X0111193Y0145793D03*
X0111193Y0145493D03*
X0111193Y0145193D03*
X0111193Y0144893D03*
X0111193Y0144593D03*
X0111193Y0144293D03*
X0111193Y0143993D03*
X0111193Y0143693D03*
X0111193Y0143393D03*
X0111193Y0143093D03*
X0111193Y0142793D03*
X0111193Y0142493D03*
X0111193Y0142193D03*
X0111193Y0141893D03*
X0111193Y0141593D03*
X0111193Y0141293D03*
X0111193Y0140993D03*
X0111193Y0140693D03*
X0111193Y0140393D03*
X0111193Y0140093D03*
X0111193Y0139793D03*
X0111193Y0139493D03*
X0111193Y0139193D03*
X0111193Y0138893D03*
X0111193Y0138593D03*
X0111193Y0138293D03*
X0111193Y0137993D03*
X0111193Y0137693D03*
X0111193Y0137393D03*
X0111193Y0137093D03*
X0111193Y0136793D03*
X0111193Y0136493D03*
X0111193Y0136193D03*
X0111193Y0135893D03*
X0111193Y0135593D03*
X0111193Y0135293D03*
X0111193Y0134993D03*
X0111193Y0134693D03*
X0111193Y0134393D03*
X0111193Y0134093D03*
X0111193Y0133793D03*
X0111193Y0133493D03*
X0111193Y0133193D03*
X0111193Y0132893D03*
X0111193Y0132593D03*
X0111193Y0132293D03*
X0111193Y0131993D03*
X0111193Y0131693D03*
X0111193Y0131393D03*
X0085093Y0155393D03*
X0100093Y0197393D03*
X0107893Y0202193D03*
D26*
X0099793Y0201893D03*
X0100093Y0197993D03*
X0089893Y0197993D03*
X0089893Y0199193D03*
X0089893Y0201893D03*
X0085093Y0155093D03*
X0083293Y0150293D03*
X0083293Y0149993D03*
X0083293Y0149693D03*
X0083293Y0149393D03*
X0083293Y0149093D03*
X0083293Y0148793D03*
X0083293Y0148493D03*
X0083293Y0148193D03*
X0083293Y0147893D03*
X0083293Y0147593D03*
X0083293Y0147293D03*
X0083293Y0146993D03*
X0083293Y0146693D03*
X0083293Y0146393D03*
X0083293Y0146093D03*
X0083293Y0145793D03*
X0083293Y0145493D03*
X0083293Y0145193D03*
X0083293Y0144893D03*
X0083293Y0144593D03*
X0083293Y0144293D03*
X0083293Y0143993D03*
X0083293Y0143693D03*
X0083293Y0143393D03*
X0083293Y0143093D03*
X0083293Y0142793D03*
X0083293Y0142493D03*
X0083293Y0142193D03*
X0083293Y0141893D03*
X0083293Y0141593D03*
X0083293Y0141293D03*
X0083293Y0140993D03*
X0083293Y0140693D03*
X0083293Y0140393D03*
X0083293Y0140093D03*
X0083293Y0139793D03*
X0083293Y0139493D03*
X0083293Y0139193D03*
X0083293Y0138893D03*
X0083293Y0138593D03*
X0083293Y0138293D03*
X0083293Y0137993D03*
X0083293Y0137693D03*
X0083293Y0137393D03*
X0083293Y0137093D03*
X0083293Y0136793D03*
X0083293Y0136493D03*
X0083293Y0136193D03*
X0083293Y0135893D03*
X0083293Y0135593D03*
X0083293Y0135293D03*
X0083293Y0134993D03*
X0083293Y0134693D03*
X0083293Y0134393D03*
X0083293Y0134093D03*
X0083293Y0133793D03*
X0083293Y0133493D03*
X0083293Y0133193D03*
X0083293Y0132893D03*
X0083293Y0132593D03*
X0083293Y0132293D03*
X0083293Y0131993D03*
X0083293Y0131693D03*
X0083293Y0131393D03*
X0095293Y0151493D03*
X0115393Y0151493D03*
X0117193Y0147593D03*
X0117193Y0147293D03*
X0117193Y0146993D03*
X0117193Y0146693D03*
X0117193Y0146393D03*
X0117193Y0146093D03*
X0117193Y0145793D03*
X0117193Y0145493D03*
X0117193Y0145193D03*
X0117193Y0144893D03*
X0117193Y0144593D03*
X0117193Y0144293D03*
X0117193Y0143993D03*
X0117193Y0143693D03*
X0117193Y0143393D03*
X0117193Y0143093D03*
X0117193Y0142793D03*
X0117193Y0142493D03*
X0117193Y0142193D03*
X0117193Y0141893D03*
X0117193Y0141593D03*
X0117193Y0141293D03*
X0117193Y0140993D03*
X0117193Y0140693D03*
X0117193Y0140393D03*
X0117193Y0140093D03*
X0117193Y0139793D03*
X0117193Y0139493D03*
X0117193Y0139193D03*
X0117193Y0138893D03*
X0117193Y0138593D03*
X0117193Y0138293D03*
X0117193Y0137993D03*
X0117193Y0137693D03*
X0117193Y0137393D03*
X0117193Y0137093D03*
X0117193Y0136793D03*
X0117193Y0136493D03*
X0117193Y0136193D03*
X0117193Y0135893D03*
X0117193Y0135593D03*
X0117193Y0135293D03*
X0117193Y0134993D03*
X0117193Y0134693D03*
X0117193Y0134393D03*
X0117193Y0134093D03*
X0117193Y0133793D03*
X0117193Y0133493D03*
X0117193Y0133193D03*
X0117193Y0132893D03*
X0117193Y0132593D03*
X0117193Y0132293D03*
X0117193Y0131993D03*
X0117193Y0131693D03*
X0117193Y0131393D03*
X0126493Y0131393D03*
X0126493Y0131693D03*
X0126493Y0131993D03*
X0126493Y0132293D03*
X0126493Y0132593D03*
X0126493Y0132893D03*
X0126493Y0133193D03*
X0126493Y0133493D03*
X0126493Y0133793D03*
X0126493Y0134093D03*
X0126493Y0134393D03*
X0126493Y0134693D03*
X0126493Y0134993D03*
X0126493Y0135293D03*
X0126493Y0135593D03*
X0126493Y0135893D03*
X0126493Y0136193D03*
X0126493Y0136493D03*
X0126493Y0136793D03*
X0126493Y0137093D03*
X0126493Y0137393D03*
X0126493Y0137693D03*
X0126493Y0137993D03*
X0126493Y0138293D03*
X0126493Y0138593D03*
X0126493Y0138893D03*
X0126493Y0139193D03*
X0126493Y0139493D03*
X0126493Y0139793D03*
X0126493Y0140093D03*
X0126493Y0140393D03*
X0126493Y0140693D03*
X0126493Y0140993D03*
X0126493Y0141293D03*
X0126493Y0141593D03*
X0126493Y0141893D03*
X0126493Y0142193D03*
X0126493Y0142493D03*
X0126493Y0142793D03*
X0126493Y0143093D03*
X0126493Y0143393D03*
X0126493Y0143693D03*
X0126493Y0143993D03*
X0126493Y0144293D03*
X0126493Y0144593D03*
X0126493Y0144893D03*
X0126493Y0145193D03*
X0126493Y0145493D03*
X0126493Y0145793D03*
X0126493Y0146093D03*
X0126493Y0146393D03*
X0126493Y0146693D03*
X0126493Y0146993D03*
X0126493Y0147293D03*
X0126493Y0147593D03*
X0126493Y0147893D03*
X0126493Y0148193D03*
X0126493Y0148493D03*
X0126493Y0148793D03*
X0126493Y0149093D03*
X0126493Y0149393D03*
X0126493Y0149693D03*
X0126493Y0149993D03*
X0126493Y0150293D03*
X0145393Y0150293D03*
X0145393Y0149993D03*
X0145393Y0149693D03*
X0145393Y0149393D03*
X0145393Y0149093D03*
X0145393Y0148793D03*
X0145393Y0148493D03*
X0145393Y0148193D03*
X0145393Y0147893D03*
X0145393Y0147593D03*
X0145393Y0147293D03*
X0145393Y0146993D03*
X0145393Y0146693D03*
X0145393Y0146393D03*
X0145393Y0146093D03*
X0145393Y0145793D03*
X0145393Y0145493D03*
X0145393Y0145193D03*
X0145393Y0144893D03*
X0145393Y0144593D03*
X0145393Y0144293D03*
X0145393Y0143993D03*
X0145393Y0143693D03*
X0145393Y0143393D03*
X0145393Y0143093D03*
X0145393Y0142793D03*
X0145393Y0142493D03*
X0145393Y0142193D03*
X0145393Y0141893D03*
X0145393Y0141593D03*
X0145393Y0141293D03*
X0145393Y0140993D03*
X0145393Y0140693D03*
X0145393Y0140393D03*
X0145393Y0140093D03*
X0145393Y0139793D03*
X0145393Y0139493D03*
X0145393Y0139193D03*
X0145393Y0138893D03*
X0145393Y0138593D03*
X0145393Y0138293D03*
X0145393Y0137993D03*
X0145393Y0137693D03*
X0145393Y0137393D03*
X0145393Y0137093D03*
X0145393Y0136793D03*
X0145393Y0136493D03*
X0145393Y0136193D03*
X0145393Y0135893D03*
X0145393Y0135593D03*
X0145393Y0135293D03*
X0145393Y0134993D03*
X0145393Y0134693D03*
X0145393Y0134393D03*
X0145393Y0134093D03*
X0145393Y0133793D03*
X0145393Y0133493D03*
X0145393Y0133193D03*
X0145393Y0132893D03*
X0145393Y0132593D03*
X0145393Y0132293D03*
X0145393Y0131993D03*
X0145393Y0131693D03*
X0145393Y0131393D03*
X0145393Y0150593D03*
X0145393Y0150893D03*
X0145393Y0151193D03*
X0145393Y0151493D03*
X0145393Y0151793D03*
X0145393Y0152093D03*
X0145393Y0152393D03*
X0145393Y0152693D03*
X0145393Y0152993D03*
X0145393Y0153293D03*
X0145393Y0153593D03*
X0145393Y0153893D03*
X0145393Y0154193D03*
X0145393Y0154493D03*
X0145393Y0154793D03*
X0145393Y0155093D03*
X0145393Y0155393D03*
X0115393Y0079493D03*
X0115393Y0079193D03*
X0131593Y0047093D03*
X0179893Y0079193D03*
X0079693Y0026093D03*
X0053293Y0026093D03*
X0043693Y0026093D03*
X0034093Y0026093D03*
X0024493Y0026093D03*
X0058693Y0063293D03*
X0056593Y0131393D03*
X0056593Y0131693D03*
X0056593Y0131993D03*
X0056593Y0132293D03*
X0056593Y0132593D03*
X0056593Y0132893D03*
X0056593Y0133193D03*
X0056593Y0133493D03*
X0056593Y0133793D03*
X0056593Y0134093D03*
X0056593Y0134393D03*
X0056593Y0134693D03*
X0056593Y0134993D03*
X0056593Y0135293D03*
X0056593Y0135593D03*
X0056593Y0135893D03*
X0056593Y0136193D03*
X0056593Y0136493D03*
X0056593Y0136793D03*
X0056593Y0137093D03*
X0056593Y0137393D03*
X0056593Y0137693D03*
X0056593Y0137993D03*
X0056593Y0138293D03*
X0056593Y0138593D03*
X0056593Y0138893D03*
X0056593Y0139193D03*
X0056593Y0139493D03*
X0056593Y0139793D03*
X0056593Y0140093D03*
X0056593Y0140393D03*
X0056593Y0140693D03*
X0056593Y0140993D03*
X0056593Y0141293D03*
X0056593Y0141593D03*
X0056593Y0141893D03*
X0056593Y0142193D03*
X0056593Y0142493D03*
X0056593Y0142793D03*
X0056593Y0143093D03*
X0056593Y0143393D03*
X0056593Y0143693D03*
X0056593Y0143993D03*
X0056593Y0144293D03*
X0056593Y0144593D03*
X0056593Y0144893D03*
X0056593Y0145193D03*
X0056593Y0145493D03*
X0056593Y0145793D03*
X0056593Y0146093D03*
X0056593Y0146393D03*
X0056593Y0146693D03*
X0056593Y0146993D03*
X0056593Y0147293D03*
X0056593Y0147593D03*
X0056593Y0147893D03*
X0056593Y0148193D03*
X0056593Y0148493D03*
X0056593Y0148793D03*
X0056593Y0149093D03*
X0056593Y0149393D03*
X0056593Y0149693D03*
X0056593Y0149993D03*
X0056593Y0150293D03*
X0056593Y0150593D03*
X0056593Y0150893D03*
X0056593Y0151193D03*
X0056593Y0151493D03*
X0056593Y0151793D03*
X0056593Y0152093D03*
X0056593Y0152393D03*
X0056593Y0152693D03*
X0056593Y0152993D03*
X0056593Y0153293D03*
X0056593Y0153593D03*
X0056593Y0153893D03*
X0056593Y0154193D03*
X0056593Y0154493D03*
X0056593Y0154793D03*
X0056593Y0155093D03*
X0065293Y0155093D03*
X0065293Y0154793D03*
X0065293Y0154493D03*
X0065293Y0154193D03*
X0065293Y0153893D03*
X0065293Y0153593D03*
X0065293Y0153293D03*
X0065293Y0152993D03*
X0065293Y0152693D03*
X0065293Y0152393D03*
X0065293Y0152093D03*
X0065293Y0151793D03*
X0065293Y0151493D03*
X0065293Y0151193D03*
X0065293Y0150893D03*
X0065293Y0150593D03*
X0065293Y0150293D03*
X0065293Y0149993D03*
X0065293Y0149693D03*
X0065293Y0149393D03*
X0065293Y0149093D03*
X0065293Y0148793D03*
X0065293Y0148493D03*
X0065293Y0148193D03*
X0065293Y0147893D03*
X0065293Y0147593D03*
X0065293Y0147293D03*
X0065293Y0146993D03*
X0065293Y0146693D03*
X0065293Y0146393D03*
X0065293Y0146093D03*
X0065293Y0145793D03*
X0065293Y0145493D03*
X0065293Y0145193D03*
X0065293Y0144893D03*
X0065293Y0144593D03*
X0065293Y0144293D03*
X0065293Y0143993D03*
X0065293Y0143693D03*
X0065293Y0143393D03*
X0065293Y0143093D03*
X0065293Y0142793D03*
X0065293Y0142493D03*
X0065293Y0142193D03*
X0065293Y0141893D03*
X0065293Y0141593D03*
X0065293Y0141293D03*
X0065293Y0140993D03*
X0065293Y0140693D03*
X0065293Y0140393D03*
X0065293Y0140093D03*
X0065293Y0139793D03*
X0065293Y0139493D03*
X0065293Y0139193D03*
X0065293Y0138893D03*
X0065293Y0138593D03*
X0065293Y0138293D03*
X0065293Y0137993D03*
X0065293Y0137693D03*
X0065293Y0137393D03*
X0065293Y0137093D03*
X0065293Y0136793D03*
X0065293Y0136493D03*
X0065293Y0136193D03*
X0065293Y0135893D03*
X0065293Y0135593D03*
X0065293Y0135293D03*
X0065293Y0134993D03*
X0065293Y0134693D03*
X0065293Y0134393D03*
X0065293Y0134093D03*
X0065293Y0133793D03*
X0065293Y0133493D03*
X0065293Y0133193D03*
X0065293Y0132893D03*
X0065293Y0132593D03*
X0065293Y0132293D03*
X0065293Y0131993D03*
X0065293Y0131693D03*
X0065293Y0131393D03*
D27*
X0070243Y0151193D03*
X0088843Y0150293D03*
X0088843Y0149993D03*
X0088843Y0149693D03*
X0088843Y0149393D03*
X0088843Y0149093D03*
X0088843Y0148793D03*
X0088843Y0148493D03*
X0088843Y0148193D03*
X0088843Y0147893D03*
X0088843Y0147593D03*
X0088843Y0147293D03*
X0088843Y0146993D03*
X0088843Y0146693D03*
X0088843Y0146393D03*
X0088843Y0146093D03*
X0088843Y0145793D03*
X0088843Y0145493D03*
X0088843Y0145193D03*
X0088843Y0144893D03*
X0088843Y0144593D03*
X0088843Y0144293D03*
X0088843Y0143993D03*
X0088843Y0143693D03*
X0088843Y0143393D03*
X0088843Y0143093D03*
X0088843Y0142793D03*
X0088843Y0142493D03*
X0088843Y0142193D03*
X0088843Y0141893D03*
X0088843Y0141593D03*
X0088843Y0141293D03*
X0088843Y0140993D03*
X0088843Y0140693D03*
X0088843Y0140393D03*
X0088843Y0140093D03*
X0088843Y0139793D03*
X0088843Y0139493D03*
X0088843Y0139193D03*
X0088843Y0138893D03*
X0088843Y0138593D03*
X0088843Y0138293D03*
X0088843Y0137993D03*
X0088843Y0137693D03*
X0088843Y0137393D03*
X0088843Y0137093D03*
X0088843Y0136793D03*
X0088843Y0136493D03*
X0088843Y0136193D03*
X0088843Y0135893D03*
X0088843Y0135593D03*
X0088843Y0135293D03*
X0088843Y0134993D03*
X0088843Y0134693D03*
X0088843Y0134393D03*
X0088843Y0134093D03*
X0088843Y0133793D03*
X0088843Y0133493D03*
X0088843Y0133193D03*
X0088843Y0132893D03*
X0088843Y0132593D03*
X0088843Y0132293D03*
X0088843Y0131993D03*
X0088843Y0131693D03*
X0088843Y0131393D03*
X0099943Y0151193D03*
X0095143Y0155393D03*
X0115243Y0155393D03*
X0120043Y0153893D03*
X0120043Y0152393D03*
X0122443Y0151193D03*
X0125143Y0153293D03*
X0130243Y0151493D03*
X0130243Y0155393D03*
X0152443Y0155393D03*
X0152443Y0155093D03*
X0152443Y0154793D03*
X0152443Y0154493D03*
X0152443Y0154193D03*
X0152443Y0153893D03*
X0152443Y0153593D03*
X0152443Y0153293D03*
X0152443Y0152993D03*
X0152443Y0152693D03*
X0152443Y0152393D03*
X0152443Y0152093D03*
X0152443Y0151793D03*
X0152443Y0151493D03*
X0152443Y0151193D03*
X0152443Y0150893D03*
X0152443Y0150593D03*
X0152443Y0150293D03*
X0152443Y0149993D03*
X0152443Y0149693D03*
X0152443Y0149393D03*
X0152443Y0149093D03*
X0152443Y0148793D03*
X0152443Y0148493D03*
X0152443Y0148193D03*
X0152443Y0147893D03*
X0152443Y0147593D03*
X0152443Y0147293D03*
X0152443Y0146993D03*
X0152443Y0146693D03*
X0152443Y0146393D03*
X0152443Y0146093D03*
X0152443Y0145793D03*
X0152443Y0145493D03*
X0152443Y0145193D03*
X0152443Y0144893D03*
X0152443Y0144593D03*
X0152443Y0144293D03*
X0152443Y0143993D03*
X0152443Y0143693D03*
X0152443Y0143393D03*
X0152443Y0143093D03*
X0152443Y0142793D03*
X0152443Y0142493D03*
X0152443Y0142193D03*
X0152443Y0141893D03*
X0152443Y0141593D03*
X0152443Y0141293D03*
X0152443Y0140993D03*
X0152443Y0140693D03*
X0152443Y0140393D03*
X0152443Y0140093D03*
X0152443Y0139793D03*
X0152443Y0139493D03*
X0152443Y0139193D03*
X0152443Y0138893D03*
X0152443Y0138593D03*
X0152443Y0138293D03*
X0152443Y0137993D03*
X0152443Y0137693D03*
X0152443Y0137393D03*
X0152443Y0137093D03*
X0152443Y0136793D03*
X0152443Y0136493D03*
X0152443Y0136193D03*
X0152443Y0135893D03*
X0152443Y0135593D03*
X0152443Y0135293D03*
X0152443Y0134993D03*
X0152443Y0134693D03*
X0152443Y0134393D03*
X0152443Y0134093D03*
X0152443Y0133793D03*
X0152443Y0133493D03*
X0152443Y0133193D03*
X0152443Y0132893D03*
X0152443Y0132593D03*
X0152443Y0132293D03*
X0152443Y0131993D03*
X0152443Y0131693D03*
X0152443Y0131393D03*
X0162643Y0131393D03*
X0162643Y0131693D03*
X0162643Y0131993D03*
X0162643Y0132293D03*
X0162643Y0132593D03*
X0162643Y0132893D03*
X0162643Y0133193D03*
X0162643Y0133493D03*
X0162643Y0133793D03*
X0162643Y0134093D03*
X0162643Y0134393D03*
X0162643Y0134693D03*
X0162643Y0134993D03*
X0162643Y0135293D03*
X0162643Y0135593D03*
X0162643Y0135893D03*
X0162643Y0136193D03*
X0162643Y0136493D03*
X0162643Y0136793D03*
X0162643Y0137093D03*
X0162643Y0137393D03*
X0162643Y0137693D03*
X0162643Y0137993D03*
X0162643Y0138293D03*
X0162643Y0138593D03*
X0162643Y0138893D03*
X0162643Y0139193D03*
X0162643Y0139493D03*
X0162643Y0139793D03*
X0162643Y0140093D03*
X0162643Y0140393D03*
X0162643Y0140693D03*
X0162643Y0140993D03*
X0162643Y0141293D03*
X0162643Y0141593D03*
X0162643Y0141893D03*
X0162643Y0142193D03*
X0162643Y0142493D03*
X0162643Y0142793D03*
X0162643Y0143093D03*
X0162643Y0143393D03*
X0162643Y0143693D03*
X0162643Y0143993D03*
X0162643Y0144293D03*
X0162643Y0144593D03*
X0162643Y0144893D03*
X0162643Y0145193D03*
X0162643Y0145493D03*
X0162643Y0145793D03*
X0162643Y0146093D03*
X0162643Y0146393D03*
X0162643Y0146693D03*
X0162643Y0146993D03*
X0162643Y0147293D03*
X0162643Y0147593D03*
X0162643Y0147893D03*
X0162643Y0148193D03*
X0162643Y0148493D03*
X0162643Y0148793D03*
X0162643Y0149093D03*
X0162643Y0149393D03*
X0162643Y0149693D03*
X0162643Y0149993D03*
X0162643Y0150293D03*
X0162643Y0150593D03*
X0162643Y0150893D03*
X0162643Y0151193D03*
X0162643Y0151493D03*
X0162643Y0151793D03*
X0162643Y0152093D03*
X0162643Y0152393D03*
X0162643Y0152693D03*
X0162643Y0152993D03*
X0162643Y0153293D03*
X0162643Y0153593D03*
X0162643Y0153893D03*
X0162643Y0154193D03*
X0162643Y0154493D03*
X0162643Y0154793D03*
X0162643Y0155093D03*
X0162643Y0155393D03*
X0107743Y0197693D03*
X0107743Y0201893D03*
X0099943Y0202193D03*
X0099943Y0197693D03*
X0089743Y0197693D03*
X0089743Y0199493D03*
X0089743Y0199793D03*
X0089743Y0200093D03*
X0089743Y0202193D03*
X0036943Y0155093D03*
X0036943Y0154793D03*
X0036943Y0154493D03*
X0036943Y0154193D03*
X0036943Y0153893D03*
X0036943Y0153593D03*
X0036943Y0153293D03*
X0036943Y0152993D03*
X0036943Y0152693D03*
X0036943Y0152393D03*
X0036943Y0152093D03*
X0036943Y0151793D03*
X0036943Y0151493D03*
X0036943Y0151193D03*
X0036943Y0150893D03*
X0036943Y0150593D03*
X0036943Y0150293D03*
X0036943Y0149993D03*
X0036943Y0149693D03*
X0036943Y0149393D03*
X0036943Y0149093D03*
X0036943Y0148793D03*
X0036943Y0148493D03*
X0036943Y0148193D03*
X0036943Y0147893D03*
X0036943Y0147593D03*
X0036943Y0147293D03*
X0036943Y0146993D03*
X0036943Y0146693D03*
X0036943Y0146393D03*
X0036943Y0146093D03*
X0036943Y0145793D03*
X0036943Y0145493D03*
X0036943Y0145193D03*
X0036943Y0144893D03*
X0036943Y0144593D03*
X0036943Y0144293D03*
X0036943Y0143993D03*
X0036943Y0143693D03*
X0036943Y0143393D03*
X0036943Y0143093D03*
X0036943Y0142793D03*
X0036943Y0142493D03*
X0036943Y0142193D03*
X0036943Y0141893D03*
X0036943Y0141593D03*
X0036943Y0141293D03*
X0036943Y0140993D03*
X0036943Y0140693D03*
X0036943Y0140393D03*
X0036943Y0140093D03*
X0036943Y0139793D03*
X0036943Y0139493D03*
X0036943Y0139193D03*
X0036943Y0138893D03*
X0036943Y0138593D03*
X0036943Y0138293D03*
X0036943Y0137993D03*
X0036943Y0137693D03*
X0036943Y0137393D03*
X0036943Y0137093D03*
X0036943Y0136793D03*
X0036943Y0136493D03*
X0036943Y0136193D03*
X0036943Y0135893D03*
X0036943Y0135593D03*
X0036943Y0135293D03*
X0036943Y0134993D03*
X0036943Y0134693D03*
X0036943Y0134393D03*
X0036943Y0134093D03*
X0036943Y0133793D03*
X0036943Y0133493D03*
X0036943Y0133193D03*
X0036943Y0132893D03*
X0036943Y0132593D03*
X0036943Y0132293D03*
X0036943Y0131993D03*
X0036943Y0131693D03*
X0036943Y0131393D03*
X0058543Y0063593D03*
X0062743Y0026093D03*
X0131443Y0047393D03*
D28*
X0130693Y0048893D03*
X0134893Y0052793D03*
X0134593Y0053093D03*
X0145993Y0042293D03*
X0153193Y0042293D03*
X0163093Y0042293D03*
X0160393Y0054293D03*
X0153793Y0054293D03*
X0171793Y0070493D03*
X0179293Y0080693D03*
X0178993Y0081293D03*
X0183193Y0084893D03*
X0174493Y0131393D03*
X0174493Y0131693D03*
X0174493Y0131993D03*
X0174493Y0132293D03*
X0174493Y0132593D03*
X0174493Y0132893D03*
X0174493Y0133193D03*
X0174493Y0133493D03*
X0174493Y0133793D03*
X0174493Y0134093D03*
X0174493Y0134393D03*
X0174493Y0134693D03*
X0174493Y0134993D03*
X0174493Y0135293D03*
X0174493Y0135593D03*
X0174493Y0135893D03*
X0174493Y0136193D03*
X0174493Y0136493D03*
X0174493Y0136793D03*
X0174493Y0137093D03*
X0174493Y0137393D03*
X0174493Y0137693D03*
X0174493Y0137993D03*
X0174493Y0138293D03*
X0174493Y0138593D03*
X0174493Y0138893D03*
X0174493Y0139193D03*
X0174493Y0139493D03*
X0174493Y0139793D03*
X0174493Y0140093D03*
X0174493Y0140393D03*
X0174493Y0140693D03*
X0174493Y0140993D03*
X0174493Y0141293D03*
X0174493Y0141593D03*
X0174493Y0141893D03*
X0174493Y0142193D03*
X0174493Y0142493D03*
X0174493Y0142793D03*
X0174493Y0143093D03*
X0174493Y0143393D03*
X0174493Y0143693D03*
X0174493Y0143993D03*
X0174493Y0144293D03*
X0174493Y0144593D03*
X0174493Y0144893D03*
X0174493Y0145193D03*
X0174493Y0145493D03*
X0174493Y0145793D03*
X0174493Y0146093D03*
X0174493Y0146393D03*
X0174493Y0146693D03*
X0174493Y0146993D03*
X0174493Y0147293D03*
X0174493Y0147593D03*
X0174493Y0147893D03*
X0174493Y0148193D03*
X0174493Y0148493D03*
X0174493Y0148793D03*
X0174493Y0149093D03*
X0174493Y0149393D03*
X0174493Y0149693D03*
X0174493Y0149993D03*
X0174493Y0150293D03*
X0174493Y0150593D03*
X0174493Y0150893D03*
X0174493Y0151193D03*
X0174493Y0151493D03*
X0174493Y0151793D03*
X0174493Y0152093D03*
X0174493Y0152393D03*
X0174493Y0152693D03*
X0174493Y0152993D03*
X0174493Y0153293D03*
X0174493Y0153593D03*
X0174493Y0153893D03*
X0174493Y0154193D03*
X0174493Y0154493D03*
X0174493Y0154793D03*
X0174493Y0155093D03*
X0174493Y0155393D03*
X0165793Y0155393D03*
X0165793Y0155093D03*
X0165793Y0154793D03*
X0165793Y0154493D03*
X0165793Y0154193D03*
X0165793Y0153893D03*
X0165793Y0153593D03*
X0165793Y0153293D03*
X0165793Y0152993D03*
X0165793Y0152693D03*
X0165793Y0152393D03*
X0165793Y0152093D03*
X0165793Y0151793D03*
X0165793Y0151493D03*
X0165793Y0151193D03*
X0165793Y0150893D03*
X0165793Y0150593D03*
X0165793Y0150293D03*
X0165793Y0149993D03*
X0165793Y0149693D03*
X0165793Y0149393D03*
X0165793Y0149093D03*
X0165793Y0148793D03*
X0165793Y0148493D03*
X0165793Y0148193D03*
X0165793Y0147893D03*
X0165793Y0147593D03*
X0165793Y0147293D03*
X0165793Y0146993D03*
X0165793Y0146693D03*
X0165793Y0146393D03*
X0165793Y0146093D03*
X0165793Y0145793D03*
X0165793Y0145493D03*
X0165793Y0145193D03*
X0165793Y0144893D03*
X0165793Y0144593D03*
X0165793Y0144293D03*
X0165793Y0143993D03*
X0165793Y0143693D03*
X0165793Y0143393D03*
X0165793Y0143093D03*
X0165793Y0142793D03*
X0165793Y0142493D03*
X0165793Y0142193D03*
X0165793Y0141893D03*
X0165793Y0141593D03*
X0165793Y0141293D03*
X0165793Y0140993D03*
X0165793Y0140693D03*
X0165793Y0140393D03*
X0165793Y0140093D03*
X0165793Y0139793D03*
X0165793Y0139493D03*
X0165793Y0139193D03*
X0165793Y0138893D03*
X0165793Y0138593D03*
X0165793Y0138293D03*
X0165793Y0137993D03*
X0165793Y0137693D03*
X0165793Y0137393D03*
X0165793Y0137093D03*
X0165793Y0136793D03*
X0165793Y0136493D03*
X0165793Y0136193D03*
X0165793Y0135893D03*
X0165793Y0135593D03*
X0165793Y0135293D03*
X0165793Y0134993D03*
X0165793Y0134693D03*
X0165793Y0134393D03*
X0165793Y0134093D03*
X0165793Y0133793D03*
X0165793Y0133493D03*
X0165793Y0133193D03*
X0165793Y0132893D03*
X0165793Y0132593D03*
X0165793Y0132293D03*
X0165793Y0131993D03*
X0165793Y0131693D03*
X0165793Y0131393D03*
X0131893Y0152693D03*
X0131893Y0152993D03*
X0131893Y0153893D03*
X0131893Y0154193D03*
X0128593Y0154193D03*
X0128593Y0153893D03*
X0128593Y0152993D03*
X0128593Y0152693D03*
X0126793Y0151493D03*
X0126793Y0151193D03*
X0126493Y0152093D03*
X0126193Y0152693D03*
X0125893Y0152993D03*
X0124093Y0152993D03*
X0124093Y0152693D03*
X0123793Y0152393D03*
X0123493Y0151793D03*
X0124993Y0154793D03*
X0124993Y0155093D03*
X0124693Y0155393D03*
X0124693Y0155693D03*
X0124393Y0155993D03*
X0124393Y0156293D03*
X0124093Y0156593D03*
X0124093Y0156893D03*
X0123793Y0157193D03*
X0123493Y0157793D03*
X0121993Y0155693D03*
X0117193Y0153593D03*
X0117193Y0153293D03*
X0116893Y0152693D03*
X0116893Y0154193D03*
X0113593Y0153893D03*
X0113593Y0153593D03*
X0113593Y0153293D03*
X0113593Y0152993D03*
X0113593Y0152693D03*
X0113893Y0152393D03*
X0108793Y0154793D03*
X0108793Y0155093D03*
X0108793Y0155393D03*
X0103993Y0155393D03*
X0103993Y0155093D03*
X0103993Y0154793D03*
X0103993Y0154493D03*
X0103993Y0154193D03*
X0103993Y0153893D03*
X0103993Y0153593D03*
X0103993Y0153293D03*
X0103993Y0152993D03*
X0103993Y0152693D03*
X0103993Y0152393D03*
X0101593Y0152693D03*
X0101593Y0152993D03*
X0103993Y0155693D03*
X0106093Y0149693D03*
X0099193Y0152393D03*
X0099193Y0152693D03*
X0096793Y0152693D03*
X0096793Y0154193D03*
X0093493Y0154193D03*
X0093493Y0153893D03*
X0093493Y0153593D03*
X0093493Y0152993D03*
X0093493Y0152693D03*
X0093793Y0152393D03*
X0091393Y0152693D03*
X0091393Y0152993D03*
X0091393Y0153293D03*
X0091393Y0153593D03*
X0091393Y0153893D03*
X0091393Y0154193D03*
X0091393Y0154493D03*
X0091393Y0154793D03*
X0091393Y0155093D03*
X0091393Y0155393D03*
X0091393Y0155693D03*
X0088693Y0153293D03*
X0088693Y0152993D03*
X0088693Y0152693D03*
X0088693Y0152393D03*
X0086293Y0154193D03*
X0086293Y0154493D03*
X0083893Y0154493D03*
X0079693Y0153893D03*
X0076393Y0149693D03*
X0074293Y0152693D03*
X0074293Y0152993D03*
X0074293Y0153293D03*
X0074293Y0153593D03*
X0074293Y0153893D03*
X0074293Y0154193D03*
X0074293Y0154493D03*
X0074293Y0154793D03*
X0074293Y0155093D03*
X0074293Y0155393D03*
X0074293Y0155693D03*
X0071893Y0152993D03*
X0071893Y0152693D03*
X0069493Y0152693D03*
X0069493Y0152393D03*
X0088693Y0198293D03*
X0088693Y0198893D03*
X0088693Y0200393D03*
X0090793Y0200393D03*
X0094393Y0200093D03*
X0095593Y0198593D03*
X0095593Y0198293D03*
X0098893Y0201593D03*
X0100993Y0198893D03*
X0106693Y0198293D03*
X0106993Y0197993D03*
X0107893Y0197093D03*
X0108793Y0197993D03*
X0108793Y0201593D03*
X0106993Y0201593D03*
X0106693Y0201293D03*
X0112393Y0197693D03*
X0112693Y0197393D03*
X0025693Y0085793D03*
X0025093Y0085493D03*
X0049993Y0054293D03*
X0057793Y0065093D03*
X0057193Y0042293D03*
X0042793Y0042293D03*
X0020893Y0034193D03*
X0018793Y0042293D03*
X0073993Y0026093D03*
X0090193Y0042293D03*
X0105193Y0054293D03*
X0110293Y0054293D03*
X0106993Y0070493D03*
X0114493Y0081293D03*
X0081793Y0069293D03*
X0081193Y0068993D03*
X0107893Y0037493D03*
X0108493Y0037193D03*
X0145093Y0026093D03*
D29*
X0140443Y0033893D03*
X0140443Y0034193D03*
X0139843Y0034793D03*
X0138643Y0035993D03*
X0138043Y0036593D03*
X0137743Y0036893D03*
X0136843Y0037793D03*
X0135943Y0038693D03*
X0135643Y0038993D03*
X0101443Y0030593D03*
X0101443Y0026093D03*
D30*
X0108643Y0027593D03*
X0108943Y0036893D03*
X0107443Y0042293D03*
X0102343Y0037193D03*
X0101743Y0036893D03*
X0097243Y0042293D03*
X0093643Y0042293D03*
X0093943Y0053693D03*
X0095443Y0054293D03*
X0100243Y0054293D03*
X0106843Y0054293D03*
X0108943Y0070493D03*
X0099643Y0070493D03*
X0096043Y0070493D03*
X0092443Y0070493D03*
X0080743Y0068693D03*
X0068143Y0062993D03*
X0066943Y0064193D03*
X0064543Y0066593D03*
X0061843Y0069293D03*
X0061543Y0069593D03*
X0057643Y0065393D03*
X0052243Y0062993D03*
X0050743Y0062993D03*
X0049243Y0070493D03*
X0045643Y0070493D03*
X0040843Y0070493D03*
X0038143Y0070493D03*
X0024643Y0085193D03*
X0024043Y0084893D03*
X0023743Y0084593D03*
X0021943Y0082493D03*
X0040243Y0086693D03*
X0042643Y0086693D03*
X0045043Y0086693D03*
X0061243Y0086093D03*
X0061543Y0085793D03*
X0061843Y0085493D03*
X0062743Y0084593D03*
X0063343Y0083993D03*
X0063643Y0083693D03*
X0064543Y0082793D03*
X0064843Y0082493D03*
X0065443Y0081893D03*
X0066343Y0080993D03*
X0066943Y0080393D03*
X0067243Y0080093D03*
X0067843Y0079493D03*
X0054043Y0054293D03*
X0051643Y0054293D03*
X0043243Y0054293D03*
X0039643Y0054293D03*
X0034843Y0042293D03*
X0045643Y0042293D03*
X0049243Y0042293D03*
X0060643Y0042293D03*
X0062443Y0036593D03*
X0064243Y0034793D03*
X0065143Y0033893D03*
X0067243Y0031793D03*
X0024043Y0042293D03*
X0021643Y0042293D03*
X0017143Y0042293D03*
X0031843Y0131393D03*
X0031843Y0131693D03*
X0031843Y0131993D03*
X0031843Y0132293D03*
X0031843Y0132593D03*
X0031843Y0132893D03*
X0031843Y0133193D03*
X0031843Y0133493D03*
X0031843Y0133793D03*
X0031843Y0134093D03*
X0031843Y0134393D03*
X0031843Y0134693D03*
X0031843Y0134993D03*
X0031843Y0135293D03*
X0031843Y0135593D03*
X0031843Y0135893D03*
X0031843Y0136193D03*
X0031843Y0136493D03*
X0031843Y0136793D03*
X0031843Y0137093D03*
X0031843Y0137393D03*
X0031843Y0137693D03*
X0031843Y0137993D03*
X0031843Y0138293D03*
X0031843Y0138593D03*
X0031843Y0138893D03*
X0031843Y0139193D03*
X0031843Y0139493D03*
X0031843Y0139793D03*
X0031843Y0140093D03*
X0031843Y0140393D03*
X0031843Y0140693D03*
X0031843Y0140993D03*
X0031843Y0141293D03*
X0031843Y0141593D03*
X0031843Y0141893D03*
X0031843Y0142193D03*
X0031843Y0142493D03*
X0031843Y0142793D03*
X0031843Y0143093D03*
X0031843Y0143393D03*
X0031843Y0143693D03*
X0031843Y0143993D03*
X0031843Y0144293D03*
X0031843Y0144593D03*
X0031843Y0144893D03*
X0031843Y0145193D03*
X0031843Y0145493D03*
X0031843Y0145793D03*
X0031843Y0146093D03*
X0031843Y0146393D03*
X0031843Y0146693D03*
X0031843Y0146993D03*
X0031843Y0147293D03*
X0031843Y0147593D03*
X0031843Y0147893D03*
X0031843Y0148193D03*
X0031843Y0148493D03*
X0031843Y0148793D03*
X0031843Y0149093D03*
X0031843Y0149393D03*
X0031843Y0149693D03*
X0031843Y0149993D03*
X0031843Y0150293D03*
X0031843Y0150593D03*
X0031843Y0150893D03*
X0031843Y0151193D03*
X0031843Y0151493D03*
X0031843Y0151793D03*
X0031843Y0152093D03*
X0031843Y0152393D03*
X0031843Y0152693D03*
X0031843Y0152993D03*
X0031843Y0153293D03*
X0031843Y0153593D03*
X0031843Y0153893D03*
X0031843Y0154193D03*
X0031843Y0154493D03*
X0031843Y0154793D03*
X0031843Y0155093D03*
X0044443Y0155093D03*
X0044443Y0154793D03*
X0044443Y0154493D03*
X0044443Y0154193D03*
X0044443Y0153893D03*
X0044443Y0153593D03*
X0044443Y0153293D03*
X0044443Y0152993D03*
X0044443Y0152693D03*
X0044443Y0152393D03*
X0044443Y0152093D03*
X0044443Y0151793D03*
X0044443Y0151493D03*
X0044443Y0151193D03*
X0044443Y0150893D03*
X0044443Y0150593D03*
X0044443Y0150293D03*
X0044443Y0149993D03*
X0044443Y0149693D03*
X0044443Y0149393D03*
X0044443Y0149093D03*
X0044443Y0148793D03*
X0044443Y0148493D03*
X0044443Y0148193D03*
X0044443Y0147893D03*
X0044443Y0147593D03*
X0044443Y0147293D03*
X0044443Y0146993D03*
X0044443Y0146693D03*
X0044443Y0146393D03*
X0044443Y0146093D03*
X0044443Y0145793D03*
X0044443Y0145493D03*
X0044443Y0145193D03*
X0044443Y0144893D03*
X0044443Y0144593D03*
X0044443Y0144293D03*
X0044443Y0143993D03*
X0044443Y0143693D03*
X0044443Y0143393D03*
X0044443Y0143093D03*
X0044443Y0142793D03*
X0044443Y0142493D03*
X0044443Y0142193D03*
X0044443Y0141893D03*
X0044443Y0141593D03*
X0044443Y0141293D03*
X0044443Y0140993D03*
X0044443Y0140693D03*
X0044443Y0140393D03*
X0044443Y0140093D03*
X0044443Y0139793D03*
X0044443Y0139493D03*
X0044443Y0139193D03*
X0044443Y0138893D03*
X0044443Y0138593D03*
X0044443Y0138293D03*
X0044443Y0137993D03*
X0044443Y0137693D03*
X0044443Y0137393D03*
X0044443Y0137093D03*
X0044443Y0136793D03*
X0044443Y0136493D03*
X0044443Y0136193D03*
X0044443Y0135893D03*
X0044443Y0135593D03*
X0044443Y0135293D03*
X0044443Y0134993D03*
X0044443Y0134693D03*
X0044443Y0134393D03*
X0044443Y0134093D03*
X0044443Y0133793D03*
X0044443Y0133493D03*
X0044443Y0133193D03*
X0044443Y0132893D03*
X0044443Y0132593D03*
X0044443Y0132293D03*
X0044443Y0131993D03*
X0044443Y0131693D03*
X0044443Y0131393D03*
X0050743Y0131393D03*
X0050743Y0131693D03*
X0050743Y0131993D03*
X0050743Y0132293D03*
X0050743Y0132593D03*
X0050743Y0132893D03*
X0050743Y0133193D03*
X0050743Y0133493D03*
X0050743Y0133793D03*
X0050743Y0134093D03*
X0050743Y0134393D03*
X0050743Y0134693D03*
X0050743Y0134993D03*
X0050743Y0135293D03*
X0050743Y0135593D03*
X0050743Y0135893D03*
X0050743Y0136193D03*
X0050743Y0136493D03*
X0050743Y0136793D03*
X0050743Y0137093D03*
X0050743Y0137393D03*
X0050743Y0137693D03*
X0050743Y0137993D03*
X0050743Y0138293D03*
X0050743Y0138593D03*
X0050743Y0138893D03*
X0050743Y0139193D03*
X0050743Y0139493D03*
X0050743Y0139793D03*
X0050743Y0140093D03*
X0050743Y0140393D03*
X0050743Y0140693D03*
X0050743Y0140993D03*
X0050743Y0141293D03*
X0050743Y0141593D03*
X0050743Y0141893D03*
X0050743Y0142193D03*
X0050743Y0142493D03*
X0050743Y0142793D03*
X0050743Y0143093D03*
X0050743Y0143393D03*
X0050743Y0143693D03*
X0050743Y0143993D03*
X0050743Y0144293D03*
X0050743Y0144593D03*
X0050743Y0144893D03*
X0050743Y0145193D03*
X0050743Y0145493D03*
X0050743Y0145793D03*
X0050743Y0146093D03*
X0050743Y0146393D03*
X0050743Y0146693D03*
X0050743Y0146993D03*
X0050743Y0147293D03*
X0050743Y0147593D03*
X0050743Y0147893D03*
X0050743Y0148193D03*
X0050743Y0148493D03*
X0050743Y0148793D03*
X0050743Y0149093D03*
X0050743Y0149393D03*
X0050743Y0149693D03*
X0050743Y0149993D03*
X0050743Y0150293D03*
X0050743Y0150593D03*
X0050743Y0150893D03*
X0050743Y0151193D03*
X0050743Y0151493D03*
X0050743Y0151793D03*
X0050743Y0152093D03*
X0050743Y0152393D03*
X0050743Y0152693D03*
X0050743Y0152993D03*
X0050743Y0153293D03*
X0050743Y0153593D03*
X0050743Y0153893D03*
X0050743Y0154193D03*
X0050743Y0154493D03*
X0050743Y0154793D03*
X0050743Y0155093D03*
X0068743Y0150293D03*
X0068743Y0149993D03*
X0068743Y0149693D03*
X0068743Y0149393D03*
X0068743Y0149093D03*
X0068743Y0148793D03*
X0068743Y0148493D03*
X0068743Y0148193D03*
X0068743Y0147893D03*
X0068743Y0147593D03*
X0068743Y0147293D03*
X0068743Y0146993D03*
X0068743Y0146693D03*
X0068743Y0146393D03*
X0068743Y0146093D03*
X0068743Y0145793D03*
X0068743Y0145493D03*
X0068743Y0145193D03*
X0068743Y0144893D03*
X0068743Y0144593D03*
X0068743Y0144293D03*
X0068743Y0143993D03*
X0068743Y0143693D03*
X0068743Y0143393D03*
X0068743Y0143093D03*
X0068743Y0142793D03*
X0068743Y0142493D03*
X0068743Y0142193D03*
X0068743Y0141893D03*
X0068743Y0141593D03*
X0068743Y0141293D03*
X0068743Y0140993D03*
X0068743Y0140693D03*
X0068743Y0140393D03*
X0068743Y0140093D03*
X0068743Y0139793D03*
X0068743Y0139493D03*
X0068743Y0139193D03*
X0068743Y0138893D03*
X0068743Y0138593D03*
X0068743Y0138293D03*
X0068743Y0137993D03*
X0068743Y0137693D03*
X0068743Y0137393D03*
X0068743Y0137093D03*
X0068743Y0136793D03*
X0068743Y0136493D03*
X0068743Y0136193D03*
X0068743Y0135893D03*
X0068743Y0135593D03*
X0068743Y0135293D03*
X0068743Y0134993D03*
X0068743Y0134693D03*
X0068743Y0134393D03*
X0068743Y0134093D03*
X0068743Y0133793D03*
X0068743Y0133493D03*
X0068743Y0133193D03*
X0068743Y0132893D03*
X0068743Y0132593D03*
X0068743Y0132293D03*
X0068743Y0131993D03*
X0068743Y0131693D03*
X0068743Y0131393D03*
X0075043Y0131393D03*
X0075043Y0131693D03*
X0075043Y0131993D03*
X0075043Y0132293D03*
X0075043Y0132593D03*
X0075043Y0132893D03*
X0075043Y0133193D03*
X0075043Y0133493D03*
X0075043Y0133793D03*
X0075043Y0134093D03*
X0075043Y0134393D03*
X0075043Y0134693D03*
X0075043Y0134993D03*
X0075043Y0135293D03*
X0075043Y0135593D03*
X0075043Y0135893D03*
X0075043Y0136193D03*
X0075043Y0136493D03*
X0075043Y0136793D03*
X0075043Y0137093D03*
X0075043Y0137393D03*
X0075043Y0137693D03*
X0075043Y0137993D03*
X0075043Y0138293D03*
X0075043Y0138593D03*
X0075043Y0138893D03*
X0075043Y0139193D03*
X0075043Y0139493D03*
X0075043Y0139793D03*
X0075043Y0140093D03*
X0075043Y0140393D03*
X0075043Y0140693D03*
X0075043Y0140993D03*
X0075043Y0141293D03*
X0075043Y0141593D03*
X0075043Y0141893D03*
X0075043Y0142193D03*
X0075043Y0142493D03*
X0075043Y0142793D03*
X0075043Y0143093D03*
X0075043Y0143393D03*
X0075043Y0143693D03*
X0075043Y0143993D03*
X0075043Y0144293D03*
X0075043Y0144593D03*
X0075043Y0144893D03*
X0075043Y0145193D03*
X0075043Y0145493D03*
X0075043Y0145793D03*
X0075043Y0146093D03*
X0075043Y0146393D03*
X0075043Y0146693D03*
X0075043Y0146993D03*
X0075043Y0147293D03*
X0075043Y0147593D03*
X0076543Y0148793D03*
X0076543Y0149093D03*
X0076543Y0149993D03*
X0076543Y0151193D03*
X0076543Y0151493D03*
X0076543Y0151793D03*
X0076543Y0152093D03*
X0076543Y0152393D03*
X0076543Y0152693D03*
X0076543Y0152993D03*
X0076543Y0153293D03*
X0076543Y0153593D03*
X0076543Y0153893D03*
X0076543Y0154193D03*
X0076543Y0154493D03*
X0076543Y0154793D03*
X0076543Y0155093D03*
X0076543Y0155393D03*
X0076543Y0155693D03*
X0071743Y0155693D03*
X0071743Y0155393D03*
X0071743Y0155093D03*
X0071743Y0154793D03*
X0071743Y0154493D03*
X0071743Y0154193D03*
X0071743Y0153893D03*
X0071743Y0153593D03*
X0071743Y0153293D03*
X0069343Y0153293D03*
X0069343Y0152993D03*
X0069343Y0153593D03*
X0069343Y0153893D03*
X0069343Y0154193D03*
X0069343Y0154493D03*
X0069343Y0154793D03*
X0069343Y0155093D03*
X0069343Y0155393D03*
X0069343Y0155693D03*
X0083743Y0154193D03*
X0083743Y0153893D03*
X0083743Y0153593D03*
X0083743Y0153293D03*
X0083743Y0152993D03*
X0083743Y0152693D03*
X0083743Y0152393D03*
X0083743Y0152093D03*
X0083743Y0151793D03*
X0083743Y0151493D03*
X0083743Y0151193D03*
X0086443Y0151193D03*
X0086443Y0151493D03*
X0086443Y0151793D03*
X0086443Y0152093D03*
X0086443Y0152393D03*
X0086443Y0152693D03*
X0086443Y0152993D03*
X0086443Y0153293D03*
X0086443Y0153593D03*
X0086443Y0153893D03*
X0088543Y0153893D03*
X0088543Y0153593D03*
X0088543Y0154193D03*
X0088543Y0154493D03*
X0088543Y0154793D03*
X0088543Y0155093D03*
X0088543Y0155393D03*
X0088543Y0155693D03*
X0091243Y0152393D03*
X0088543Y0151193D03*
X0093343Y0153293D03*
X0096943Y0153293D03*
X0096943Y0152993D03*
X0096943Y0153593D03*
X0096943Y0153893D03*
X0099043Y0153893D03*
X0099043Y0153593D03*
X0099043Y0153293D03*
X0099043Y0152993D03*
X0099043Y0154193D03*
X0099043Y0154493D03*
X0099043Y0154793D03*
X0099043Y0155093D03*
X0099043Y0155393D03*
X0099043Y0155693D03*
X0101443Y0155693D03*
X0101443Y0155393D03*
X0101443Y0155093D03*
X0101443Y0154793D03*
X0101443Y0154493D03*
X0101443Y0154193D03*
X0101443Y0153893D03*
X0101443Y0153593D03*
X0101443Y0153293D03*
X0106243Y0153293D03*
X0106243Y0152993D03*
X0106243Y0152693D03*
X0106243Y0152393D03*
X0106243Y0152093D03*
X0106243Y0151793D03*
X0106243Y0151493D03*
X0106243Y0151193D03*
X0106243Y0149993D03*
X0106243Y0149093D03*
X0106243Y0148793D03*
X0106243Y0153593D03*
X0106243Y0153893D03*
X0106243Y0154193D03*
X0106243Y0154493D03*
X0106243Y0154793D03*
X0106243Y0155093D03*
X0106243Y0155393D03*
X0106243Y0155693D03*
X0108643Y0154493D03*
X0111343Y0154493D03*
X0111343Y0154193D03*
X0111343Y0153893D03*
X0111343Y0153593D03*
X0111343Y0153293D03*
X0111343Y0152993D03*
X0111343Y0152693D03*
X0111343Y0152393D03*
X0111343Y0150893D03*
X0111343Y0150593D03*
X0111343Y0150293D03*
X0111343Y0149993D03*
X0111343Y0149693D03*
X0111343Y0154793D03*
X0111343Y0155093D03*
X0111343Y0155393D03*
X0111343Y0155693D03*
X0117043Y0153893D03*
X0117043Y0152993D03*
X0119143Y0152093D03*
X0119143Y0151793D03*
X0119143Y0151493D03*
X0119143Y0151193D03*
X0119143Y0150893D03*
X0119143Y0150593D03*
X0119143Y0150293D03*
X0119143Y0149993D03*
X0119143Y0149693D03*
X0119143Y0149393D03*
X0119143Y0149093D03*
X0119143Y0148793D03*
X0119143Y0148493D03*
X0119143Y0148193D03*
X0119143Y0154193D03*
X0119143Y0154493D03*
X0119143Y0154793D03*
X0119143Y0155093D03*
X0119143Y0155393D03*
X0119143Y0155693D03*
X0128443Y0153593D03*
X0128443Y0153293D03*
X0129343Y0150293D03*
X0129343Y0149993D03*
X0129343Y0149693D03*
X0129343Y0149393D03*
X0129343Y0149093D03*
X0129343Y0148793D03*
X0129343Y0148493D03*
X0129343Y0148193D03*
X0129343Y0147893D03*
X0129343Y0147593D03*
X0129343Y0147293D03*
X0129343Y0146993D03*
X0129343Y0146693D03*
X0129343Y0146393D03*
X0129343Y0146093D03*
X0129343Y0145793D03*
X0129343Y0145493D03*
X0129343Y0145193D03*
X0129343Y0144893D03*
X0129343Y0144593D03*
X0129343Y0144293D03*
X0129343Y0143993D03*
X0129343Y0143693D03*
X0129343Y0143393D03*
X0129343Y0143093D03*
X0129343Y0142793D03*
X0129343Y0142493D03*
X0129343Y0142193D03*
X0129343Y0141893D03*
X0129343Y0141593D03*
X0129343Y0141293D03*
X0129343Y0140993D03*
X0129343Y0140693D03*
X0129343Y0140393D03*
X0129343Y0140093D03*
X0129343Y0139793D03*
X0129343Y0139493D03*
X0129343Y0139193D03*
X0129343Y0138893D03*
X0129343Y0138593D03*
X0129343Y0138293D03*
X0129343Y0137993D03*
X0129343Y0137693D03*
X0129343Y0137393D03*
X0129343Y0137093D03*
X0129343Y0136793D03*
X0129343Y0136493D03*
X0129343Y0136193D03*
X0129343Y0135893D03*
X0129343Y0135593D03*
X0129343Y0135293D03*
X0129343Y0134993D03*
X0129343Y0134693D03*
X0129343Y0134393D03*
X0129343Y0134093D03*
X0129343Y0133793D03*
X0129343Y0133493D03*
X0129343Y0133193D03*
X0129343Y0132893D03*
X0129343Y0132593D03*
X0129343Y0132293D03*
X0129343Y0131993D03*
X0129343Y0131693D03*
X0129343Y0131393D03*
X0132043Y0153293D03*
X0132043Y0153593D03*
X0159943Y0153593D03*
X0159943Y0153293D03*
X0159943Y0152993D03*
X0159943Y0152693D03*
X0159943Y0152393D03*
X0159943Y0152093D03*
X0159943Y0151793D03*
X0159943Y0151493D03*
X0159943Y0151193D03*
X0159943Y0150893D03*
X0159943Y0150593D03*
X0159943Y0150293D03*
X0159943Y0149993D03*
X0159943Y0149693D03*
X0159943Y0149393D03*
X0159943Y0149093D03*
X0159943Y0148793D03*
X0159943Y0148493D03*
X0159943Y0148193D03*
X0159943Y0147893D03*
X0159943Y0147593D03*
X0159943Y0147293D03*
X0159943Y0146993D03*
X0159943Y0146693D03*
X0159943Y0146393D03*
X0159943Y0146093D03*
X0159943Y0145793D03*
X0159943Y0145493D03*
X0159943Y0145193D03*
X0159943Y0144893D03*
X0159943Y0144593D03*
X0159943Y0144293D03*
X0159943Y0143993D03*
X0159943Y0143693D03*
X0159943Y0143393D03*
X0159943Y0143093D03*
X0159943Y0142793D03*
X0159943Y0142493D03*
X0159943Y0142193D03*
X0159943Y0141893D03*
X0159943Y0141593D03*
X0159943Y0141293D03*
X0159943Y0140993D03*
X0159943Y0140693D03*
X0159943Y0140393D03*
X0159943Y0140093D03*
X0159943Y0139793D03*
X0159943Y0139493D03*
X0159943Y0139193D03*
X0159943Y0138893D03*
X0159943Y0138593D03*
X0159943Y0138293D03*
X0159943Y0137993D03*
X0159943Y0137693D03*
X0159943Y0137393D03*
X0159943Y0137093D03*
X0159943Y0136793D03*
X0159943Y0136493D03*
X0159943Y0136193D03*
X0159943Y0135893D03*
X0159943Y0135593D03*
X0159943Y0135293D03*
X0159943Y0134993D03*
X0159943Y0134693D03*
X0159943Y0134393D03*
X0159943Y0134093D03*
X0159943Y0133793D03*
X0159943Y0133493D03*
X0159943Y0133193D03*
X0159943Y0132893D03*
X0159943Y0132593D03*
X0159943Y0132293D03*
X0159943Y0131993D03*
X0159943Y0131693D03*
X0159943Y0131393D03*
X0172543Y0131393D03*
X0172543Y0131693D03*
X0172543Y0131993D03*
X0172543Y0132293D03*
X0172543Y0132593D03*
X0172543Y0132893D03*
X0172543Y0133193D03*
X0172543Y0133493D03*
X0172543Y0133793D03*
X0172543Y0134093D03*
X0172543Y0134393D03*
X0172543Y0134693D03*
X0172543Y0134993D03*
X0172543Y0135293D03*
X0172543Y0135593D03*
X0172543Y0135893D03*
X0172543Y0136193D03*
X0172543Y0136493D03*
X0172543Y0136793D03*
X0172543Y0137093D03*
X0172543Y0137393D03*
X0172543Y0137693D03*
X0172543Y0137993D03*
X0172543Y0138293D03*
X0172543Y0138593D03*
X0172543Y0138893D03*
X0172543Y0139193D03*
X0172543Y0139493D03*
X0172543Y0139793D03*
X0172543Y0140093D03*
X0172543Y0140393D03*
X0172543Y0140693D03*
X0172543Y0140993D03*
X0172543Y0141293D03*
X0172543Y0141593D03*
X0172543Y0141893D03*
X0172543Y0142193D03*
X0172543Y0142493D03*
X0172543Y0142793D03*
X0172543Y0143093D03*
X0172543Y0143393D03*
X0172543Y0143693D03*
X0172543Y0143993D03*
X0172543Y0144293D03*
X0172543Y0144593D03*
X0172543Y0144893D03*
X0172543Y0145193D03*
X0172543Y0145493D03*
X0172543Y0145793D03*
X0172543Y0146093D03*
X0172543Y0146393D03*
X0172543Y0146693D03*
X0172543Y0146993D03*
X0172543Y0147293D03*
X0172543Y0147593D03*
X0172543Y0147893D03*
X0172543Y0148193D03*
X0172543Y0148493D03*
X0172543Y0148793D03*
X0172543Y0149093D03*
X0172543Y0149393D03*
X0172543Y0149693D03*
X0172543Y0149993D03*
X0172543Y0150293D03*
X0172543Y0150593D03*
X0172543Y0150893D03*
X0172543Y0151193D03*
X0172543Y0151493D03*
X0172543Y0151793D03*
X0172543Y0152093D03*
X0172543Y0152393D03*
X0172543Y0152693D03*
X0172543Y0152993D03*
X0172543Y0153293D03*
X0172543Y0153593D03*
X0172543Y0153893D03*
X0172543Y0154193D03*
X0172543Y0154493D03*
X0172543Y0154793D03*
X0172543Y0155093D03*
X0172543Y0155393D03*
X0159943Y0155393D03*
X0159943Y0155093D03*
X0159943Y0154793D03*
X0159943Y0154493D03*
X0159943Y0154193D03*
X0159943Y0153893D03*
X0109243Y0198593D03*
X0109243Y0198893D03*
X0109243Y0199193D03*
X0109243Y0199493D03*
X0109243Y0199793D03*
X0109243Y0200093D03*
X0109243Y0200393D03*
X0109243Y0200693D03*
X0109243Y0200993D03*
X0108943Y0201293D03*
X0106543Y0200993D03*
X0106543Y0200693D03*
X0106543Y0198893D03*
X0106543Y0198593D03*
X0108943Y0198293D03*
X0101143Y0198293D03*
X0101143Y0198593D03*
X0101143Y0200393D03*
X0101143Y0200693D03*
X0101143Y0200993D03*
X0101143Y0201293D03*
X0098743Y0201293D03*
X0098743Y0198593D03*
X0098743Y0198293D03*
X0095743Y0197993D03*
X0094243Y0200393D03*
X0093943Y0200693D03*
X0090943Y0200693D03*
X0090943Y0200993D03*
X0090943Y0201293D03*
X0090943Y0198893D03*
X0090943Y0198593D03*
X0090943Y0198293D03*
X0088543Y0198593D03*
X0088543Y0200693D03*
X0088543Y0200993D03*
X0088543Y0201293D03*
X0096343Y0150293D03*
X0096343Y0149993D03*
X0096343Y0149693D03*
X0096343Y0149393D03*
X0096343Y0149093D03*
X0096343Y0148793D03*
X0096343Y0148493D03*
X0096343Y0148193D03*
X0096343Y0147893D03*
X0096343Y0147593D03*
X0096343Y0147293D03*
X0096343Y0146993D03*
X0096343Y0146693D03*
X0096343Y0146393D03*
X0096343Y0146093D03*
X0096343Y0145793D03*
X0096343Y0145493D03*
X0096343Y0145193D03*
X0096343Y0144893D03*
X0096343Y0144593D03*
X0096343Y0144293D03*
X0096343Y0143993D03*
X0096343Y0143693D03*
X0096343Y0143393D03*
X0096343Y0143093D03*
X0096343Y0142793D03*
X0096343Y0142493D03*
X0096343Y0142193D03*
X0096343Y0141893D03*
X0096343Y0141593D03*
X0096343Y0141293D03*
X0096343Y0140993D03*
X0096343Y0140693D03*
X0096343Y0140393D03*
X0096343Y0140093D03*
X0096343Y0139793D03*
X0096343Y0139493D03*
X0096343Y0139193D03*
X0096343Y0138893D03*
X0096343Y0138593D03*
X0096343Y0138293D03*
X0096343Y0137993D03*
X0096343Y0137693D03*
X0096343Y0137393D03*
X0096343Y0137093D03*
X0096343Y0136793D03*
X0096343Y0136493D03*
X0096343Y0136193D03*
X0096343Y0135893D03*
X0096343Y0135593D03*
X0096343Y0135293D03*
X0096343Y0134993D03*
X0096343Y0134693D03*
X0096343Y0134393D03*
X0096343Y0134093D03*
X0096343Y0133793D03*
X0096343Y0133493D03*
X0096343Y0133193D03*
X0096343Y0132893D03*
X0096343Y0132593D03*
X0096343Y0132293D03*
X0096343Y0131993D03*
X0096343Y0131693D03*
X0096343Y0131393D03*
X0118243Y0085493D03*
X0120643Y0083393D03*
X0120943Y0083093D03*
X0121843Y0082193D03*
X0122743Y0081293D03*
X0123343Y0080693D03*
X0124243Y0079793D03*
X0125143Y0078893D03*
X0114343Y0081593D03*
X0134443Y0053393D03*
X0135943Y0051893D03*
X0138043Y0049793D03*
X0140143Y0047693D03*
X0142243Y0045593D03*
X0144043Y0043793D03*
X0148543Y0039293D03*
X0149443Y0038393D03*
X0156043Y0042293D03*
X0159643Y0042293D03*
X0169543Y0042293D03*
X0168043Y0054293D03*
X0164443Y0054293D03*
X0162043Y0054293D03*
X0162943Y0070493D03*
X0164443Y0070493D03*
X0168043Y0070493D03*
X0160843Y0070493D03*
X0156043Y0070493D03*
X0153343Y0070493D03*
X0150643Y0070493D03*
X0157543Y0086393D03*
X0162343Y0086393D03*
X0165643Y0086393D03*
X0169243Y0086393D03*
X0179143Y0080993D03*
X0183043Y0085193D03*
X0183943Y0084593D03*
X0186343Y0082193D03*
X0188443Y0080093D03*
X0143443Y0026093D03*
X0130543Y0049193D03*
X0124243Y0049193D03*
X0123043Y0047993D03*
D31*
X0131743Y0046793D03*
X0101143Y0034193D03*
X0058843Y0062993D03*
X0089743Y0151493D03*
X0095143Y0155093D03*
X0122443Y0151493D03*
X0130243Y0151793D03*
X0130243Y0155093D03*
X0089743Y0201593D03*
X0180343Y0078893D03*
X0180343Y0026093D03*
D32*
X0185893Y0026093D03*
X0167293Y0042293D03*
X0158293Y0042293D03*
X0154693Y0042293D03*
X0149293Y0038693D03*
X0148993Y0038993D03*
X0148393Y0039593D03*
X0148093Y0039893D03*
X0147793Y0040193D03*
X0147493Y0040493D03*
X0147193Y0040793D03*
X0146893Y0041093D03*
X0146593Y0041393D03*
X0146293Y0041693D03*
X0145993Y0041993D03*
X0145093Y0042893D03*
X0144793Y0043193D03*
X0144493Y0043493D03*
X0143893Y0044093D03*
X0143593Y0044393D03*
X0143293Y0044693D03*
X0142993Y0044993D03*
X0142693Y0045293D03*
X0142093Y0045893D03*
X0141793Y0046193D03*
X0141493Y0046493D03*
X0141193Y0046793D03*
X0140893Y0047093D03*
X0140593Y0047393D03*
X0139993Y0047993D03*
X0139693Y0048293D03*
X0139393Y0048593D03*
X0139093Y0048893D03*
X0138793Y0049193D03*
X0138493Y0049493D03*
X0137893Y0050093D03*
X0137593Y0050393D03*
X0137293Y0050693D03*
X0136993Y0050993D03*
X0136693Y0051293D03*
X0136393Y0051593D03*
X0135793Y0052193D03*
X0135493Y0052493D03*
X0134293Y0052193D03*
X0134293Y0051293D03*
X0134293Y0050693D03*
X0134293Y0049493D03*
X0134293Y0048593D03*
X0134293Y0047993D03*
X0134293Y0047093D03*
X0130393Y0049493D03*
X0134293Y0053693D03*
X0125293Y0050393D03*
X0125293Y0050093D03*
X0124693Y0049793D03*
X0124693Y0049493D03*
X0124093Y0048893D03*
X0123493Y0048593D03*
X0123493Y0048293D03*
X0122593Y0047693D03*
X0122593Y0047393D03*
X0110593Y0042293D03*
X0109393Y0036593D03*
X0109993Y0035993D03*
X0109993Y0035693D03*
X0110293Y0035393D03*
X0110593Y0034793D03*
X0110893Y0034193D03*
X0110893Y0033893D03*
X0111193Y0032393D03*
X0111193Y0031193D03*
X0110893Y0030593D03*
X0110593Y0029993D03*
X0110593Y0029693D03*
X0109993Y0028793D03*
X0109693Y0028493D03*
X0109393Y0028193D03*
X0109093Y0027893D03*
X0100393Y0035093D03*
X0100393Y0035393D03*
X0100693Y0035693D03*
X0100993Y0035993D03*
X0101293Y0036293D03*
X0101593Y0036593D03*
X0095893Y0042293D03*
X0092293Y0042293D03*
X0093793Y0050393D03*
X0093793Y0051593D03*
X0093793Y0052493D03*
X0102193Y0054293D03*
X0108193Y0054293D03*
X0109393Y0064793D03*
X0109393Y0065693D03*
X0109393Y0066293D03*
X0109393Y0066593D03*
X0109393Y0067193D03*
X0109393Y0068393D03*
X0109393Y0069893D03*
X0105493Y0070493D03*
X0098293Y0070493D03*
X0094693Y0070493D03*
X0091093Y0070493D03*
X0085093Y0070493D03*
X0080293Y0068393D03*
X0079993Y0068093D03*
X0079693Y0067793D03*
X0079393Y0067493D03*
X0079093Y0067193D03*
X0078793Y0066593D03*
X0078493Y0066293D03*
X0085093Y0057893D03*
X0085093Y0057293D03*
X0085093Y0056693D03*
X0085093Y0054593D03*
X0085093Y0053693D03*
X0085093Y0051893D03*
X0085093Y0050993D03*
X0085093Y0050693D03*
X0085093Y0050093D03*
X0085093Y0049493D03*
X0085093Y0047393D03*
X0085093Y0046493D03*
X0085093Y0044693D03*
X0085093Y0043793D03*
X0085093Y0043493D03*
X0085093Y0042893D03*
X0085093Y0042293D03*
X0085093Y0040193D03*
X0085093Y0039293D03*
X0085093Y0037493D03*
X0085093Y0036893D03*
X0085093Y0036293D03*
X0085093Y0035093D03*
X0085093Y0034493D03*
X0085093Y0033893D03*
X0085093Y0032693D03*
X0085093Y0032093D03*
X0085093Y0031493D03*
X0067993Y0030893D03*
X0067693Y0031193D03*
X0067393Y0031493D03*
X0066793Y0032093D03*
X0066493Y0032393D03*
X0066193Y0032693D03*
X0065893Y0032993D03*
X0065593Y0033293D03*
X0065293Y0033593D03*
X0064693Y0034193D03*
X0064393Y0034493D03*
X0063793Y0035093D03*
X0063493Y0035393D03*
X0063193Y0035693D03*
X0062893Y0035993D03*
X0062593Y0036293D03*
X0061993Y0036893D03*
X0061693Y0037193D03*
X0061393Y0037493D03*
X0065893Y0047393D03*
X0066193Y0047693D03*
X0066493Y0047993D03*
X0066793Y0048293D03*
X0067093Y0048593D03*
X0067393Y0048893D03*
X0067693Y0049193D03*
X0067993Y0049493D03*
X0068293Y0049793D03*
X0068593Y0050093D03*
X0068893Y0050693D03*
X0068893Y0051893D03*
X0068893Y0052493D03*
X0068893Y0053993D03*
X0068893Y0055493D03*
X0068893Y0055793D03*
X0068893Y0056693D03*
X0068893Y0056993D03*
X0068893Y0057893D03*
X0068893Y0059093D03*
X0068893Y0059993D03*
X0068893Y0060893D03*
X0068593Y0062693D03*
X0067993Y0063293D03*
X0067693Y0063593D03*
X0067393Y0063893D03*
X0066793Y0064493D03*
X0066493Y0064793D03*
X0066193Y0065093D03*
X0065893Y0065393D03*
X0065593Y0065693D03*
X0065293Y0065993D03*
X0064993Y0066293D03*
X0064393Y0066893D03*
X0064093Y0067193D03*
X0063793Y0067493D03*
X0063493Y0067793D03*
X0063193Y0068093D03*
X0062893Y0068393D03*
X0062593Y0068693D03*
X0061393Y0068693D03*
X0061393Y0069893D03*
X0061393Y0067193D03*
X0061393Y0066593D03*
X0061393Y0065693D03*
X0061393Y0065093D03*
X0061393Y0064493D03*
X0061393Y0063593D03*
X0057493Y0065693D03*
X0052693Y0065993D03*
X0052693Y0066593D03*
X0052693Y0067193D03*
X0052693Y0067793D03*
X0052693Y0068393D03*
X0052693Y0068993D03*
X0051493Y0070493D03*
X0047893Y0070493D03*
X0044293Y0070493D03*
X0043093Y0070493D03*
X0039493Y0070493D03*
X0037393Y0069893D03*
X0037093Y0069593D03*
X0037093Y0067793D03*
X0037093Y0066593D03*
X0028393Y0066893D03*
X0028393Y0067193D03*
X0028393Y0067793D03*
X0028393Y0069293D03*
X0028393Y0070193D03*
X0028393Y0071693D03*
X0028393Y0071993D03*
X0028393Y0072593D03*
X0028393Y0073793D03*
X0028393Y0065393D03*
X0028393Y0064493D03*
X0028393Y0062993D03*
X0028393Y0062393D03*
X0028393Y0062093D03*
X0028393Y0060593D03*
X0028393Y0059693D03*
X0028393Y0058193D03*
X0028393Y0057593D03*
X0028393Y0057293D03*
X0028393Y0056093D03*
X0028393Y0053993D03*
X0028393Y0053393D03*
X0028393Y0051893D03*
X0028393Y0050093D03*
X0028393Y0048293D03*
X0033493Y0042293D03*
X0037093Y0050393D03*
X0037093Y0050993D03*
X0037093Y0052793D03*
X0037093Y0053393D03*
X0037393Y0054293D03*
X0040993Y0054293D03*
X0044293Y0042293D03*
X0047893Y0042293D03*
X0052693Y0065093D03*
X0066793Y0080693D03*
X0066193Y0081293D03*
X0065893Y0081593D03*
X0065293Y0082193D03*
X0064393Y0083093D03*
X0064093Y0083393D03*
X0063193Y0084293D03*
X0062593Y0084893D03*
X0062293Y0085193D03*
X0058693Y0086693D03*
X0057493Y0086693D03*
X0056293Y0086693D03*
X0055093Y0086693D03*
X0053893Y0086693D03*
X0052693Y0086693D03*
X0051493Y0086693D03*
X0049393Y0086693D03*
X0037093Y0086693D03*
X0035893Y0086693D03*
X0034693Y0086693D03*
X0033493Y0086693D03*
X0032293Y0086693D03*
X0031093Y0086693D03*
X0029893Y0086693D03*
X0028693Y0086693D03*
X0023293Y0084293D03*
X0022993Y0083993D03*
X0022693Y0083693D03*
X0022393Y0083093D03*
X0020293Y0042293D03*
X0020893Y0037193D03*
X0020893Y0035993D03*
X0029593Y0131393D03*
X0029593Y0131693D03*
X0029593Y0131993D03*
X0029593Y0132293D03*
X0029593Y0132593D03*
X0029593Y0132893D03*
X0029593Y0133193D03*
X0029593Y0133493D03*
X0029593Y0133793D03*
X0029593Y0134093D03*
X0029593Y0134393D03*
X0029593Y0134693D03*
X0029593Y0134993D03*
X0029593Y0135293D03*
X0029593Y0135593D03*
X0029593Y0135893D03*
X0029593Y0136193D03*
X0029593Y0136493D03*
X0029593Y0136793D03*
X0029593Y0137093D03*
X0029593Y0137393D03*
X0029593Y0137693D03*
X0029593Y0137993D03*
X0029593Y0138293D03*
X0029593Y0138593D03*
X0029593Y0138893D03*
X0029593Y0139193D03*
X0029593Y0139493D03*
X0029593Y0139793D03*
X0029593Y0140093D03*
X0029593Y0140393D03*
X0029593Y0140693D03*
X0029593Y0140993D03*
X0029593Y0141293D03*
X0029593Y0141593D03*
X0029593Y0141893D03*
X0029593Y0142193D03*
X0029593Y0142493D03*
X0029593Y0142793D03*
X0029593Y0143093D03*
X0029593Y0143393D03*
X0029593Y0143693D03*
X0029593Y0143993D03*
X0029593Y0144293D03*
X0029593Y0144593D03*
X0029593Y0144893D03*
X0029593Y0145193D03*
X0029593Y0145493D03*
X0029593Y0145793D03*
X0029593Y0146093D03*
X0029593Y0146393D03*
X0029593Y0146693D03*
X0029593Y0146993D03*
X0029593Y0147293D03*
X0029593Y0147593D03*
X0029593Y0147893D03*
X0029593Y0148193D03*
X0029593Y0148493D03*
X0029593Y0148793D03*
X0029593Y0149093D03*
X0029593Y0149393D03*
X0029593Y0149693D03*
X0029593Y0149993D03*
X0029593Y0150293D03*
X0029593Y0150593D03*
X0029593Y0150893D03*
X0029593Y0151193D03*
X0029593Y0151493D03*
X0029593Y0151793D03*
X0029593Y0152093D03*
X0029593Y0152393D03*
X0029593Y0152693D03*
X0029593Y0152993D03*
X0029593Y0153293D03*
X0029593Y0153593D03*
X0029593Y0153893D03*
X0029593Y0154193D03*
X0029593Y0154493D03*
X0029593Y0154793D03*
X0029593Y0155093D03*
X0042793Y0155093D03*
X0042793Y0154793D03*
X0042793Y0154493D03*
X0042793Y0154193D03*
X0042793Y0153893D03*
X0042793Y0153593D03*
X0042793Y0153293D03*
X0042793Y0152993D03*
X0042793Y0152693D03*
X0042793Y0152393D03*
X0042793Y0152093D03*
X0042793Y0151793D03*
X0042793Y0151493D03*
X0042793Y0151193D03*
X0042793Y0150893D03*
X0042793Y0150593D03*
X0042793Y0150293D03*
X0042793Y0149993D03*
X0042793Y0149693D03*
X0042793Y0149393D03*
X0042793Y0149093D03*
X0042793Y0148793D03*
X0042793Y0148493D03*
X0042793Y0148193D03*
X0042793Y0147893D03*
X0042793Y0147593D03*
X0042793Y0147293D03*
X0042793Y0146993D03*
X0042793Y0146693D03*
X0042793Y0146393D03*
X0042793Y0146093D03*
X0042793Y0145793D03*
X0042793Y0145493D03*
X0042793Y0145193D03*
X0042793Y0144893D03*
X0042793Y0144593D03*
X0042793Y0144293D03*
X0042793Y0143993D03*
X0042793Y0143693D03*
X0042793Y0143393D03*
X0042793Y0143093D03*
X0042793Y0142793D03*
X0042793Y0142493D03*
X0042793Y0142193D03*
X0042793Y0141893D03*
X0042793Y0141593D03*
X0042793Y0141293D03*
X0042793Y0140993D03*
X0042793Y0140693D03*
X0042793Y0140393D03*
X0042793Y0140093D03*
X0042793Y0139793D03*
X0042793Y0139493D03*
X0042793Y0139193D03*
X0042793Y0138893D03*
X0042793Y0138593D03*
X0042793Y0138293D03*
X0042793Y0137993D03*
X0042793Y0137693D03*
X0042793Y0137393D03*
X0042793Y0137093D03*
X0042793Y0136793D03*
X0042793Y0136493D03*
X0042793Y0136193D03*
X0042793Y0135893D03*
X0042793Y0135593D03*
X0042793Y0135293D03*
X0042793Y0134993D03*
X0042793Y0134693D03*
X0042793Y0134393D03*
X0042793Y0134093D03*
X0042793Y0133793D03*
X0042793Y0133493D03*
X0042793Y0133193D03*
X0042793Y0132893D03*
X0042793Y0132593D03*
X0042793Y0132293D03*
X0042793Y0131993D03*
X0042793Y0131693D03*
X0042793Y0131393D03*
X0061693Y0131393D03*
X0061693Y0131693D03*
X0061693Y0131993D03*
X0061693Y0132293D03*
X0061693Y0132593D03*
X0061693Y0132893D03*
X0061693Y0133193D03*
X0061693Y0133493D03*
X0061693Y0133793D03*
X0061693Y0134093D03*
X0061693Y0134393D03*
X0061693Y0134693D03*
X0061693Y0134993D03*
X0061693Y0135293D03*
X0061693Y0135593D03*
X0061693Y0135893D03*
X0061693Y0136193D03*
X0061693Y0136493D03*
X0061693Y0136793D03*
X0061693Y0137093D03*
X0061693Y0137393D03*
X0061693Y0137693D03*
X0061693Y0137993D03*
X0061693Y0138293D03*
X0061693Y0138593D03*
X0061693Y0138893D03*
X0061693Y0139193D03*
X0061693Y0139493D03*
X0061693Y0139793D03*
X0061693Y0140093D03*
X0061693Y0140393D03*
X0061693Y0140693D03*
X0061693Y0140993D03*
X0061693Y0141293D03*
X0061693Y0141593D03*
X0061693Y0141893D03*
X0061693Y0142193D03*
X0061693Y0142493D03*
X0061693Y0142793D03*
X0061693Y0143093D03*
X0061693Y0143393D03*
X0061693Y0143693D03*
X0061693Y0143993D03*
X0061693Y0144293D03*
X0061693Y0144593D03*
X0061693Y0144893D03*
X0061693Y0145193D03*
X0061693Y0145493D03*
X0061693Y0145793D03*
X0061693Y0146093D03*
X0061693Y0146393D03*
X0061693Y0146693D03*
X0061693Y0146993D03*
X0061693Y0147293D03*
X0061693Y0147593D03*
X0061693Y0147893D03*
X0061693Y0148193D03*
X0061693Y0148493D03*
X0061693Y0148793D03*
X0061693Y0149093D03*
X0061693Y0149393D03*
X0061693Y0149693D03*
X0061693Y0149993D03*
X0061693Y0150293D03*
X0061693Y0150593D03*
X0061693Y0150893D03*
X0061693Y0151193D03*
X0061693Y0151493D03*
X0061693Y0151793D03*
X0061693Y0152093D03*
X0061693Y0152393D03*
X0061693Y0152693D03*
X0061693Y0152993D03*
X0061693Y0153293D03*
X0061693Y0153593D03*
X0061693Y0153893D03*
X0061693Y0154193D03*
X0061693Y0154493D03*
X0061693Y0154793D03*
X0061693Y0155093D03*
X0061693Y0155393D03*
X0076693Y0147593D03*
X0076693Y0147293D03*
X0076693Y0146993D03*
X0076693Y0146693D03*
X0076693Y0146393D03*
X0076693Y0146093D03*
X0076693Y0145793D03*
X0076693Y0145493D03*
X0076693Y0145193D03*
X0076693Y0144893D03*
X0076693Y0144593D03*
X0076693Y0144293D03*
X0076693Y0143993D03*
X0076693Y0143693D03*
X0076693Y0143393D03*
X0076693Y0143093D03*
X0076693Y0142793D03*
X0076693Y0142493D03*
X0076693Y0142193D03*
X0076693Y0141893D03*
X0076693Y0141593D03*
X0076693Y0141293D03*
X0076693Y0140993D03*
X0076693Y0140693D03*
X0076693Y0140393D03*
X0076693Y0140093D03*
X0076693Y0139793D03*
X0076693Y0139493D03*
X0076693Y0139193D03*
X0076693Y0138893D03*
X0076693Y0138593D03*
X0076693Y0138293D03*
X0076693Y0137993D03*
X0076693Y0137693D03*
X0076693Y0137393D03*
X0076693Y0137093D03*
X0076693Y0136793D03*
X0076693Y0136493D03*
X0076693Y0136193D03*
X0076693Y0135893D03*
X0076693Y0135593D03*
X0076693Y0135293D03*
X0076693Y0134993D03*
X0076693Y0134693D03*
X0076693Y0134393D03*
X0076693Y0134093D03*
X0076693Y0133793D03*
X0076693Y0133493D03*
X0076693Y0133193D03*
X0076693Y0132893D03*
X0076693Y0132593D03*
X0076693Y0132293D03*
X0076693Y0131993D03*
X0076693Y0131693D03*
X0076693Y0131393D03*
X0079093Y0131393D03*
X0079093Y0131693D03*
X0079093Y0131993D03*
X0079093Y0132293D03*
X0079093Y0132593D03*
X0079093Y0132893D03*
X0079093Y0133193D03*
X0079093Y0133493D03*
X0079093Y0133793D03*
X0079093Y0134093D03*
X0079093Y0134393D03*
X0079093Y0134693D03*
X0079093Y0134993D03*
X0079093Y0135293D03*
X0079093Y0135593D03*
X0079093Y0135893D03*
X0079093Y0136193D03*
X0079093Y0136493D03*
X0079093Y0136793D03*
X0079093Y0137093D03*
X0079093Y0137393D03*
X0079093Y0137693D03*
X0079093Y0137993D03*
X0079093Y0138293D03*
X0079093Y0138593D03*
X0079093Y0138893D03*
X0079093Y0139193D03*
X0079093Y0139493D03*
X0079093Y0139793D03*
X0079093Y0140093D03*
X0079093Y0140393D03*
X0079093Y0140693D03*
X0079093Y0140993D03*
X0079093Y0141293D03*
X0079093Y0141593D03*
X0079093Y0141893D03*
X0079093Y0142193D03*
X0079093Y0142493D03*
X0079093Y0142793D03*
X0079093Y0143093D03*
X0079093Y0143393D03*
X0079093Y0143693D03*
X0079093Y0143993D03*
X0079093Y0144293D03*
X0079093Y0144593D03*
X0079093Y0144893D03*
X0079093Y0145193D03*
X0079093Y0145493D03*
X0079093Y0145793D03*
X0079093Y0146093D03*
X0079093Y0146393D03*
X0079093Y0146693D03*
X0079093Y0146993D03*
X0079093Y0147293D03*
X0079093Y0147593D03*
X0079093Y0147893D03*
X0079093Y0148193D03*
X0079093Y0148493D03*
X0079093Y0148793D03*
X0079093Y0149093D03*
X0079093Y0149393D03*
X0079093Y0149693D03*
X0079093Y0149993D03*
X0079093Y0150293D03*
X0085993Y0150293D03*
X0085993Y0149993D03*
X0085993Y0149693D03*
X0085993Y0149393D03*
X0085993Y0149093D03*
X0085993Y0148793D03*
X0085993Y0148493D03*
X0085993Y0148193D03*
X0085993Y0147893D03*
X0085993Y0147593D03*
X0085993Y0147293D03*
X0085993Y0146993D03*
X0085993Y0146693D03*
X0085993Y0146393D03*
X0085993Y0146093D03*
X0085993Y0145793D03*
X0085993Y0145493D03*
X0085993Y0145193D03*
X0085993Y0144893D03*
X0085993Y0144593D03*
X0085993Y0144293D03*
X0085993Y0143993D03*
X0085993Y0143693D03*
X0085993Y0143393D03*
X0085993Y0143093D03*
X0085993Y0142793D03*
X0085993Y0142493D03*
X0085993Y0142193D03*
X0085993Y0141893D03*
X0085993Y0141593D03*
X0085993Y0141293D03*
X0085993Y0140993D03*
X0085993Y0140693D03*
X0085993Y0140393D03*
X0085993Y0140093D03*
X0085993Y0139793D03*
X0085993Y0139493D03*
X0085993Y0139193D03*
X0085993Y0138893D03*
X0085993Y0138593D03*
X0085993Y0138293D03*
X0085993Y0137993D03*
X0085993Y0137693D03*
X0085993Y0137393D03*
X0085993Y0137093D03*
X0085993Y0136793D03*
X0085993Y0136493D03*
X0085993Y0136193D03*
X0085993Y0135893D03*
X0085993Y0135593D03*
X0085993Y0135293D03*
X0085993Y0134993D03*
X0085993Y0134693D03*
X0085993Y0134393D03*
X0085993Y0134093D03*
X0085993Y0133793D03*
X0085993Y0133493D03*
X0085993Y0133193D03*
X0085993Y0132893D03*
X0085993Y0132593D03*
X0085993Y0132293D03*
X0085993Y0131993D03*
X0085993Y0131693D03*
X0085993Y0131393D03*
X0094693Y0131393D03*
X0094693Y0131693D03*
X0094693Y0131993D03*
X0094693Y0132293D03*
X0094693Y0132593D03*
X0094693Y0132893D03*
X0094693Y0133193D03*
X0094693Y0133493D03*
X0094693Y0133793D03*
X0094693Y0134093D03*
X0094693Y0134393D03*
X0094693Y0134693D03*
X0094693Y0134993D03*
X0094693Y0135293D03*
X0094693Y0135593D03*
X0094693Y0135893D03*
X0094693Y0136193D03*
X0094693Y0136493D03*
X0094693Y0136793D03*
X0094693Y0137093D03*
X0094693Y0137393D03*
X0094693Y0137693D03*
X0094693Y0137993D03*
X0094693Y0138293D03*
X0094693Y0138593D03*
X0094693Y0138893D03*
X0094693Y0139193D03*
X0094693Y0139493D03*
X0094693Y0139793D03*
X0094693Y0140093D03*
X0094693Y0140393D03*
X0094693Y0140693D03*
X0094693Y0140993D03*
X0094693Y0141293D03*
X0094693Y0141593D03*
X0094693Y0141893D03*
X0094693Y0142193D03*
X0094693Y0142493D03*
X0094693Y0142793D03*
X0094693Y0143093D03*
X0094693Y0143393D03*
X0094693Y0143693D03*
X0094693Y0143993D03*
X0094693Y0144293D03*
X0094693Y0144593D03*
X0094693Y0144893D03*
X0094693Y0145193D03*
X0094693Y0145493D03*
X0094693Y0145793D03*
X0094693Y0146093D03*
X0094693Y0146393D03*
X0094693Y0146693D03*
X0094693Y0146993D03*
X0094693Y0147293D03*
X0094693Y0147593D03*
X0094693Y0147893D03*
X0094693Y0148193D03*
X0094693Y0148493D03*
X0094693Y0148793D03*
X0094693Y0149093D03*
X0094693Y0149393D03*
X0094693Y0149693D03*
X0094693Y0149993D03*
X0094693Y0150293D03*
X0102493Y0150293D03*
X0102493Y0149993D03*
X0102493Y0149693D03*
X0102493Y0149393D03*
X0102493Y0149093D03*
X0102493Y0148793D03*
X0102493Y0148493D03*
X0102493Y0148193D03*
X0102493Y0147893D03*
X0102493Y0147593D03*
X0102493Y0147293D03*
X0102493Y0146993D03*
X0102493Y0146693D03*
X0102493Y0146393D03*
X0102493Y0146093D03*
X0102493Y0145793D03*
X0102493Y0145493D03*
X0102493Y0145193D03*
X0102493Y0144893D03*
X0102493Y0144593D03*
X0102493Y0144293D03*
X0102493Y0143993D03*
X0102493Y0143693D03*
X0102493Y0143393D03*
X0102493Y0143093D03*
X0102493Y0142793D03*
X0102493Y0142493D03*
X0102493Y0142193D03*
X0102493Y0141893D03*
X0102493Y0141593D03*
X0102493Y0141293D03*
X0102493Y0140993D03*
X0102493Y0140693D03*
X0102493Y0140393D03*
X0102493Y0140093D03*
X0102493Y0139793D03*
X0102493Y0139493D03*
X0102493Y0139193D03*
X0102493Y0138893D03*
X0102493Y0138593D03*
X0102493Y0138293D03*
X0102493Y0137993D03*
X0102493Y0137693D03*
X0102493Y0137393D03*
X0102493Y0137093D03*
X0102493Y0136793D03*
X0102493Y0136493D03*
X0102493Y0136193D03*
X0102493Y0135893D03*
X0102493Y0135593D03*
X0102493Y0135293D03*
X0102493Y0134993D03*
X0102493Y0134693D03*
X0102493Y0134393D03*
X0102493Y0134093D03*
X0102493Y0133793D03*
X0102493Y0133493D03*
X0102493Y0133193D03*
X0102493Y0132893D03*
X0102493Y0132593D03*
X0102493Y0132293D03*
X0102493Y0131993D03*
X0102493Y0131693D03*
X0102493Y0131393D03*
X0104893Y0131393D03*
X0104893Y0131693D03*
X0104893Y0131993D03*
X0104893Y0132293D03*
X0104893Y0132593D03*
X0104893Y0132893D03*
X0104893Y0133193D03*
X0104893Y0133493D03*
X0104893Y0133793D03*
X0104893Y0134093D03*
X0104893Y0134393D03*
X0104893Y0134693D03*
X0104893Y0134993D03*
X0104893Y0135293D03*
X0104893Y0135593D03*
X0104893Y0135893D03*
X0104893Y0136193D03*
X0104893Y0136493D03*
X0104893Y0136793D03*
X0104893Y0137093D03*
X0104893Y0137393D03*
X0104893Y0137693D03*
X0104893Y0137993D03*
X0104893Y0138293D03*
X0104893Y0138593D03*
X0104893Y0138893D03*
X0104893Y0139193D03*
X0104893Y0139493D03*
X0104893Y0139793D03*
X0104893Y0140093D03*
X0104893Y0140393D03*
X0104893Y0140693D03*
X0104893Y0140993D03*
X0104893Y0141293D03*
X0104893Y0141593D03*
X0104893Y0141893D03*
X0104893Y0142193D03*
X0104893Y0142493D03*
X0104893Y0142793D03*
X0104893Y0143093D03*
X0104893Y0143393D03*
X0104893Y0143693D03*
X0104893Y0143993D03*
X0104893Y0144293D03*
X0104893Y0144593D03*
X0104893Y0144893D03*
X0104893Y0145193D03*
X0104893Y0145493D03*
X0104893Y0145793D03*
X0104893Y0146093D03*
X0104893Y0146393D03*
X0104893Y0146693D03*
X0104893Y0146993D03*
X0104893Y0147293D03*
X0104893Y0147593D03*
X0108793Y0155693D03*
X0113593Y0150293D03*
X0113593Y0149993D03*
X0113593Y0149693D03*
X0113593Y0149393D03*
X0113593Y0149093D03*
X0113593Y0148793D03*
X0113593Y0148493D03*
X0113593Y0148193D03*
X0113593Y0147893D03*
X0113593Y0147593D03*
X0113593Y0147293D03*
X0113593Y0146993D03*
X0113593Y0146693D03*
X0113593Y0146393D03*
X0113593Y0146093D03*
X0113593Y0145793D03*
X0113593Y0145493D03*
X0113593Y0145193D03*
X0113593Y0144893D03*
X0113593Y0144593D03*
X0113593Y0144293D03*
X0113593Y0143993D03*
X0113593Y0143693D03*
X0113593Y0143393D03*
X0113593Y0143093D03*
X0113593Y0142793D03*
X0113593Y0142493D03*
X0113593Y0142193D03*
X0113593Y0141893D03*
X0113593Y0141593D03*
X0113593Y0141293D03*
X0113593Y0140993D03*
X0113593Y0140693D03*
X0113593Y0140393D03*
X0113593Y0140093D03*
X0113593Y0139793D03*
X0113593Y0139493D03*
X0113593Y0139193D03*
X0113593Y0138893D03*
X0113593Y0138593D03*
X0113593Y0138293D03*
X0113593Y0137993D03*
X0113593Y0137693D03*
X0113593Y0137393D03*
X0113593Y0137093D03*
X0113593Y0136793D03*
X0113593Y0136493D03*
X0113593Y0136193D03*
X0113593Y0135893D03*
X0113593Y0135593D03*
X0113593Y0135293D03*
X0113593Y0134993D03*
X0113593Y0134693D03*
X0113593Y0134393D03*
X0113593Y0134093D03*
X0113593Y0133793D03*
X0113593Y0133493D03*
X0113593Y0133193D03*
X0113593Y0132893D03*
X0113593Y0132593D03*
X0113593Y0132293D03*
X0113593Y0131993D03*
X0113593Y0131693D03*
X0113593Y0131393D03*
X0119893Y0131393D03*
X0119893Y0131693D03*
X0119893Y0131993D03*
X0119893Y0132293D03*
X0119893Y0132593D03*
X0119893Y0132893D03*
X0119893Y0133193D03*
X0119893Y0133493D03*
X0119893Y0133793D03*
X0119893Y0134093D03*
X0119893Y0134393D03*
X0119893Y0134693D03*
X0119893Y0134993D03*
X0119893Y0135293D03*
X0119893Y0135593D03*
X0119893Y0135893D03*
X0119893Y0136193D03*
X0119893Y0136493D03*
X0119893Y0136793D03*
X0119893Y0137093D03*
X0119893Y0137393D03*
X0119893Y0137693D03*
X0119893Y0137993D03*
X0119893Y0138293D03*
X0119893Y0138593D03*
X0119893Y0138893D03*
X0119893Y0139193D03*
X0119893Y0139493D03*
X0119893Y0139793D03*
X0119893Y0140093D03*
X0119893Y0140393D03*
X0119893Y0140693D03*
X0119893Y0140993D03*
X0119893Y0141293D03*
X0119893Y0141593D03*
X0119893Y0141893D03*
X0119893Y0142193D03*
X0119893Y0142493D03*
X0119893Y0142793D03*
X0119893Y0143093D03*
X0119893Y0143393D03*
X0119893Y0143693D03*
X0119893Y0143993D03*
X0119893Y0144293D03*
X0119893Y0144593D03*
X0119893Y0144893D03*
X0119893Y0145193D03*
X0119893Y0145493D03*
X0119893Y0145793D03*
X0119893Y0146093D03*
X0119893Y0146393D03*
X0119893Y0146693D03*
X0119893Y0146993D03*
X0119893Y0147293D03*
X0119893Y0147593D03*
X0122293Y0147593D03*
X0122293Y0147293D03*
X0122293Y0146993D03*
X0122293Y0146693D03*
X0122293Y0146393D03*
X0122293Y0146093D03*
X0122293Y0145793D03*
X0122293Y0145493D03*
X0122293Y0145193D03*
X0122293Y0144893D03*
X0122293Y0144593D03*
X0122293Y0144293D03*
X0122293Y0143993D03*
X0122293Y0143693D03*
X0122293Y0143393D03*
X0122293Y0143093D03*
X0122293Y0142793D03*
X0122293Y0142493D03*
X0122293Y0142193D03*
X0122293Y0141893D03*
X0122293Y0141593D03*
X0122293Y0141293D03*
X0122293Y0140993D03*
X0122293Y0140693D03*
X0122293Y0140393D03*
X0122293Y0140093D03*
X0122293Y0139793D03*
X0122293Y0139493D03*
X0122293Y0139193D03*
X0122293Y0138893D03*
X0122293Y0138593D03*
X0122293Y0138293D03*
X0122293Y0137993D03*
X0122293Y0137693D03*
X0122293Y0137393D03*
X0122293Y0137093D03*
X0122293Y0136793D03*
X0122293Y0136493D03*
X0122293Y0136193D03*
X0122293Y0135893D03*
X0122293Y0135593D03*
X0122293Y0135293D03*
X0122293Y0134993D03*
X0122293Y0134693D03*
X0122293Y0134393D03*
X0122293Y0134093D03*
X0122293Y0133793D03*
X0122293Y0133493D03*
X0122293Y0133193D03*
X0122293Y0132893D03*
X0122293Y0132593D03*
X0122293Y0132293D03*
X0122293Y0131993D03*
X0122293Y0131693D03*
X0122293Y0131393D03*
X0135493Y0131393D03*
X0135493Y0131693D03*
X0135493Y0131993D03*
X0135493Y0132293D03*
X0135493Y0132593D03*
X0135493Y0132893D03*
X0135493Y0133193D03*
X0135493Y0133493D03*
X0135493Y0133793D03*
X0135493Y0134093D03*
X0135493Y0134393D03*
X0135493Y0134693D03*
X0135493Y0134993D03*
X0135493Y0135293D03*
X0135493Y0135593D03*
X0135493Y0135893D03*
X0135493Y0136193D03*
X0135493Y0136493D03*
X0135493Y0136793D03*
X0135493Y0137093D03*
X0135493Y0137393D03*
X0135493Y0137693D03*
X0135493Y0137993D03*
X0135493Y0138293D03*
X0135493Y0138593D03*
X0135493Y0138893D03*
X0135493Y0139193D03*
X0135493Y0139493D03*
X0135493Y0139793D03*
X0135493Y0140093D03*
X0135493Y0140393D03*
X0135493Y0140693D03*
X0135493Y0140993D03*
X0135493Y0141293D03*
X0135493Y0141593D03*
X0135493Y0141893D03*
X0135493Y0142193D03*
X0135493Y0142493D03*
X0135493Y0142793D03*
X0135493Y0143093D03*
X0135493Y0143393D03*
X0135493Y0143693D03*
X0135493Y0143993D03*
X0135493Y0144293D03*
X0135493Y0144593D03*
X0135493Y0144893D03*
X0135493Y0145193D03*
X0135493Y0145493D03*
X0135493Y0145793D03*
X0135493Y0146093D03*
X0135493Y0146393D03*
X0135493Y0146693D03*
X0135493Y0146993D03*
X0135493Y0147293D03*
X0135493Y0147593D03*
X0135493Y0147893D03*
X0135493Y0148193D03*
X0135493Y0148493D03*
X0135493Y0148793D03*
X0135493Y0149093D03*
X0135493Y0149393D03*
X0135493Y0149693D03*
X0135493Y0149993D03*
X0135493Y0150293D03*
X0135493Y0150593D03*
X0135493Y0150893D03*
X0135493Y0151193D03*
X0135493Y0151493D03*
X0135493Y0151793D03*
X0135493Y0152093D03*
X0135493Y0152393D03*
X0135493Y0152693D03*
X0135493Y0152993D03*
X0135493Y0153293D03*
X0135493Y0153593D03*
X0135493Y0153893D03*
X0135493Y0154193D03*
X0135493Y0154493D03*
X0135493Y0154793D03*
X0135493Y0155093D03*
X0135493Y0155393D03*
X0137893Y0155393D03*
X0137893Y0155093D03*
X0137893Y0154793D03*
X0137893Y0154493D03*
X0137893Y0154193D03*
X0137893Y0153893D03*
X0137893Y0153593D03*
X0137893Y0153293D03*
X0137893Y0152993D03*
X0137893Y0152693D03*
X0137893Y0152393D03*
X0137893Y0152093D03*
X0137893Y0151793D03*
X0137893Y0151493D03*
X0137893Y0151193D03*
X0137893Y0150893D03*
X0137893Y0150593D03*
X0137893Y0150293D03*
X0137893Y0149993D03*
X0137893Y0149693D03*
X0137893Y0149393D03*
X0137893Y0149093D03*
X0137893Y0148793D03*
X0137893Y0148493D03*
X0137893Y0148193D03*
X0137893Y0147893D03*
X0137893Y0147593D03*
X0137893Y0147293D03*
X0137893Y0146993D03*
X0137893Y0146693D03*
X0137893Y0146393D03*
X0137893Y0146093D03*
X0137893Y0145793D03*
X0137893Y0145493D03*
X0137893Y0145193D03*
X0137893Y0144893D03*
X0137893Y0144593D03*
X0137893Y0144293D03*
X0137893Y0143993D03*
X0137893Y0143693D03*
X0137893Y0143393D03*
X0137893Y0143093D03*
X0137893Y0142793D03*
X0137893Y0142493D03*
X0137893Y0142193D03*
X0137893Y0141893D03*
X0137893Y0141593D03*
X0137893Y0141293D03*
X0137893Y0140993D03*
X0137893Y0140693D03*
X0137893Y0140393D03*
X0137893Y0140093D03*
X0137893Y0139793D03*
X0137893Y0139493D03*
X0137893Y0139193D03*
X0137893Y0138893D03*
X0137893Y0138593D03*
X0137893Y0138293D03*
X0137893Y0137993D03*
X0137893Y0137693D03*
X0137893Y0137393D03*
X0137893Y0137093D03*
X0137893Y0136793D03*
X0137893Y0136493D03*
X0137893Y0136193D03*
X0137893Y0135893D03*
X0137893Y0135593D03*
X0137893Y0135293D03*
X0137893Y0134993D03*
X0137893Y0134693D03*
X0137893Y0134393D03*
X0137893Y0134093D03*
X0137893Y0133793D03*
X0137893Y0133493D03*
X0137893Y0133193D03*
X0137893Y0132893D03*
X0137893Y0132593D03*
X0137893Y0132293D03*
X0137893Y0131993D03*
X0137893Y0131693D03*
X0137893Y0131393D03*
X0148093Y0131393D03*
X0148093Y0131693D03*
X0148093Y0131993D03*
X0148093Y0132293D03*
X0148093Y0132593D03*
X0148093Y0132893D03*
X0148093Y0133193D03*
X0148093Y0133493D03*
X0148093Y0133793D03*
X0148093Y0134093D03*
X0148093Y0134393D03*
X0148093Y0134693D03*
X0148093Y0134993D03*
X0148093Y0135293D03*
X0148093Y0135593D03*
X0148093Y0135893D03*
X0148093Y0136193D03*
X0148093Y0136493D03*
X0148093Y0136793D03*
X0148093Y0137093D03*
X0148093Y0137393D03*
X0148093Y0137693D03*
X0148093Y0137993D03*
X0148093Y0138293D03*
X0148093Y0138593D03*
X0148093Y0138893D03*
X0148093Y0139193D03*
X0148093Y0139493D03*
X0148093Y0139793D03*
X0148093Y0140093D03*
X0148093Y0140393D03*
X0148093Y0140693D03*
X0148093Y0140993D03*
X0148093Y0141293D03*
X0148093Y0141593D03*
X0148093Y0141893D03*
X0148093Y0142193D03*
X0148093Y0142493D03*
X0148093Y0142793D03*
X0148093Y0143093D03*
X0148093Y0143393D03*
X0148093Y0143693D03*
X0148093Y0143993D03*
X0148093Y0144293D03*
X0148093Y0144593D03*
X0148093Y0144893D03*
X0148093Y0145193D03*
X0148093Y0145493D03*
X0148093Y0145793D03*
X0148093Y0146093D03*
X0148093Y0146393D03*
X0148093Y0146693D03*
X0148093Y0146993D03*
X0148093Y0147293D03*
X0148093Y0147593D03*
X0148093Y0147893D03*
X0148093Y0148193D03*
X0148093Y0148493D03*
X0148093Y0148793D03*
X0148093Y0149093D03*
X0148093Y0149393D03*
X0148093Y0149693D03*
X0148093Y0149993D03*
X0148093Y0150293D03*
X0148093Y0150593D03*
X0148093Y0150893D03*
X0148093Y0151193D03*
X0148093Y0151493D03*
X0148093Y0151793D03*
X0148093Y0152093D03*
X0148093Y0152393D03*
X0148093Y0152693D03*
X0148093Y0152993D03*
X0148093Y0153293D03*
X0148093Y0153593D03*
X0148093Y0153893D03*
X0148093Y0154193D03*
X0148093Y0154493D03*
X0148093Y0154793D03*
X0148093Y0155093D03*
X0148093Y0155393D03*
X0155293Y0155393D03*
X0155293Y0155093D03*
X0155293Y0154793D03*
X0155293Y0154493D03*
X0155293Y0154193D03*
X0155293Y0153893D03*
X0155293Y0153593D03*
X0155293Y0153293D03*
X0155293Y0152993D03*
X0155293Y0152693D03*
X0155293Y0152393D03*
X0155293Y0152093D03*
X0155293Y0151793D03*
X0155293Y0151493D03*
X0155293Y0151193D03*
X0155293Y0150893D03*
X0155293Y0150593D03*
X0155293Y0150293D03*
X0155293Y0149993D03*
X0155293Y0149693D03*
X0155293Y0149393D03*
X0155293Y0149093D03*
X0155293Y0148793D03*
X0155293Y0148493D03*
X0155293Y0148193D03*
X0155293Y0147893D03*
X0155293Y0147593D03*
X0155293Y0147293D03*
X0155293Y0146993D03*
X0155293Y0146693D03*
X0155293Y0146393D03*
X0155293Y0146093D03*
X0155293Y0145793D03*
X0155293Y0145493D03*
X0155293Y0145193D03*
X0155293Y0144893D03*
X0155293Y0144593D03*
X0155293Y0144293D03*
X0155293Y0143993D03*
X0155293Y0143693D03*
X0155293Y0143393D03*
X0155293Y0143093D03*
X0155293Y0142793D03*
X0155293Y0142493D03*
X0155293Y0142193D03*
X0155293Y0141893D03*
X0155293Y0141593D03*
X0155293Y0141293D03*
X0155293Y0140993D03*
X0155293Y0140693D03*
X0155293Y0140393D03*
X0155293Y0140093D03*
X0155293Y0139793D03*
X0155293Y0139493D03*
X0155293Y0139193D03*
X0155293Y0138893D03*
X0155293Y0138593D03*
X0155293Y0138293D03*
X0155293Y0137993D03*
X0155293Y0137693D03*
X0155293Y0137393D03*
X0155293Y0137093D03*
X0155293Y0136793D03*
X0155293Y0136493D03*
X0155293Y0136193D03*
X0155293Y0135893D03*
X0155293Y0135593D03*
X0155293Y0135293D03*
X0155293Y0134993D03*
X0155293Y0134693D03*
X0155293Y0134393D03*
X0155293Y0134093D03*
X0155293Y0133793D03*
X0155293Y0133493D03*
X0155293Y0133193D03*
X0155293Y0132893D03*
X0155293Y0132593D03*
X0155293Y0132293D03*
X0155293Y0131993D03*
X0155293Y0131693D03*
X0155293Y0131393D03*
X0156793Y0131393D03*
X0156793Y0131693D03*
X0156793Y0131993D03*
X0156793Y0132293D03*
X0156793Y0132593D03*
X0156793Y0132893D03*
X0156793Y0133193D03*
X0156793Y0133493D03*
X0156793Y0133793D03*
X0156793Y0134093D03*
X0156793Y0134393D03*
X0156793Y0134693D03*
X0156793Y0134993D03*
X0156793Y0135293D03*
X0156793Y0135593D03*
X0156793Y0135893D03*
X0156793Y0136193D03*
X0156793Y0136493D03*
X0156793Y0136793D03*
X0156793Y0137093D03*
X0156793Y0137393D03*
X0156793Y0137693D03*
X0156793Y0137993D03*
X0156793Y0138293D03*
X0156793Y0138593D03*
X0156793Y0138893D03*
X0156793Y0139193D03*
X0156793Y0139493D03*
X0156793Y0139793D03*
X0156793Y0140093D03*
X0156793Y0140393D03*
X0156793Y0140693D03*
X0156793Y0140993D03*
X0156793Y0141293D03*
X0156793Y0141593D03*
X0156793Y0141893D03*
X0156793Y0142193D03*
X0156793Y0142493D03*
X0156793Y0142793D03*
X0156793Y0143093D03*
X0156793Y0143393D03*
X0156793Y0143693D03*
X0156793Y0143993D03*
X0156793Y0144293D03*
X0156793Y0144593D03*
X0156793Y0144893D03*
X0156793Y0145193D03*
X0156793Y0145493D03*
X0156793Y0145793D03*
X0156793Y0146093D03*
X0156793Y0146393D03*
X0156793Y0146693D03*
X0156793Y0146993D03*
X0156793Y0147293D03*
X0156793Y0147593D03*
X0156793Y0147893D03*
X0156793Y0148193D03*
X0156793Y0148493D03*
X0156793Y0148793D03*
X0156793Y0149093D03*
X0156793Y0149393D03*
X0156793Y0149693D03*
X0156793Y0149993D03*
X0156793Y0150293D03*
X0156793Y0150593D03*
X0156793Y0150893D03*
X0156793Y0151193D03*
X0156793Y0151493D03*
X0156793Y0151793D03*
X0156793Y0152093D03*
X0156793Y0152393D03*
X0156793Y0152693D03*
X0156793Y0152993D03*
X0156793Y0153293D03*
X0156793Y0153593D03*
X0156793Y0153893D03*
X0156793Y0154193D03*
X0156793Y0154493D03*
X0156793Y0154793D03*
X0156793Y0155093D03*
X0156793Y0155393D03*
X0122293Y0150293D03*
X0122293Y0149993D03*
X0122293Y0149693D03*
X0122293Y0149393D03*
X0122293Y0149093D03*
X0122293Y0148793D03*
X0122293Y0148493D03*
X0122293Y0148193D03*
X0122293Y0147893D03*
X0112993Y0197993D03*
X0112993Y0198593D03*
X0112993Y0198893D03*
X0112993Y0199493D03*
X0112993Y0199793D03*
X0112993Y0200393D03*
X0112993Y0200693D03*
X0112993Y0201593D03*
X0112993Y0202193D03*
X0112993Y0202493D03*
X0106393Y0200393D03*
X0106393Y0200093D03*
X0106393Y0199793D03*
X0106393Y0199493D03*
X0106393Y0199193D03*
X0098593Y0200993D03*
X0095893Y0200693D03*
X0095893Y0200393D03*
X0095893Y0200093D03*
X0095893Y0201893D03*
X0095893Y0202193D03*
X0095893Y0202493D03*
X0095893Y0197693D03*
X0095893Y0197393D03*
X0118093Y0086093D03*
X0118093Y0085793D03*
X0119293Y0084593D03*
X0119893Y0084293D03*
X0119893Y0083993D03*
X0120193Y0083693D03*
X0121393Y0082493D03*
X0121993Y0081893D03*
X0122593Y0081593D03*
X0122893Y0080993D03*
X0123793Y0080093D03*
X0124393Y0079493D03*
X0124993Y0079193D03*
X0118093Y0079193D03*
X0118093Y0080693D03*
X0118093Y0080993D03*
X0118093Y0081893D03*
X0118093Y0082793D03*
X0150493Y0069893D03*
X0151993Y0070493D03*
X0154693Y0070493D03*
X0158293Y0070493D03*
X0159493Y0070493D03*
X0166693Y0070493D03*
X0170293Y0070493D03*
X0173293Y0070493D03*
X0182893Y0078593D03*
X0182893Y0083093D03*
X0182893Y0084293D03*
X0184093Y0084293D03*
X0184393Y0083993D03*
X0184693Y0083693D03*
X0184993Y0083393D03*
X0185293Y0083093D03*
X0185593Y0082793D03*
X0185893Y0082493D03*
X0186493Y0081893D03*
X0186793Y0081593D03*
X0187093Y0081293D03*
X0187393Y0080993D03*
X0187693Y0080693D03*
X0187993Y0080393D03*
X0188593Y0079793D03*
X0188893Y0079493D03*
X0189193Y0079193D03*
X0189493Y0078893D03*
X0189793Y0078593D03*
X0190093Y0078293D03*
X0182893Y0085493D03*
X0173893Y0086393D03*
X0172693Y0086393D03*
X0170593Y0086393D03*
X0166993Y0086393D03*
X0153793Y0086393D03*
X0152593Y0086393D03*
X0150493Y0067193D03*
X0151393Y0054293D03*
X0150493Y0053693D03*
X0165793Y0054293D03*
X0172693Y0054293D03*
X0173893Y0054293D03*
X0149893Y0036593D03*
X0149893Y0032993D03*
X0149893Y0031493D03*
D33*
X0040693Y0026393D03*
X0040693Y0074993D03*
D34*
X0101293Y0030293D03*
X0101293Y0029993D03*
X0101293Y0029693D03*
X0101293Y0026393D03*
X0136093Y0038393D03*
X0136393Y0038093D03*
X0136993Y0037493D03*
X0137293Y0037193D03*
X0138193Y0036293D03*
X0138793Y0035693D03*
X0139093Y0035393D03*
X0139393Y0035093D03*
X0139993Y0034493D03*
D35*
X0040543Y0026693D03*
X0040543Y0075293D03*
D36*
X0022693Y0046793D03*
X0079393Y0030293D03*
X0101293Y0028793D03*
X0101293Y0028493D03*
X0101293Y0028193D03*
X0101293Y0027893D03*
X0101293Y0027593D03*
X0101593Y0026693D03*
X0184393Y0030293D03*
D37*
X0182443Y0029693D03*
X0182443Y0028493D03*
X0182443Y0027593D03*
X0182443Y0026693D03*
X0182443Y0030893D03*
X0182443Y0031493D03*
X0182443Y0032093D03*
X0182443Y0032693D03*
X0182443Y0032993D03*
X0182443Y0033893D03*
X0182443Y0034793D03*
X0182443Y0035993D03*
X0182443Y0036593D03*
X0182443Y0037193D03*
X0182443Y0038093D03*
X0182443Y0038393D03*
X0182443Y0040193D03*
X0182443Y0040793D03*
X0182443Y0041693D03*
X0182443Y0041993D03*
X0182443Y0042893D03*
X0182443Y0043493D03*
X0182443Y0044693D03*
X0182443Y0045293D03*
X0182443Y0046493D03*
X0182443Y0047093D03*
X0182443Y0047393D03*
X0182443Y0047993D03*
X0182443Y0049193D03*
X0182443Y0050393D03*
X0182443Y0050993D03*
X0182443Y0051593D03*
X0182443Y0052493D03*
X0182443Y0052793D03*
X0182443Y0054593D03*
X0182443Y0055193D03*
X0182443Y0056093D03*
X0182443Y0056393D03*
X0182443Y0056993D03*
X0182443Y0057893D03*
X0182443Y0058793D03*
X0182443Y0059993D03*
X0182443Y0060593D03*
X0182443Y0062093D03*
X0182443Y0062393D03*
X0182443Y0063593D03*
X0182443Y0064193D03*
X0182443Y0064793D03*
X0182443Y0065993D03*
X0182443Y0066893D03*
X0182443Y0068093D03*
X0182443Y0068693D03*
X0182443Y0069893D03*
X0182443Y0070493D03*
X0182443Y0071393D03*
X0182443Y0072293D03*
X0182443Y0072893D03*
X0182443Y0073193D03*
X0141943Y0030893D03*
X0141943Y0029993D03*
X0141943Y0029393D03*
X0141943Y0028793D03*
X0141943Y0028193D03*
X0141943Y0027593D03*
X0141943Y0026993D03*
X0134143Y0041993D03*
X0117643Y0050393D03*
X0117643Y0071693D03*
X0077143Y0058193D03*
X0077143Y0056393D03*
X0077143Y0054593D03*
X0077143Y0052193D03*
X0077143Y0050693D03*
X0077143Y0048293D03*
X0077143Y0046193D03*
X0077143Y0044093D03*
X0077143Y0042893D03*
X0077143Y0041393D03*
X0077143Y0039893D03*
X0077143Y0036293D03*
X0077143Y0033893D03*
X0077143Y0031193D03*
X0077143Y0029393D03*
X0077143Y0027593D03*
X0060943Y0050393D03*
X0060943Y0050993D03*
X0060943Y0054593D03*
X0020743Y0051893D03*
X0020743Y0044693D03*
X0020743Y0059393D03*
X0020743Y0064193D03*
X0020743Y0068993D03*
D38*
X0040393Y0075593D03*
X0040393Y0027293D03*
X0040393Y0026993D03*
D39*
X0101893Y0026993D03*
D40*
X0102193Y0027293D03*
D41*
X0040093Y0027593D03*
X0040093Y0076193D03*
D42*
X0039943Y0028193D03*
X0039943Y0027893D03*
D43*
X0060943Y0058793D03*
X0117643Y0058493D03*
X0117643Y0059693D03*
X0117643Y0061493D03*
X0117643Y0062393D03*
X0117643Y0063293D03*
X0117643Y0065693D03*
X0117643Y0067493D03*
X0117643Y0068393D03*
X0117643Y0069893D03*
X0117643Y0070793D03*
X0117643Y0072893D03*
X0117643Y0074093D03*
X0117643Y0056093D03*
X0117643Y0052793D03*
X0117643Y0051893D03*
X0133843Y0042593D03*
X0182443Y0042293D03*
X0182443Y0043193D03*
X0182443Y0040493D03*
X0182443Y0038693D03*
X0182443Y0036893D03*
X0182443Y0032393D03*
X0182443Y0031193D03*
X0182443Y0029393D03*
X0182443Y0027893D03*
X0182443Y0046793D03*
X0182443Y0051293D03*
X0182443Y0053093D03*
X0182443Y0054893D03*
X0182443Y0056693D03*
X0182443Y0057593D03*
X0182443Y0060293D03*
X0182443Y0063293D03*
X0182443Y0068393D03*
X0182443Y0071993D03*
X0182443Y0072593D03*
D44*
X0039943Y0076793D03*
X0039643Y0028493D03*
D45*
X0039493Y0028793D03*
X0039493Y0029093D03*
X0039793Y0077093D03*
D46*
X0022543Y0046493D03*
X0079243Y0030593D03*
X0101443Y0029393D03*
X0101443Y0029093D03*
X0144043Y0030293D03*
X0144043Y0030593D03*
X0184543Y0030593D03*
D47*
X0039193Y0029393D03*
X0039793Y0077393D03*
D48*
X0039643Y0077693D03*
X0039043Y0029993D03*
X0039043Y0029693D03*
D49*
X0042943Y0030293D03*
D50*
X0042643Y0030593D03*
D51*
X0038443Y0030893D03*
X0039343Y0078593D03*
D52*
X0038293Y0031193D03*
D53*
X0101443Y0031193D03*
X0135343Y0039593D03*
X0140743Y0033593D03*
X0140743Y0033293D03*
D54*
X0038143Y0031493D03*
D55*
X0037993Y0031793D03*
X0037993Y0032093D03*
D56*
X0101443Y0032093D03*
X0117043Y0054293D03*
X0134743Y0040793D03*
X0141343Y0032393D03*
X0141343Y0032093D03*
D57*
X0039193Y0079493D03*
X0037693Y0032393D03*
D58*
X0101443Y0032393D03*
X0134443Y0041393D03*
D59*
X0037543Y0032693D03*
D60*
X0037393Y0032993D03*
X0039193Y0079793D03*
D61*
X0037243Y0033293D03*
D62*
X0060493Y0059693D03*
X0101293Y0033293D03*
X0133393Y0043493D03*
X0117193Y0075593D03*
X0117193Y0075893D03*
X0181693Y0075593D03*
X0181993Y0075293D03*
D63*
X0040993Y0037793D03*
X0037093Y0033593D03*
X0039193Y0080093D03*
D64*
X0060193Y0060293D03*
X0101293Y0033593D03*
X0133093Y0044093D03*
X0181693Y0075893D03*
D65*
X0036943Y0033893D03*
D66*
X0059443Y0061793D03*
X0059443Y0062093D03*
X0101443Y0033893D03*
X0132343Y0045593D03*
X0116143Y0077993D03*
X0180643Y0077993D03*
X0180943Y0077693D03*
X0180943Y0077393D03*
X0080143Y0155093D03*
D67*
X0079543Y0154193D03*
X0079843Y0153593D03*
X0080143Y0153293D03*
X0080443Y0152993D03*
X0080743Y0152693D03*
X0081043Y0152393D03*
X0084943Y0155693D03*
X0090343Y0151193D03*
X0093943Y0154493D03*
X0095143Y0155693D03*
X0096643Y0154493D03*
X0096643Y0152393D03*
X0100543Y0150293D03*
X0100543Y0149993D03*
X0100543Y0149693D03*
X0100543Y0149393D03*
X0100543Y0149093D03*
X0100543Y0148793D03*
X0100543Y0148493D03*
X0100543Y0148193D03*
X0100543Y0147893D03*
X0100543Y0147593D03*
X0100543Y0147293D03*
X0100543Y0146993D03*
X0100543Y0146693D03*
X0100543Y0146393D03*
X0100543Y0146093D03*
X0100543Y0145793D03*
X0100543Y0145493D03*
X0100543Y0145193D03*
X0100543Y0144893D03*
X0100543Y0144593D03*
X0100543Y0144293D03*
X0100543Y0143993D03*
X0100543Y0143693D03*
X0100543Y0143393D03*
X0100543Y0143093D03*
X0100543Y0142793D03*
X0100543Y0142493D03*
X0100543Y0142193D03*
X0100543Y0141893D03*
X0100543Y0141593D03*
X0100543Y0141293D03*
X0100543Y0140993D03*
X0100543Y0140693D03*
X0100543Y0140393D03*
X0100543Y0140093D03*
X0100543Y0139793D03*
X0100543Y0139493D03*
X0100543Y0139193D03*
X0100543Y0138893D03*
X0100543Y0138593D03*
X0100543Y0138293D03*
X0100543Y0137993D03*
X0100543Y0137693D03*
X0100543Y0137393D03*
X0100543Y0137093D03*
X0100543Y0136793D03*
X0100543Y0136493D03*
X0100543Y0136193D03*
X0100543Y0135893D03*
X0100543Y0135593D03*
X0100543Y0135293D03*
X0100543Y0134993D03*
X0100543Y0134693D03*
X0100543Y0134393D03*
X0100543Y0134093D03*
X0100543Y0133793D03*
X0100543Y0133493D03*
X0100543Y0133193D03*
X0100543Y0132893D03*
X0100543Y0132593D03*
X0100543Y0132293D03*
X0100543Y0131993D03*
X0100543Y0131693D03*
X0100543Y0131393D03*
X0107743Y0131393D03*
X0107743Y0131693D03*
X0107743Y0131993D03*
X0107743Y0132293D03*
X0107743Y0132593D03*
X0107743Y0132893D03*
X0107743Y0133193D03*
X0107743Y0133493D03*
X0107743Y0133793D03*
X0107743Y0134093D03*
X0107743Y0134393D03*
X0107743Y0134693D03*
X0107743Y0134993D03*
X0107743Y0135293D03*
X0107743Y0135593D03*
X0107743Y0135893D03*
X0107743Y0136193D03*
X0107743Y0136493D03*
X0107743Y0136793D03*
X0107743Y0137093D03*
X0107743Y0137393D03*
X0107743Y0137693D03*
X0107743Y0137993D03*
X0107743Y0138293D03*
X0107743Y0138593D03*
X0107743Y0138893D03*
X0107743Y0139193D03*
X0107743Y0139493D03*
X0107743Y0139793D03*
X0107743Y0140093D03*
X0107743Y0140393D03*
X0107743Y0140693D03*
X0107743Y0140993D03*
X0107743Y0141293D03*
X0107743Y0141593D03*
X0107743Y0141893D03*
X0107743Y0142193D03*
X0107743Y0142493D03*
X0107743Y0142793D03*
X0107743Y0143093D03*
X0107743Y0143393D03*
X0107743Y0143693D03*
X0107743Y0143993D03*
X0107743Y0144293D03*
X0107743Y0144593D03*
X0107743Y0144893D03*
X0107743Y0145193D03*
X0107743Y0145493D03*
X0107743Y0145793D03*
X0107743Y0146093D03*
X0107743Y0146393D03*
X0107743Y0146693D03*
X0107743Y0146993D03*
X0107743Y0147293D03*
X0107743Y0147593D03*
X0106243Y0149393D03*
X0113743Y0154193D03*
X0114043Y0154493D03*
X0116743Y0154493D03*
X0116743Y0152393D03*
X0120943Y0152093D03*
X0121243Y0151793D03*
X0123643Y0152093D03*
X0125143Y0154493D03*
X0126343Y0152393D03*
X0126643Y0151793D03*
X0128743Y0152393D03*
X0128743Y0154493D03*
X0130243Y0155693D03*
X0131743Y0154493D03*
X0131743Y0152393D03*
X0131143Y0150293D03*
X0131143Y0149993D03*
X0131143Y0149693D03*
X0131143Y0149393D03*
X0131143Y0149093D03*
X0131143Y0148793D03*
X0131143Y0148493D03*
X0131143Y0148193D03*
X0131143Y0147893D03*
X0131143Y0147593D03*
X0131143Y0147293D03*
X0131143Y0146993D03*
X0131143Y0146693D03*
X0131143Y0146393D03*
X0131143Y0146093D03*
X0131143Y0145793D03*
X0131143Y0145493D03*
X0131143Y0145193D03*
X0131143Y0144893D03*
X0131143Y0144593D03*
X0131143Y0144293D03*
X0131143Y0143993D03*
X0131143Y0143693D03*
X0131143Y0143393D03*
X0131143Y0143093D03*
X0131143Y0142793D03*
X0131143Y0142493D03*
X0131143Y0142193D03*
X0131143Y0141893D03*
X0131143Y0141593D03*
X0131143Y0141293D03*
X0131143Y0140993D03*
X0131143Y0140693D03*
X0131143Y0140393D03*
X0131143Y0140093D03*
X0131143Y0139793D03*
X0131143Y0139493D03*
X0131143Y0139193D03*
X0131143Y0138893D03*
X0131143Y0138593D03*
X0131143Y0138293D03*
X0131143Y0137993D03*
X0131143Y0137693D03*
X0131143Y0137393D03*
X0131143Y0137093D03*
X0131143Y0136793D03*
X0131143Y0136493D03*
X0131143Y0136193D03*
X0131143Y0135893D03*
X0131143Y0135593D03*
X0131143Y0135293D03*
X0131143Y0134993D03*
X0131143Y0134693D03*
X0131143Y0134393D03*
X0131143Y0134093D03*
X0131143Y0133793D03*
X0131143Y0133493D03*
X0131143Y0133193D03*
X0131143Y0132893D03*
X0131143Y0132593D03*
X0131143Y0132293D03*
X0131143Y0131993D03*
X0131143Y0131693D03*
X0131143Y0131393D03*
X0139843Y0131393D03*
X0139843Y0131693D03*
X0139843Y0131993D03*
X0139843Y0132293D03*
X0139843Y0132593D03*
X0139843Y0132893D03*
X0139843Y0133193D03*
X0139843Y0133493D03*
X0139843Y0133793D03*
X0139843Y0134093D03*
X0139843Y0134393D03*
X0139843Y0134693D03*
X0139843Y0134993D03*
X0139843Y0135293D03*
X0139843Y0135593D03*
X0139843Y0135893D03*
X0139843Y0136193D03*
X0139843Y0136493D03*
X0139843Y0136793D03*
X0139843Y0137093D03*
X0139843Y0137393D03*
X0139843Y0137693D03*
X0139843Y0137993D03*
X0139843Y0138293D03*
X0139843Y0138593D03*
X0139843Y0138893D03*
X0139843Y0139193D03*
X0139843Y0139493D03*
X0139843Y0139793D03*
X0139843Y0140093D03*
X0139843Y0140393D03*
X0139843Y0140693D03*
X0139843Y0140993D03*
X0139843Y0141293D03*
X0139843Y0141593D03*
X0139843Y0141893D03*
X0139843Y0142193D03*
X0139843Y0142493D03*
X0139843Y0142793D03*
X0139843Y0143093D03*
X0139843Y0143393D03*
X0139843Y0143693D03*
X0139843Y0143993D03*
X0139843Y0144293D03*
X0139843Y0144593D03*
X0139843Y0144893D03*
X0139843Y0145193D03*
X0139843Y0145493D03*
X0139843Y0145793D03*
X0139843Y0146093D03*
X0139843Y0146393D03*
X0139843Y0146693D03*
X0139843Y0146993D03*
X0139843Y0147293D03*
X0139843Y0147593D03*
X0139843Y0147893D03*
X0139843Y0148193D03*
X0139843Y0148493D03*
X0139843Y0148793D03*
X0139843Y0149093D03*
X0139843Y0149393D03*
X0139843Y0149693D03*
X0139843Y0149993D03*
X0139843Y0150293D03*
X0139843Y0150593D03*
X0139843Y0150893D03*
X0139843Y0151193D03*
X0139843Y0151493D03*
X0139843Y0151793D03*
X0139843Y0152093D03*
X0139843Y0152393D03*
X0139843Y0152693D03*
X0139843Y0152993D03*
X0139843Y0153293D03*
X0139843Y0153593D03*
X0139843Y0153893D03*
X0139843Y0154193D03*
X0139843Y0154493D03*
X0139843Y0154793D03*
X0139843Y0155093D03*
X0139843Y0155393D03*
X0142243Y0155393D03*
X0142243Y0155093D03*
X0142243Y0154793D03*
X0142243Y0154493D03*
X0142243Y0154193D03*
X0142243Y0153893D03*
X0142243Y0153593D03*
X0142243Y0153293D03*
X0142243Y0152993D03*
X0142243Y0152693D03*
X0142243Y0152393D03*
X0142243Y0152093D03*
X0142243Y0151793D03*
X0142243Y0151493D03*
X0142243Y0151193D03*
X0142243Y0150893D03*
X0142243Y0150593D03*
X0142243Y0150293D03*
X0142243Y0149993D03*
X0142243Y0149693D03*
X0142243Y0149393D03*
X0142243Y0149093D03*
X0142243Y0148793D03*
X0142243Y0148493D03*
X0142243Y0148193D03*
X0142243Y0147893D03*
X0142243Y0147593D03*
X0142243Y0147293D03*
X0142243Y0146993D03*
X0142243Y0146693D03*
X0142243Y0146393D03*
X0142243Y0146093D03*
X0142243Y0145793D03*
X0142243Y0145493D03*
X0142243Y0145193D03*
X0142243Y0144893D03*
X0142243Y0144593D03*
X0142243Y0144293D03*
X0142243Y0143993D03*
X0142243Y0143693D03*
X0142243Y0143393D03*
X0142243Y0143093D03*
X0142243Y0142793D03*
X0142243Y0142493D03*
X0142243Y0142193D03*
X0142243Y0141893D03*
X0142243Y0141593D03*
X0142243Y0141293D03*
X0142243Y0140993D03*
X0142243Y0140693D03*
X0142243Y0140393D03*
X0142243Y0140093D03*
X0142243Y0139793D03*
X0142243Y0139493D03*
X0142243Y0139193D03*
X0142243Y0138893D03*
X0142243Y0138593D03*
X0142243Y0138293D03*
X0142243Y0137993D03*
X0142243Y0137693D03*
X0142243Y0137393D03*
X0142243Y0137093D03*
X0142243Y0136793D03*
X0142243Y0136493D03*
X0142243Y0136193D03*
X0142243Y0135893D03*
X0142243Y0135593D03*
X0142243Y0135293D03*
X0142243Y0134993D03*
X0142243Y0134693D03*
X0142243Y0134393D03*
X0142243Y0134093D03*
X0142243Y0133793D03*
X0142243Y0133493D03*
X0142243Y0133193D03*
X0142243Y0132893D03*
X0142243Y0132593D03*
X0142243Y0132293D03*
X0142243Y0131993D03*
X0142243Y0131693D03*
X0142243Y0131393D03*
X0121843Y0155393D03*
X0121543Y0155093D03*
X0121243Y0154793D03*
X0120943Y0154193D03*
X0123643Y0157493D03*
X0099943Y0197093D03*
X0100543Y0199493D03*
X0100543Y0199793D03*
X0100843Y0201593D03*
X0103843Y0200993D03*
X0103843Y0200693D03*
X0103843Y0200393D03*
X0095443Y0198893D03*
X0089743Y0197093D03*
X0059743Y0155093D03*
X0059743Y0154793D03*
X0059743Y0154493D03*
X0059743Y0154193D03*
X0059743Y0153893D03*
X0059743Y0153593D03*
X0059743Y0153293D03*
X0059743Y0152993D03*
X0059743Y0152693D03*
X0059743Y0152393D03*
X0059743Y0152093D03*
X0059743Y0151793D03*
X0059743Y0151493D03*
X0059743Y0151193D03*
X0059743Y0150893D03*
X0059743Y0150593D03*
X0059743Y0150293D03*
X0059743Y0149993D03*
X0059743Y0149693D03*
X0059743Y0149393D03*
X0059743Y0149093D03*
X0059743Y0148793D03*
X0059743Y0148493D03*
X0059743Y0148193D03*
X0059743Y0147893D03*
X0059743Y0147593D03*
X0059743Y0147293D03*
X0059743Y0146993D03*
X0059743Y0146693D03*
X0059743Y0146393D03*
X0059743Y0146093D03*
X0059743Y0145793D03*
X0059743Y0145493D03*
X0059743Y0145193D03*
X0059743Y0144893D03*
X0059743Y0144593D03*
X0059743Y0144293D03*
X0059743Y0143993D03*
X0059743Y0143693D03*
X0059743Y0143393D03*
X0059743Y0143093D03*
X0059743Y0142793D03*
X0059743Y0142493D03*
X0059743Y0142193D03*
X0059743Y0141893D03*
X0059743Y0141593D03*
X0059743Y0141293D03*
X0059743Y0140993D03*
X0059743Y0140693D03*
X0059743Y0140393D03*
X0059743Y0140093D03*
X0059743Y0139793D03*
X0059743Y0139493D03*
X0059743Y0139193D03*
X0059743Y0138893D03*
X0059743Y0138593D03*
X0059743Y0138293D03*
X0059743Y0137993D03*
X0059743Y0137693D03*
X0059743Y0137393D03*
X0059743Y0137093D03*
X0059743Y0136793D03*
X0059743Y0136493D03*
X0059743Y0136193D03*
X0059743Y0135893D03*
X0059743Y0135593D03*
X0059743Y0135293D03*
X0059743Y0134993D03*
X0059743Y0134693D03*
X0059743Y0134393D03*
X0059743Y0134093D03*
X0059743Y0133793D03*
X0059743Y0133493D03*
X0059743Y0133193D03*
X0059743Y0132893D03*
X0059743Y0132593D03*
X0059743Y0132293D03*
X0059743Y0131993D03*
X0059743Y0131693D03*
X0059743Y0131393D03*
X0053443Y0131393D03*
X0053443Y0131693D03*
X0053443Y0131993D03*
X0053443Y0132293D03*
X0053443Y0132593D03*
X0053443Y0132893D03*
X0053443Y0133193D03*
X0053443Y0133493D03*
X0053443Y0133793D03*
X0053443Y0134093D03*
X0053443Y0134393D03*
X0053443Y0134693D03*
X0053443Y0134993D03*
X0053443Y0135293D03*
X0053443Y0135593D03*
X0053443Y0135893D03*
X0053443Y0136193D03*
X0053443Y0136493D03*
X0053443Y0136793D03*
X0053443Y0137093D03*
X0053443Y0137393D03*
X0053443Y0137693D03*
X0053443Y0137993D03*
X0053443Y0138293D03*
X0053443Y0138593D03*
X0053443Y0138893D03*
X0053443Y0139193D03*
X0053443Y0139493D03*
X0053443Y0139793D03*
X0053443Y0140093D03*
X0053443Y0140393D03*
X0053443Y0140693D03*
X0053443Y0140993D03*
X0053443Y0141293D03*
X0053443Y0141593D03*
X0053443Y0141893D03*
X0053443Y0142193D03*
X0053443Y0142493D03*
X0053443Y0142793D03*
X0053443Y0143093D03*
X0053443Y0143393D03*
X0053443Y0143693D03*
X0053443Y0143993D03*
X0053443Y0144293D03*
X0053443Y0144593D03*
X0053443Y0144893D03*
X0053443Y0145193D03*
X0053443Y0145493D03*
X0053443Y0145793D03*
X0053443Y0146093D03*
X0053443Y0146393D03*
X0053443Y0146693D03*
X0053443Y0146993D03*
X0053443Y0147293D03*
X0053443Y0147593D03*
X0053443Y0147893D03*
X0053443Y0148193D03*
X0053443Y0148493D03*
X0053443Y0148793D03*
X0053443Y0149093D03*
X0053443Y0149393D03*
X0053443Y0149693D03*
X0053443Y0149993D03*
X0053443Y0150293D03*
X0053443Y0150593D03*
X0053443Y0150893D03*
X0053443Y0151193D03*
X0053443Y0151493D03*
X0053443Y0151793D03*
X0053443Y0152093D03*
X0053443Y0152393D03*
X0053443Y0152693D03*
X0053443Y0152993D03*
X0053443Y0153293D03*
X0053443Y0153593D03*
X0053443Y0153893D03*
X0053443Y0154193D03*
X0053443Y0154493D03*
X0053443Y0154793D03*
X0053443Y0155093D03*
X0048643Y0155093D03*
X0048643Y0154793D03*
X0048643Y0154493D03*
X0048643Y0154193D03*
X0048643Y0153893D03*
X0048643Y0153593D03*
X0048643Y0153293D03*
X0048643Y0152993D03*
X0048643Y0152693D03*
X0048643Y0152393D03*
X0048643Y0152093D03*
X0048643Y0151793D03*
X0048643Y0151493D03*
X0048643Y0151193D03*
X0048643Y0150893D03*
X0048643Y0150593D03*
X0048643Y0150293D03*
X0048643Y0149993D03*
X0048643Y0149693D03*
X0048643Y0149393D03*
X0048643Y0149093D03*
X0048643Y0148793D03*
X0048643Y0148493D03*
X0048643Y0148193D03*
X0048643Y0147893D03*
X0048643Y0147593D03*
X0048643Y0147293D03*
X0048643Y0146993D03*
X0048643Y0146693D03*
X0048643Y0146393D03*
X0048643Y0146093D03*
X0048643Y0145793D03*
X0048643Y0145493D03*
X0048643Y0145193D03*
X0048643Y0144893D03*
X0048643Y0144593D03*
X0048643Y0144293D03*
X0048643Y0143993D03*
X0048643Y0143693D03*
X0048643Y0143393D03*
X0048643Y0143093D03*
X0048643Y0142793D03*
X0048643Y0142493D03*
X0048643Y0142193D03*
X0048643Y0141893D03*
X0048643Y0141593D03*
X0048643Y0141293D03*
X0048643Y0140993D03*
X0048643Y0140693D03*
X0048643Y0140393D03*
X0048643Y0140093D03*
X0048643Y0139793D03*
X0048643Y0139493D03*
X0048643Y0139193D03*
X0048643Y0138893D03*
X0048643Y0138593D03*
X0048643Y0138293D03*
X0048643Y0137993D03*
X0048643Y0137693D03*
X0048643Y0137393D03*
X0048643Y0137093D03*
X0048643Y0136793D03*
X0048643Y0136493D03*
X0048643Y0136193D03*
X0048643Y0135893D03*
X0048643Y0135593D03*
X0048643Y0135293D03*
X0048643Y0134993D03*
X0048643Y0134693D03*
X0048643Y0134393D03*
X0048643Y0134093D03*
X0048643Y0133793D03*
X0048643Y0133493D03*
X0048643Y0133193D03*
X0048643Y0132893D03*
X0048643Y0132593D03*
X0048643Y0132293D03*
X0048643Y0131993D03*
X0048643Y0131693D03*
X0048643Y0131393D03*
X0027643Y0131393D03*
X0027643Y0131693D03*
X0027643Y0131993D03*
X0027643Y0132293D03*
X0027643Y0132593D03*
X0027643Y0132893D03*
X0027643Y0133193D03*
X0027643Y0133493D03*
X0027643Y0133793D03*
X0027643Y0134093D03*
X0027643Y0134393D03*
X0027643Y0134693D03*
X0027643Y0134993D03*
X0027643Y0135293D03*
X0027643Y0135593D03*
X0027643Y0135893D03*
X0027643Y0136193D03*
X0027643Y0136493D03*
X0027643Y0136793D03*
X0027643Y0137093D03*
X0027643Y0137393D03*
X0027643Y0137693D03*
X0027643Y0137993D03*
X0027643Y0138293D03*
X0027643Y0138593D03*
X0027643Y0138893D03*
X0027643Y0139193D03*
X0027643Y0139493D03*
X0027643Y0139793D03*
X0027643Y0140093D03*
X0027643Y0140393D03*
X0027643Y0140693D03*
X0027643Y0140993D03*
X0027643Y0141293D03*
X0027643Y0141593D03*
X0027643Y0141893D03*
X0027643Y0142193D03*
X0027643Y0142493D03*
X0027643Y0142793D03*
X0027643Y0143093D03*
X0027643Y0143393D03*
X0027643Y0143693D03*
X0027643Y0143993D03*
X0027643Y0144293D03*
X0027643Y0144593D03*
X0027643Y0144893D03*
X0027643Y0145193D03*
X0027643Y0145493D03*
X0027643Y0145793D03*
X0027643Y0146093D03*
X0027643Y0146393D03*
X0027643Y0146693D03*
X0027643Y0146993D03*
X0027643Y0147293D03*
X0027643Y0147593D03*
X0027643Y0147893D03*
X0027643Y0148193D03*
X0027643Y0148493D03*
X0027643Y0148793D03*
X0027643Y0149093D03*
X0027643Y0149393D03*
X0027643Y0149693D03*
X0027643Y0149993D03*
X0027643Y0150293D03*
X0027643Y0150593D03*
X0027643Y0150893D03*
X0027643Y0151193D03*
X0027643Y0151493D03*
X0027643Y0151793D03*
X0027643Y0152093D03*
X0027643Y0152393D03*
X0027643Y0152693D03*
X0027643Y0152993D03*
X0027643Y0153293D03*
X0027643Y0153593D03*
X0027643Y0153893D03*
X0027643Y0154193D03*
X0027643Y0154493D03*
X0027643Y0154793D03*
X0027643Y0155093D03*
X0070843Y0150293D03*
X0070843Y0149993D03*
X0070843Y0149693D03*
X0070843Y0149393D03*
X0070843Y0149093D03*
X0070843Y0148793D03*
X0070843Y0148493D03*
X0070843Y0148193D03*
X0070843Y0147893D03*
X0070843Y0147593D03*
X0070843Y0147293D03*
X0070843Y0146993D03*
X0070843Y0146693D03*
X0070843Y0146393D03*
X0070843Y0146093D03*
X0070843Y0145793D03*
X0070843Y0145493D03*
X0070843Y0145193D03*
X0070843Y0144893D03*
X0070843Y0144593D03*
X0070843Y0144293D03*
X0070843Y0143993D03*
X0070843Y0143693D03*
X0070843Y0143393D03*
X0070843Y0143093D03*
X0070843Y0142793D03*
X0070843Y0142493D03*
X0070843Y0142193D03*
X0070843Y0141893D03*
X0070843Y0141593D03*
X0070843Y0141293D03*
X0070843Y0140993D03*
X0070843Y0140693D03*
X0070843Y0140393D03*
X0070843Y0140093D03*
X0070843Y0139793D03*
X0070843Y0139493D03*
X0070843Y0139193D03*
X0070843Y0138893D03*
X0070843Y0138593D03*
X0070843Y0138293D03*
X0070843Y0137993D03*
X0070843Y0137693D03*
X0070843Y0137393D03*
X0070843Y0137093D03*
X0070843Y0136793D03*
X0070843Y0136493D03*
X0070843Y0136193D03*
X0070843Y0135893D03*
X0070843Y0135593D03*
X0070843Y0135293D03*
X0070843Y0134993D03*
X0070843Y0134693D03*
X0070843Y0134393D03*
X0070843Y0134093D03*
X0070843Y0133793D03*
X0070843Y0133493D03*
X0070843Y0133193D03*
X0070843Y0132893D03*
X0070843Y0132593D03*
X0070843Y0132293D03*
X0070843Y0131993D03*
X0070843Y0131693D03*
X0070843Y0131393D03*
X0076543Y0149393D03*
X0074143Y0152393D03*
X0047743Y0086693D03*
X0061843Y0068993D03*
X0057943Y0064793D03*
X0052843Y0042293D03*
X0038443Y0042293D03*
X0082243Y0069593D03*
X0101443Y0070493D03*
X0108643Y0062993D03*
X0114643Y0080693D03*
X0114643Y0080993D03*
X0118843Y0084893D03*
X0118543Y0085193D03*
X0130843Y0048593D03*
X0114943Y0042293D03*
X0102943Y0037493D03*
X0100843Y0042293D03*
X0148843Y0042293D03*
X0171643Y0062993D03*
X0173443Y0046793D03*
X0150943Y0086393D03*
D68*
X0179443Y0080093D03*
X0179743Y0079793D03*
X0170143Y0131393D03*
X0170143Y0131693D03*
X0170143Y0131993D03*
X0170143Y0132293D03*
X0170143Y0132593D03*
X0170143Y0132893D03*
X0170143Y0133193D03*
X0170143Y0133493D03*
X0170143Y0133793D03*
X0170143Y0134093D03*
X0170143Y0134393D03*
X0170143Y0134693D03*
X0170143Y0134993D03*
X0170143Y0135293D03*
X0170143Y0135593D03*
X0170143Y0135893D03*
X0170143Y0136193D03*
X0170143Y0136493D03*
X0170143Y0136793D03*
X0170143Y0137093D03*
X0170143Y0137393D03*
X0170143Y0137693D03*
X0170143Y0137993D03*
X0170143Y0138293D03*
X0170143Y0138593D03*
X0170143Y0138893D03*
X0170143Y0139193D03*
X0170143Y0139493D03*
X0170143Y0139793D03*
X0170143Y0140093D03*
X0170143Y0140393D03*
X0170143Y0140693D03*
X0170143Y0140993D03*
X0170143Y0141293D03*
X0170143Y0141593D03*
X0170143Y0141893D03*
X0170143Y0142193D03*
X0170143Y0142493D03*
X0170143Y0142793D03*
X0170143Y0143093D03*
X0170143Y0143393D03*
X0170143Y0143693D03*
X0170143Y0143993D03*
X0170143Y0144293D03*
X0170143Y0144593D03*
X0170143Y0144893D03*
X0170143Y0145193D03*
X0170143Y0145493D03*
X0170143Y0145793D03*
X0170143Y0146093D03*
X0170143Y0146393D03*
X0170143Y0146693D03*
X0170143Y0146993D03*
X0170143Y0147293D03*
X0170143Y0147593D03*
X0170143Y0147893D03*
X0170143Y0148193D03*
X0170143Y0148493D03*
X0170143Y0148793D03*
X0170143Y0149093D03*
X0170143Y0149393D03*
X0170143Y0149693D03*
X0170143Y0149993D03*
X0170143Y0150293D03*
X0170143Y0150593D03*
X0170143Y0150893D03*
X0170143Y0151193D03*
X0170143Y0151493D03*
X0170143Y0151793D03*
X0170143Y0152093D03*
X0170143Y0152393D03*
X0170143Y0152693D03*
X0170143Y0152993D03*
X0170143Y0153293D03*
X0170143Y0153593D03*
X0170143Y0153893D03*
X0170143Y0154193D03*
X0170143Y0154493D03*
X0170143Y0154793D03*
X0170143Y0155093D03*
X0170143Y0155393D03*
X0130243Y0151193D03*
X0125143Y0153893D03*
X0119743Y0153293D03*
X0119743Y0152993D03*
X0115243Y0151193D03*
X0095143Y0151193D03*
X0092443Y0150293D03*
X0092443Y0149993D03*
X0092443Y0149693D03*
X0092443Y0149393D03*
X0092443Y0149093D03*
X0092443Y0148793D03*
X0092443Y0148493D03*
X0092443Y0148193D03*
X0092443Y0147893D03*
X0092443Y0147593D03*
X0092443Y0147293D03*
X0092443Y0146993D03*
X0092443Y0146693D03*
X0092443Y0146393D03*
X0092443Y0146093D03*
X0092443Y0145793D03*
X0092443Y0145493D03*
X0092443Y0145193D03*
X0092443Y0144893D03*
X0092443Y0144593D03*
X0092443Y0144293D03*
X0092443Y0143993D03*
X0092443Y0143693D03*
X0092443Y0143393D03*
X0092443Y0143093D03*
X0092443Y0142793D03*
X0092443Y0142493D03*
X0092443Y0142193D03*
X0092443Y0141893D03*
X0092443Y0141593D03*
X0092443Y0141293D03*
X0092443Y0140993D03*
X0092443Y0140693D03*
X0092443Y0140393D03*
X0092443Y0140093D03*
X0092443Y0139793D03*
X0092443Y0139493D03*
X0092443Y0139193D03*
X0092443Y0138893D03*
X0092443Y0138593D03*
X0092443Y0138293D03*
X0092443Y0137993D03*
X0092443Y0137693D03*
X0092443Y0137393D03*
X0092443Y0137093D03*
X0092443Y0136793D03*
X0092443Y0136493D03*
X0092443Y0136193D03*
X0092443Y0135893D03*
X0092443Y0135593D03*
X0092443Y0135293D03*
X0092443Y0134993D03*
X0092443Y0134693D03*
X0092443Y0134393D03*
X0092443Y0134093D03*
X0092443Y0133793D03*
X0092443Y0133493D03*
X0092443Y0133193D03*
X0092443Y0132893D03*
X0092443Y0132593D03*
X0092443Y0132293D03*
X0092443Y0131993D03*
X0092443Y0131693D03*
X0092443Y0131393D03*
X0114943Y0080393D03*
X0131143Y0047993D03*
X0106843Y0037793D03*
X0058243Y0064193D03*
X0026743Y0086093D03*
X0040543Y0131393D03*
X0040543Y0131693D03*
X0040543Y0131993D03*
X0040543Y0132293D03*
X0040543Y0132593D03*
X0040543Y0132893D03*
X0040543Y0133193D03*
X0040543Y0133493D03*
X0040543Y0133793D03*
X0040543Y0134093D03*
X0040543Y0134393D03*
X0040543Y0134693D03*
X0040543Y0134993D03*
X0040543Y0135293D03*
X0040543Y0135593D03*
X0040543Y0135893D03*
X0040543Y0136193D03*
X0040543Y0136493D03*
X0040543Y0136793D03*
X0040543Y0137093D03*
X0040543Y0137393D03*
X0040543Y0137693D03*
X0040543Y0137993D03*
X0040543Y0138293D03*
X0040543Y0138593D03*
X0040543Y0138893D03*
X0040543Y0139193D03*
X0040543Y0139493D03*
X0040543Y0139793D03*
X0040543Y0140093D03*
X0040543Y0140393D03*
X0040543Y0140693D03*
X0040543Y0140993D03*
X0040543Y0141293D03*
X0040543Y0141593D03*
X0040543Y0141893D03*
X0040543Y0142193D03*
X0040543Y0142493D03*
X0040543Y0142793D03*
X0040543Y0143093D03*
X0040543Y0143393D03*
X0040543Y0143693D03*
X0040543Y0143993D03*
X0040543Y0144293D03*
X0040543Y0144593D03*
X0040543Y0144893D03*
X0040543Y0145193D03*
X0040543Y0145493D03*
X0040543Y0145793D03*
X0040543Y0146093D03*
X0040543Y0146393D03*
X0040543Y0146693D03*
X0040543Y0146993D03*
X0040543Y0147293D03*
X0040543Y0147593D03*
X0040543Y0147893D03*
X0040543Y0148193D03*
X0040543Y0148493D03*
X0040543Y0148793D03*
X0040543Y0149093D03*
X0040543Y0149393D03*
X0040543Y0149693D03*
X0040543Y0149993D03*
X0040543Y0150293D03*
X0040543Y0150593D03*
X0040543Y0150893D03*
X0040543Y0151193D03*
X0040543Y0151493D03*
X0040543Y0151793D03*
X0040543Y0152093D03*
X0040543Y0152393D03*
X0040543Y0152693D03*
X0040543Y0152993D03*
X0040543Y0153293D03*
X0040543Y0153593D03*
X0040543Y0153893D03*
X0040543Y0154193D03*
X0040543Y0154493D03*
X0040543Y0154793D03*
X0040543Y0155093D03*
X0089743Y0197393D03*
X0095143Y0199793D03*
X0107743Y0197393D03*
D69*
X0039193Y0080393D03*
X0040993Y0038093D03*
D70*
X0105343Y0038093D03*
X0095143Y0152093D03*
X0095143Y0154793D03*
X0080443Y0154493D03*
X0080143Y0151793D03*
X0115243Y0154793D03*
X0130243Y0154793D03*
X0130243Y0152093D03*
X0094843Y0201293D03*
X0094843Y0201593D03*
D71*
X0103843Y0042593D03*
X0047143Y0042593D03*
D72*
X0157693Y0042593D03*
D73*
X0103993Y0042893D03*
X0103993Y0043193D03*
X0091093Y0065093D03*
X0047293Y0042893D03*
D74*
X0158143Y0042893D03*
X0158143Y0045293D03*
X0158143Y0046193D03*
X0158143Y0047993D03*
X0158143Y0058493D03*
X0158143Y0059693D03*
X0158143Y0060593D03*
X0158143Y0063293D03*
X0158143Y0065393D03*
X0158143Y0076493D03*
X0158143Y0077393D03*
X0158143Y0081293D03*
X0158143Y0082193D03*
D75*
X0090943Y0064793D03*
X0047443Y0043193D03*
D76*
X0060643Y0059393D03*
X0133543Y0043193D03*
D77*
X0157993Y0044393D03*
X0158293Y0044093D03*
X0158293Y0043793D03*
X0158293Y0043193D03*
X0158293Y0044693D03*
X0158293Y0045593D03*
X0158293Y0047093D03*
X0158293Y0047693D03*
X0158293Y0048593D03*
X0157993Y0048893D03*
X0158293Y0049493D03*
X0158293Y0049793D03*
X0162193Y0053993D03*
X0158293Y0059093D03*
X0158293Y0059993D03*
X0158293Y0061493D03*
X0158293Y0062093D03*
X0158293Y0062993D03*
X0158293Y0063893D03*
X0157993Y0064193D03*
X0158293Y0064493D03*
X0158293Y0064793D03*
X0158293Y0066293D03*
X0162193Y0070193D03*
X0158293Y0074993D03*
X0157993Y0075293D03*
X0158293Y0075893D03*
X0158293Y0077093D03*
X0158293Y0077693D03*
X0158293Y0078293D03*
X0158293Y0079793D03*
X0157993Y0080093D03*
X0158293Y0080693D03*
X0158293Y0081593D03*
X0158293Y0082793D03*
X0162193Y0086693D03*
D78*
X0104293Y0043793D03*
X0104293Y0043493D03*
X0090793Y0064493D03*
X0047593Y0043493D03*
D79*
X0158143Y0043493D03*
X0158143Y0044993D03*
X0158143Y0045893D03*
X0158143Y0047393D03*
X0158143Y0048293D03*
X0158143Y0049193D03*
X0158143Y0050093D03*
X0158143Y0058793D03*
X0158143Y0059393D03*
X0158143Y0060293D03*
X0158143Y0060893D03*
X0158143Y0061193D03*
X0158143Y0061793D03*
X0158143Y0062393D03*
X0158143Y0063593D03*
X0158143Y0065093D03*
X0158143Y0065693D03*
X0158143Y0065993D03*
X0158143Y0075593D03*
X0158143Y0076193D03*
X0158143Y0076793D03*
X0158143Y0077993D03*
X0158143Y0078593D03*
X0158143Y0079493D03*
X0158143Y0080393D03*
X0158143Y0080993D03*
X0158143Y0081893D03*
X0158143Y0082493D03*
D80*
X0090643Y0064193D03*
X0047743Y0043793D03*
D81*
X0047893Y0044093D03*
X0090493Y0063893D03*
X0104593Y0044393D03*
D82*
X0104443Y0044093D03*
X0090343Y0063593D03*
X0048043Y0044393D03*
D83*
X0060043Y0060593D03*
X0116743Y0076493D03*
X0116743Y0076793D03*
X0132943Y0044393D03*
X0181243Y0076493D03*
X0181543Y0076193D03*
X0101443Y0151493D03*
X0101443Y0151793D03*
X0101443Y0152093D03*
X0071743Y0152093D03*
X0071743Y0151793D03*
X0071743Y0151493D03*
D84*
X0090193Y0063293D03*
X0104893Y0044993D03*
X0104893Y0044693D03*
X0048193Y0044693D03*
D85*
X0048343Y0044993D03*
D86*
X0059743Y0061193D03*
X0116443Y0077393D03*
X0132643Y0044993D03*
D87*
X0105193Y0045293D03*
X0089893Y0062093D03*
X0089893Y0062393D03*
X0048493Y0045293D03*
D88*
X0059593Y0061493D03*
X0116293Y0077693D03*
X0132493Y0045293D03*
X0181093Y0077093D03*
X0079993Y0155393D03*
X0079993Y0155693D03*
D89*
X0089743Y0061793D03*
X0089743Y0061493D03*
X0105343Y0045593D03*
X0048643Y0045593D03*
D90*
X0048793Y0045893D03*
X0089593Y0060293D03*
X0089593Y0060593D03*
X0089593Y0060893D03*
X0089593Y0061193D03*
X0090493Y0062993D03*
X0105493Y0050093D03*
X0105493Y0048893D03*
X0105493Y0046193D03*
X0105493Y0045893D03*
D91*
X0132193Y0045893D03*
X0132193Y0046193D03*
X0115993Y0078293D03*
X0115993Y0078593D03*
X0059293Y0062693D03*
X0059293Y0062393D03*
X0080293Y0151193D03*
X0080293Y0151493D03*
X0080293Y0154793D03*
X0115393Y0152093D03*
X0180793Y0078293D03*
D92*
X0105643Y0049493D03*
X0105643Y0049193D03*
X0105643Y0048593D03*
X0105643Y0048293D03*
X0105643Y0047993D03*
X0105643Y0047693D03*
X0105643Y0047393D03*
X0089443Y0058493D03*
X0089443Y0058793D03*
X0089443Y0059093D03*
X0089443Y0059393D03*
X0089443Y0059693D03*
X0089443Y0059993D03*
X0048943Y0050093D03*
X0048943Y0049793D03*
X0048943Y0049493D03*
X0048943Y0049193D03*
X0048943Y0048893D03*
X0048943Y0048593D03*
X0048943Y0048293D03*
X0048943Y0047993D03*
X0048943Y0047693D03*
X0048943Y0047393D03*
X0048943Y0046193D03*
D93*
X0049093Y0046493D03*
X0105493Y0049793D03*
X0105793Y0046493D03*
D94*
X0107593Y0053993D03*
X0091393Y0065393D03*
X0050893Y0053993D03*
X0160093Y0046493D03*
D95*
X0105943Y0046793D03*
X0049243Y0046793D03*
D96*
X0159043Y0046793D03*
D97*
X0106093Y0047093D03*
X0049393Y0047093D03*
D98*
X0040843Y0058493D03*
X0040843Y0058793D03*
X0040843Y0059093D03*
X0040843Y0059393D03*
X0040843Y0059693D03*
X0040843Y0059993D03*
X0040843Y0060293D03*
X0040843Y0060593D03*
X0040843Y0060893D03*
X0040843Y0061193D03*
X0040843Y0061493D03*
X0040843Y0061793D03*
X0040843Y0062093D03*
X0040843Y0062393D03*
X0040843Y0063293D03*
X0040843Y0063593D03*
X0040843Y0063893D03*
X0040843Y0064193D03*
X0040843Y0064493D03*
X0040843Y0064793D03*
X0040843Y0065093D03*
X0040843Y0065393D03*
X0040843Y0065693D03*
X0040843Y0065993D03*
X0040843Y0066293D03*
D99*
X0042943Y0062693D03*
D100*
X0091993Y0062693D03*
D101*
X0160243Y0062693D03*
X0160243Y0078893D03*
X0160243Y0079193D03*
D102*
X0041293Y0062993D03*
D103*
X0091693Y0065693D03*
D104*
X0091843Y0065993D03*
D105*
X0092593Y0066293D03*
D106*
X0044893Y0070193D03*
D107*
X0096193Y0070193D03*
D108*
X0040843Y0074693D03*
D109*
X0040243Y0075893D03*
D110*
X0040093Y0076493D03*
D111*
X0039493Y0077993D03*
D112*
X0039493Y0078293D03*
D113*
X0043393Y0078893D03*
D114*
X0043393Y0079193D03*
D115*
X0039193Y0080693D03*
D116*
X0039193Y0080993D03*
D117*
X0039343Y0081293D03*
D118*
X0039493Y0081593D03*
D119*
X0039493Y0081893D03*
D120*
X0039493Y0082193D03*
D121*
X0040093Y0082493D03*
D122*
X0043843Y0086393D03*
M02*
